<svg width="316" height="316" viewBox="0 0 316 316" fill="none" xmlns="http://www.w3.org/2000/svg">
<path d="M146 32.1333C127.067 34.8 102.8 44.8 87.3334 56.2667C38.4 92.6667 20.1334 157.6 43.0667 213.867C54.6667 242.267 78.1334 267.6 105.333 281.333C193.733 325.733 297.333 262.133 297.333 163.333C297.333 82.5334 226 20.6667 146 32.1333ZM196.667 42.5333C208.533 45.7333 226 53.6 235.6 60.1333C253.067 72.2667 272 95.2 279.6 113.6C286.667 130.8 288.267 138.533 288.933 158.133C289.733 180.133 287.733 192.667 280.667 210.267C272.267 231.2 254.267 253.733 235.6 266.533C226.267 272.933 208.667 280.933 196.667 284.267C181.333 288.4 149.467 288.4 134 284.267C88 271.733 52.5334 234.133 43.2 188C40.2667 173.2 41.2 143.333 45.0667 130.667C51.4667 109.6 60.4 93.4667 73.7334 79.2C92.9334 58.6667 114.667 46.4 142.133 40.6667C155.333 37.8667 182.8 38.9333 196.667 42.5333Z" fill="#C00101"/>
<path d="M248.667 112.933C238.4 114.133 238.667 114 238.667 123.333V131.867L229.333 132.8C224.267 133.2 220 134 220 134.4C220 134.667 220.667 137.467 221.6 140.4L223.2 145.6L230.8 144.8L238.533 144L238.933 153.067L239.333 162L249.067 161.867C254.533 161.733 259.6 160.933 260.667 160C262.267 158.667 262.667 154.533 262.667 139.733C262.667 125.067 263.067 120.533 264.8 118C266 116.267 266.533 114.133 266 113.333C265.2 112 257.2 111.867 248.667 112.933Z" fill="#C00101"/>
<path d="M141.333 114.267C129.867 115.467 130.667 113.867 130.667 134.667V153.333H124.667C118.933 153.333 118.8 153.2 119.333 149.6C119.6 147.6 120.133 142.667 120.533 138.533C120.933 134.533 121.6 129.333 122.133 127.067C122.8 123.333 122.533 122.933 117.467 120.8C110.133 118 106.4 118.133 102.267 121.333C99.6 123.467 94.6667 124.667 81.7334 126.267C72.4 127.467 64.5334 128.533 64.2667 128.667C64.1334 128.8 64.9334 131.2 66.1334 134L68.1334 139.067L77.0667 138.133C82 137.6 88.6667 136.8 91.8667 136.4L97.7334 135.6L96.9334 148C95.2 171.467 89.3334 187.467 77.0667 201.6C67.8667 212.4 70.2667 214.933 83.6 208.8C96.8 202.667 110.8 186.267 114.667 172.8C116 167.867 116.933 166.667 119.333 166.667C120.933 166.667 124.267 166.267 126.533 165.867L130.667 164.933V185.733C130.667 197.467 131.2 206.8 132 207.333C134.133 208.667 150.8 206.4 152.8 204.4C154.267 202.8 154.667 195.333 154.667 162.4C154.667 127.2 154.933 121.867 156.8 119.867C158 118.533 158.667 116.533 158.267 115.333C157.467 113.333 153.067 113.067 141.333 114.267Z" fill="#C00101"/>
<path d="M216.4 118C214.667 119.2 205.333 121.067 193.2 122.667C182 124.133 172.667 125.6 172.267 125.867C172 126.267 172.933 128.267 174.533 130.533C177.2 134.267 177.733 134.4 184.533 133.733L191.733 132.933L190.533 138.8C188.267 148.933 179.067 161.2 170 166.267C168.133 167.333 168 168.133 169.2 170.533C170.133 172 171.6 173.333 172.8 173.333C176.533 173.333 190.133 165.6 196.933 159.467L203.6 153.333L211.333 158.8C221.2 165.733 224.8 167.067 228.133 165.333C231.2 163.6 231.6 156.533 228.667 152.4C226.667 149.6 216.533 145.333 211.733 145.333C208.933 145.333 208.933 145.2 210.933 138.133C213.2 130.267 213.867 129.733 223.333 128.667C235.067 127.467 236.133 124.8 227.6 118.933C222.4 115.467 220.267 115.333 216.4 118Z" fill="#C00101"/>
<path d="M240 166.533C236.933 168.133 226.4 169.867 208.4 172C192.133 173.867 181.333 175.733 181.333 176.533C181.333 177.333 182.533 179.467 183.867 181.2L186.267 184.4L209.467 181.467C238 178 237.333 178 237.333 181.333C237.333 184.133 236.133 184.533 218 186.533C212.133 187.2 203.467 187.467 198.667 187.067C193.867 186.667 188.4 187.067 186.4 187.867C182.667 189.2 182.667 189.467 182.667 201.2C182.667 211.333 183.067 213.467 185.067 214.533C186.533 215.333 199.467 214.267 223.867 211.333C244 208.8 261.2 206.533 262.267 206.133C265.6 204.8 264 201.333 258.667 198.667C252.533 195.467 248.267 195.333 244.533 197.867C243.067 198.933 234.667 200.8 226 201.867C204.533 204.667 204 204.667 204 200.8C204 198.8 204.933 197.2 206.4 196.8C211.467 195.467 225.467 194.267 240 194.133C248.4 194 256.133 193.467 257.067 192.933C258.133 192.267 258.667 188.533 258.667 182.667C258.667 177.6 259.333 173.067 260 172.667C262.933 170.8 260.933 168.133 255.067 166.133C247.333 163.467 245.867 163.467 240 166.533Z" fill="#C00101"/>
</svg>
