<svg width="312" height="330" viewBox="0 0 312 330" fill="none" xmlns="http://www.w3.org/2000/svg">
<path d="M140.667 52C92.6667 59.4666 50.9334 94.2667 35.3334 140.133C10.2667 213.467 52.9334 292.533 127.6 311.467C188.267 326.8 250.933 298 278.8 242C288.4 222.667 292.267 206.4 292.4 184.667C292.4 175.067 291.733 163.733 290.8 159.333C280 107.467 243.067 67.8667 193.467 55.0667C179.067 51.3333 154.267 50 140.667 52ZM194 63.3333C228.667 73.4667 255.6 95.6 271.2 126.4C278.4 140.667 278.133 141.2 268.667 132.133L259.867 123.6L246.933 124.4C230.4 125.467 224.267 127.2 222.4 131.333C221.067 134.4 220.8 134.4 217.2 132.667C212.533 130.133 204.933 130.133 200.267 132.533C198.267 133.6 191.067 135.067 184.267 136L171.867 137.6L163.867 129.867L155.733 122.267L141.067 123.067C132.4 123.6 124.8 124.8 122.4 126C119.6 127.333 116.267 127.733 110.8 127.2C104.667 126.533 102.133 126.933 97.8667 129.067C94.8 130.667 87.2001 132.4 79.3334 133.333C56.8001 136 53.3334 137.6 53.3334 145.467C53.3334 149.867 59.4667 159.733 67.0667 167.6C74.8001 175.6 74.5334 176.533 64.2667 181.467C55.3334 185.733 53.3334 187.733 53.3334 192.933C53.3334 196.267 54.6667 198.8 58.6667 203.2L64 208.933V222.667V236.4L97.6001 270.267C116.133 288.8 130.4 304 129.333 304C128.267 303.867 122.133 302 115.867 299.6C76.2667 284.533 47.0667 250 38.4001 208C34.9334 191.6 35.7334 165.733 40.0001 150.8C53.4667 103.733 90.2667 69.8667 138 60.5333C152.933 57.6 179.2 58.9333 194 63.3333ZM153.333 134.533C153.333 135.867 152.4 137.733 151.333 138.667C149.733 140 149.333 144.533 149.333 164.133C149.333 191.6 150 190.133 136 190.933L127.333 191.333L126.667 186C126.267 183.067 125.333 180.8 124.667 180.8C123.867 180.933 119.333 181.467 114.533 182C106.133 182.8 105.6 182.667 104.933 179.867C104.133 176.933 104 177.067 98.8 181.733C93.2001 186.8 81.7334 193.067 72.9334 196C68.5334 197.333 67.4667 197.333 65.2001 195.2C62.6667 192.933 62.8 192.8 67.8667 190.533C74.9334 187.467 84.9334 178 88.4001 171.333C89.8667 168.4 91.8667 162.8 92.8 158.8L94.5334 151.6L84.2667 152.533C78.6667 153.067 72.8001 153.733 71.2001 154.133C69.0667 154.667 67.7334 153.733 65.6001 150.4C62.1334 144.933 62 145.067 81.3334 142.8C90.2667 141.733 97.3334 140.267 100.8 138.4C106.533 135.333 113.2 135.733 118 139.2C120.267 140.933 120.4 141.467 118.8 144.533C116.533 148.8 116.8 149.2 122.267 148.4C126.4 147.733 126.533 147.467 126.933 140.8L127.333 134L133.333 133.2C136.667 132.8 142.533 132.267 146.4 132.267C152.4 132 153.333 132.4 153.333 134.533ZM258 134.667C258.4 135.467 257.6 137.6 256.133 139.467C253.467 142.933 253.333 144.667 253.333 183.467C253.333 209.867 252.8 224.133 252 224.667C249.733 226 234.667 227.867 232.533 227.067C231.067 226.533 230.667 223.2 230.667 212.4V198.533L222.4 199.333C217.733 199.867 213.333 200.4 212.533 200.667C210.933 201.2 207.6 191.067 208.8 189.2C209.067 188.667 214.133 187.867 220 187.333L230.667 186.4V179.467V172.533L223.733 173.467C211.2 175.2 210.933 175.2 209.467 169.6C208.667 166.933 208 164.267 208 163.867C208 163.333 211.467 162.533 215.733 162.133C219.867 161.6 224.933 160.933 227.067 160.533L230.667 159.733V148V136.133L235.733 135.333C238.4 134.8 241.6 134.267 242.667 134C247.467 133.067 257.2 133.467 258 134.667ZM216.4 143.333C219.2 145.333 221.333 147.867 221.333 149.333C221.333 150.8 221.2 152 221.067 152.133C220.8 152.133 213.2 153.2 204 154.4L187.333 156.667L186.933 186C186.8 202.133 186.933 216 187.2 216.8C188 218.933 203.2 216.667 208.133 213.733C212 211.467 212.267 211.467 218.4 214.667C224.4 217.867 226.8 221.733 224.4 224.133C223.2 225.333 183.6 230.667 175.733 230.667C166.667 230.667 166.667 230.667 166.667 191.333C166.667 170.533 166.133 154.667 165.333 152.533C164.533 150.533 164.133 148.8 164.4 148.4C164.667 148.133 172.933 146.933 182.8 145.733C192.667 144.667 201.867 142.8 203.333 141.867C207.2 139.2 210.8 139.6 216.4 143.333ZM97.2001 199.2C98.2667 200.533 98.0001 201.733 96.0001 204.4C94.1334 206.8 93.3334 209.733 93.3334 214.533C93.3334 220.8 93.6001 221.333 96.4001 221.333C104.667 221.333 130.533 217.067 134.133 215.2C138.933 212.533 143.2 213.333 148.533 217.467C150.8 219.333 152 221.333 151.733 223.2C151.333 225.867 149.467 226.267 115.467 230.4C95.7334 232.8 78.1334 234.533 76.4001 234.133C73.3334 233.333 73.3334 232.933 73.3334 217.333C73.3334 206.133 73.8667 201.2 75.0667 200.4C76.6667 199.333 85.7334 197.867 92.1334 197.467C94.1334 197.467 96.4001 198.133 97.2001 199.2Z" fill="#C00101"/>
<path d="M119.6 159.867C115.467 160.533 114 161.733 111.2 166.4L107.733 172.133L112.533 171.467C115.2 171.067 119.467 170.4 122 170C126.4 169.2 126.667 168.933 126.667 164C126.667 161.067 126.267 158.8 125.733 158.8C125.067 158.933 122.4 159.467 119.6 159.867Z" fill="#C00101"/>
</svg>
