<svg width="500" height="168" viewBox="0 0 500 168" fill="none" xmlns="http://www.w3.org/2000/svg">
<path d="M107.521 50.68C103.601 49.84 98.1411 45.92 96.3211 42.84C95.7611 41.86 96.0411 41.02 97.0211 41.02C97.4411 41.02 99.1211 41.86 104.021 41.44C105.701 41.3 106.961 41.16 108.501 40.88C116.341 39.48 116.341 36.96 118.301 36.96C124.181 36.96 135.521 38.78 135.521 42.42C135.521 44.38 133.281 45.64 131.741 48.58C128.941 54.18 126.281 59.22 123.621 63.56C125.301 63.56 127.121 63.28 128.661 63.14L143.781 61.32C145.461 61.04 147.981 62.16 148.961 63.56V40.6C148.961 31.78 142.101 27.44 139.161 26.6C138.181 26.32 138.181 25.48 139.161 24.5C141.121 22.54 146.301 21 148.261 21C153.161 21 167.021 26.88 167.021 30.8C167.021 32.76 165.621 33.46 165.621 36.4L164.921 70C164.781 77.84 160.021 89.6 153.161 89.6C148.541 89.6 148.961 84 148.961 74.2V69.72L136.641 71.26C133.561 71.68 132.441 72.38 131.601 72.8C131.041 73.08 130.621 73.36 129.781 73.36C127.821 73.36 123.481 71.12 120.541 68.74C107.241 90.16 97.8611 94.22 90.8611 93.38C89.4611 93.24 88.0611 92.68 88.0611 91.7C88.0611 90.3 89.0411 90.86 92.8211 86.24C103.321 73.5 111.581 60.34 114.521 48.86L113.121 49.14C108.921 49.98 109.481 51.1 107.521 50.68ZM94.9211 52.5C81.2011 80.92 69.5811 85.82 60.7611 85.82C58.8011 85.82 57.2611 85.12 57.2611 84.14C57.2611 82.74 58.2411 83.16 61.1811 79.52C68.1811 71.12 74.4811 62.02 77.4211 52.22L73.2211 52.92C68.3211 53.76 68.8811 54.88 66.9211 54.6C63.5611 54.18 57.5411 49.28 55.7211 46.06C55.1611 45.08 55.4411 44.24 56.4211 44.24C56.8411 44.24 57.8211 45.22 64.1211 44.94C67.2011 44.8 69.7211 44.38 72.8011 43.82C79.6611 42.56 79.6611 40.04 81.6211 40.04C87.5011 40.04 98.0011 43.4 98.0011 46.34C98.0011 48.3 96.7411 48.58 94.9211 52.5ZM149.521 92.4C155.401 92.4 166.461 93.94 166.461 97.86C166.461 99.82 164.361 101.22 164.221 104.16L163.101 125.3C162.681 134.12 159.321 144.9 151.481 144.9C147.561 144.9 147.561 138.88 147.281 128.1L146.721 103.88L140.561 104.72C137.061 105.28 137.201 106.26 135.241 106.26C131.881 106.26 124.881 101.5 123.061 98.56C122.361 97.44 122.781 96.46 123.761 96.46C124.181 96.46 126.001 97.44 130.761 96.88L139.721 95.76C147.701 94.78 147.561 92.4 149.521 92.4ZM104.721 96.74C110.601 96.74 122.221 98.56 122.221 102.48C122.221 104.44 120.401 105.84 120.121 108.78C119.001 120.26 117.601 131.6 116.621 135.66C115.641 139.58 106.541 143.92 102.621 143.92C101.221 143.92 100.521 143.5 100.521 142.8C100.521 142.1 100.941 142.1 101.361 138.32C102.201 130.48 102.901 118.3 102.621 108.5L94.9211 109.62C89.3211 110.32 89.8811 111.86 87.9211 111.86C84.0011 111.86 75.6011 107.24 73.9211 103.18C73.5011 102.2 73.6411 101.08 74.6211 101.08C75.0411 101.08 75.7411 102.62 86.5211 101.22L94.9211 100.24C103.041 99.26 102.761 96.74 104.721 96.74ZM255.496 76.44C247.936 84.7 232.816 89.6 218.396 89.6C206.636 89.6 196.416 81.06 196.416 72.24C196.416 63.42 208.596 52.5 218.396 42.7C222.176 38.92 221.896 36.68 218.956 36.12C218.256 35.98 218.256 35.56 218.956 34.86C220.076 33.74 222.736 32.62 224.416 32.62C229.316 32.62 237.716 35.42 237.716 37.94C237.716 38.92 236.596 39.48 235.616 40.88C243.456 43.82 260.676 51.38 260.676 64.12C260.676 66.64 260.116 68.88 259.136 71.12L263.336 70.7L278.316 68.88C279.996 68.6 282.516 69.72 283.496 71.12V49.7L271.176 51.94C267.956 52.5 266.836 53.2 265.856 53.76C265.296 54.04 264.876 54.18 264.176 54.18C261.236 54.18 253.116 49.98 252.276 47.04C251.996 46.06 252.276 44.94 253.256 45.08C255.216 45.36 259.696 45.08 263.056 44.52L278.316 41.72C279.996 41.44 282.516 42.56 283.496 43.96V40.6C283.496 31.78 276.636 27.44 273.696 26.6C272.716 26.32 272.716 25.48 273.696 24.5C275.656 22.54 280.836 21 282.796 21C287.696 21 301.416 26.88 301.416 30.8C301.416 32.76 300.016 33.46 300.016 36.4L299.316 71.82C299.176 81.62 294.556 90.02 287.696 90.02C283.496 90.02 283.496 85.26 283.496 76.86L271.316 78.4C268.236 78.82 267.116 79.52 266.276 79.94C265.716 80.22 265.296 80.5 264.456 80.5C262.496 80.5 258.436 78.54 255.496 76.44ZM213.916 70.14C213.916 74.62 218.396 79.1 225.256 79.1C235.056 79.1 245.276 72.94 245.276 66.08C245.276 56.98 234.636 49.42 229.736 47.46C220.916 57.26 213.916 64.26 213.916 70.14ZM284.616 115.64C302.676 119.56 309.956 126.42 308.416 134.4C307.436 139.02 302.816 141.82 299.036 140.98C296.936 140.56 295.956 139.3 293.436 135.1C290.356 130.06 284.196 124.46 279.996 121.94C264.456 142.24 254.656 146.44 247.656 145.6C246.256 145.46 244.856 144.9 244.856 143.92C244.856 142.52 246.116 142.8 249.896 139.02C251.716 137.2 253.676 135.1 255.496 133C257.316 130.62 256.756 129.36 254.936 127.54C251.436 124.04 247.236 120.82 243.596 118.72C226.796 139.02 216.156 145.04 207.056 143.36C205.656 143.08 204.956 142.38 204.956 141.68C204.956 140.28 205.656 141.4 209.296 137.76C218.396 128.66 225.956 119.42 232.816 108.64C235.056 105 233.796 101.64 229.876 100.66C228.896 100.38 228.896 99.54 229.876 98.56C231.556 96.88 235.476 95.34 237.436 95.2C242.336 94.78 251.996 98.84 254.376 102.06C255.776 104.02 254.796 104.16 253.256 106.26L248.356 112.7C254.516 114.8 260.956 118.16 264.596 121.1C268.936 114.94 272.576 109.06 274.956 104.72C277.056 100.94 274.536 97.02 270.616 96.04C269.636 95.76 269.636 94.92 270.616 93.94C272.016 92.54 275.936 90.72 277.756 90.72C282.796 90.72 292.036 95.2 294.416 98.42C295.816 100.38 294.696 100.38 293.296 102.62C290.216 107.52 287.276 111.86 284.616 115.64ZM369.03 75.32C355.31 75.32 346.07 68.6 346.07 61.74C346.07 52.92 359.79 42.56 370.57 33.74C376.31 28.98 374.91 27.3 371.97 26.18C371.27 25.9 371.41 25.62 371.97 24.92C373.09 23.66 376.31 22.68 377.43 22.68C381.49 22.68 392.13 26.32 392.13 28.7C392.13 29.68 391.15 30.8 390.03 32.2C402.77 36.12 418.73 43.96 418.73 52.78C418.73 65.52 398.85 75.32 369.03 75.32ZM383.45 38.5C372.67 47.32 364.97 54.46 364.97 59.36C364.97 62.3 368.89 66.22 375.75 66.22C391.43 66.22 401.93 60.76 401.93 54.88C401.93 49 391.29 41.44 383.45 38.5ZM426.01 74.48C432.87 73.08 445.61 78.96 445.61 82.88C445.61 85.82 440.57 90.3 438.61 89.88C419.01 85.68 371.69 92.68 356.71 95.48C347.61 97.16 342.71 98.28 339.91 99.26C338.23 99.82 337.11 100.24 336.41 100.24C331.51 100.24 321.29 93.66 319.61 89.74C319.19 88.76 319.33 87.64 320.31 87.64C320.73 87.64 322.69 89.32 336.41 88.34C351.11 87.22 388.63 81.76 414.81 78.68C420.83 77.98 422.93 76.44 424.19 75.46C424.89 74.9 425.31 74.62 426.01 74.48ZM417.89 129.64C421.39 131.18 424.47 133.56 424.47 135.66C424.47 138.6 420.27 141.82 418.17 141.26C408.51 138.6 385.83 140.14 368.47 141.68C366.37 144.34 363.57 146.16 360.77 146.16C356.85 146.16 356.57 142.94 355.17 132.16L353.77 121.1C352.65 112.28 349.01 110.04 346.07 109.2C345.09 108.92 345.09 108.08 346.07 107.1C348.03 105.14 351.11 103.6 353.07 103.6C356.15 103.6 360.91 104.44 364.69 105.84C373.37 105.14 387.65 102.9 395.63 101.92C398.85 101.5 400.81 100.8 402.07 99.96C403.75 98.84 404.31 97.72 405.43 97.72C411.31 97.72 424.05 100.8 424.05 104.72C424.05 106.12 422.93 106.82 422.09 108.08C421.67 108.64 421.39 109.34 421.25 110.32L417.89 129.64ZM395.07 130.76C398.43 130.62 401.09 130.34 403.05 130.06C403.33 122.78 403.33 114.38 403.05 109.62L370.99 113.54L372.11 131.88L395.07 130.76Z" fill="#08068C"/>
<rect x="1.5" y="1.5" width="497" height="165" stroke="#08068C" stroke-width="10"/>
</svg>
