<svg width="267" height="267" viewBox="0 0 267 267" fill="none" xmlns="http://www.w3.org/2000/svg">
<path d="M114.267 16.1177C68 24.5177 32.9333 55.8511 19.0667 101.051C15.8667 111.584 15.4667 114.784 15.4667 133.451C15.4667 152.118 15.8667 155.318 19.0667 165.851C31.6 206.651 60.1333 235.184 100.933 247.718C111.467 250.918 114.667 251.318 133.333 251.318C152 251.318 155.2 250.918 165.733 247.718C206.533 235.184 235.067 206.651 247.6 165.851C250.8 155.318 251.2 152.118 251.2 133.451C251.2 114.784 250.8 111.584 247.6 101.051C235.067 60.1177 206.133 31.3177 165.733 19.3177C156.533 16.6511 150.267 15.7177 137.333 15.4511C128.133 15.1844 117.733 15.4511 114.267 16.1177ZM152.267 27.3177C169.867 30.7844 187.6 38.5177 198 47.4511L202 50.7844L198 49.3177C193.733 47.8511 188 48.6511 188 50.9177C188 51.5844 188.8 52.5177 189.867 52.9177C190.933 53.3177 192.267 54.6511 192.933 55.8511C193.467 57.0511 194.267 73.9844 194.667 93.4511C195.2 123.584 195.6 128.784 197.333 128.784C201.2 128.784 203.2 121.318 204 104.118L204.667 87.4511H212C220.533 87.4511 222.533 84.5177 216.8 80.6511C213.867 78.7844 212.667 78.7844 209.333 80.1177C207.067 81.0511 205.067 81.5844 204.933 81.3177C204.667 81.0511 204.8 74.6511 205.067 67.0511C205.6 53.3177 205.6 53.3177 208.267 55.7177C209.733 57.0511 213.867 61.7177 217.333 66.1177C249.067 106.251 249.2 160.118 217.6 200.518C214.267 204.784 210.933 207.984 210.133 207.718C208.267 207.051 208.8 192.918 210.8 189.318C211.867 187.184 211.467 186.518 208.4 185.318C204.533 183.851 203.2 183.984 188 186.784C183.2 187.584 176 187.851 171.733 187.451C162.4 186.384 160.667 187.184 163.467 191.451C164.533 193.184 166.133 199.051 166.8 204.384C167.6 209.718 168.667 214.651 169.333 215.318C170 215.984 172 215.851 174.267 215.051C178.933 213.318 199.067 211.718 202.667 212.784C205.067 213.584 204.667 214.251 199.067 218.651C170.667 241.184 132.267 247.318 96.8 234.918C67.8667 224.784 42 198.918 31.8667 169.984C19.0667 133.318 25.6 95.8511 50 65.3177C74.1333 35.3177 115.067 20.1177 152.267 27.3177ZM198.667 198.784V206.784H193.067C189.867 206.784 185.067 207.184 182.4 207.584L177.333 208.518V201.051V193.584L183.733 192.784C187.2 192.384 190.933 191.718 192 191.584C198.4 190.118 198.667 190.384 198.667 198.784Z" fill="#08068C"/>
<path d="M110.667 49.4511C109.067 50.5177 109.2 51.0511 111.733 53.4511C114.4 55.9844 114.667 57.4511 114.667 68.1177V80.1177H109.2H103.733L104.133 69.3177C104.667 57.3177 103.2 54.7844 96 54.7844C91.2 54.7844 90.2667 56.1177 92.8 58.9177C94.1333 60.3844 95.0667 65.0511 95.6 73.3177L96.4 85.4511L87.8667 89.3177C83.2 91.4511 77.2 93.7177 74.5333 94.1177C69.7333 95.0511 69.7333 94.9177 68.9333 89.8511C68.4 87.0511 68 81.7177 68 77.8511C68 70.1177 67.7333 69.8511 60.5333 68.7844C53.0667 67.7177 50.8 69.5844 54.2667 73.9844C56.2667 76.3844 57.3333 80.3844 58 87.7177C59.0667 99.9844 61.2 104.118 66.4 104.118C71.2 104.118 81.8667 99.0511 89.6 93.0511L95.8667 88.2511L96.2667 103.851C96.6667 117.051 97.0667 119.451 98.8 119.851C102.133 120.518 104 113.318 104 99.9844C104 93.5844 104.4 87.9844 105.067 87.7177C105.6 87.3177 108 86.6511 110.4 86.1177L114.667 85.1844V103.184C114.667 123.184 115.467 129.451 118.133 129.451C123.2 129.451 125.067 116.918 125.467 81.0511L125.733 52.7844L121.2 50.5177C116.133 47.8511 113.6 47.5844 110.667 49.4511Z" fill="#08068C"/>
<path d="M170 65.3177C168.267 67.0511 147.733 69.9844 143.2 69.0511C138.667 68.2511 139.2 70.3844 144.4 73.5844C147.467 75.4511 149.867 75.9844 152.667 75.3177C161.867 73.3177 168 72.6511 168 73.4511C168 75.3177 157.333 90.6511 150.133 99.1844C143.733 106.784 143.067 108.118 145.467 108.118C153.867 108.118 162.8 99.8511 176.267 79.5844C184.133 67.7177 184.533 65.5844 178.667 65.4511C177.6 65.4511 175.467 65.0511 174 64.6511C172.533 64.2511 170.667 64.6511 170 65.3177Z" fill="#08068C"/>
<path d="M110.667 137.451C109.067 138.518 109.2 139.051 111.733 141.451C114.4 143.984 114.667 145.451 114.667 157.184V170.118L110 170.384L105.333 170.651V158.251C105.333 144.518 104.4 142.651 97.6 142.518C91.8667 142.384 90.2667 143.718 93.2 146.651C95.3333 148.784 95.7333 152.651 96.4 178.784C96.9333 195.984 97.8667 209.184 98.6667 209.984C102.267 213.584 105.2 203.451 105.333 187.318V176.384L110 175.851L114.667 175.318V192.251C114.667 211.184 115.467 217.451 118.133 217.451C123.2 217.451 125.067 204.918 125.467 169.051L125.733 140.784L121.2 138.518C116.133 135.851 113.6 135.584 110.667 137.451Z" fill="#08068C"/>
<path d="M197.333 137.451C195.733 138.518 195.867 139.184 198.4 141.851C200.8 144.384 201.333 146.518 201.333 153.584V162.118L196.667 162.251H192.133L191.733 152.918C191.333 144.118 191.067 143.451 187.867 142.251C186 141.584 182.667 141.451 180.667 141.984L176.933 142.918L179.867 145.984C182.133 148.384 182.667 150.651 182.667 157.051V165.318L175.2 167.984C163.867 172.251 156.933 173.584 155.733 171.718C155.2 170.784 154.667 166.651 154.667 162.518C154.667 158.384 154.133 154.651 153.6 154.251C151.067 152.784 141.867 152.118 140.133 153.318C138.533 154.251 138.8 155.184 141.2 158.118C142.667 160.118 144 163.718 144 165.984C144 171.584 146.267 179.451 148.533 181.318C151.067 183.451 165.467 178.784 174.4 172.784C178.4 170.251 181.867 168.118 182.133 168.118C182.4 168.118 182.667 170.384 182.667 173.184C182.667 175.984 183.467 179.318 184.4 180.651C186.133 182.918 186.267 182.918 188.4 180.784C189.6 179.584 191.067 176.251 191.467 173.451C192.267 168.918 192.8 168.384 196.8 167.851C201.333 167.318 201.333 167.318 201.333 172.784C201.333 179.851 203.067 182.651 206.267 180.651C210 178.384 211.733 171.051 212.133 155.318L212.533 140.784L208 138.518C202.8 135.851 200.267 135.584 197.333 137.451Z" fill="#08068C"/>
<path d="M68.6667 149.584C66.5333 150.251 63.6 150.384 62.4 149.984C58.8 148.918 59.4667 151.584 63.4667 154.651C67.7333 157.984 76.2667 158.384 79.2 155.318C81.7333 152.784 81.8667 151.851 79.7333 149.718C77.8667 147.851 74.4 147.851 68.6667 149.584Z" fill="#08068C"/>
<path d="M71.3334 162.251C65.4667 163.184 58 163.984 54.6667 164.118L48.6667 164.251L52.5334 167.584C55.2 169.984 57.2 170.784 59.2 170.118C60.8 169.584 63.4667 168.918 65.3334 168.518L68.6667 167.718L65.2 171.584C59.4667 177.984 56 183.718 56 186.784C56 188.384 57.7334 191.451 59.8667 193.584C64.5334 198.251 71.0667 198.651 79.4667 194.918C92.4 189.051 92.8 177.318 80.4 170.918C75.3334 168.384 76.9334 166.784 84.5334 166.784C91.8667 166.784 94.8 164.784 91.6 161.584C89.8667 159.851 85.3334 159.984 71.3334 162.251ZM79.3334 179.184L82 184.251L78.8 186.918C74.2667 190.651 67.4667 189.851 66.9334 185.718C66.2667 181.718 71.7334 173.184 74.5334 173.718C75.7334 173.984 77.8667 176.384 79.3334 179.184Z" fill="#08068C"/>
</svg>
