<svg width="267" height="267" viewBox="0 0 267 267" fill="none" xmlns="http://www.w3.org/2000/svg">
<path d="M114.267 16.1177C68 24.5177 32.9333 55.8511 19.0667 101.051C15.8667 111.584 15.4667 114.784 15.4667 133.451C15.4667 152.118 15.8667 155.318 19.0667 165.851C31.6 206.651 60.1333 235.184 100.933 247.718C111.467 250.918 114.667 251.318 133.333 251.318C152 251.318 155.2 250.918 165.733 247.718C206.533 235.184 235.067 206.651 247.6 165.851C250.8 155.318 251.2 152.118 251.2 133.451C251.2 114.784 250.8 111.584 247.6 101.051C235.067 60.1177 206.133 31.3177 165.733 19.3177C156.533 16.6511 150.267 15.7177 137.333 15.4511C128.133 15.1844 117.733 15.4511 114.267 16.1177ZM152.267 27.3177C170.4 30.9177 188 38.6511 198.667 47.9844L203.333 51.9844L199.067 52.1177H194.667V91.4511V130.784H200H205.333V110.784V90.7844H210.667H216V85.4511V80.1177H210.667H205.333V67.4511C205.333 60.1177 205.867 54.7844 206.667 54.7844C207.333 54.7844 211.333 58.7844 215.333 63.7177C249.067 104.518 249.867 159.184 217.467 200.651L211.333 208.518L210.933 195.584L210.533 182.784H177.333H144V198.784V214.784H173.733L203.333 214.918L198.667 218.918C188 228.251 170.4 235.984 152.267 239.584C114.933 246.784 73.6 231.318 49.7333 201.184C17.4667 160.518 17.3333 107.051 49.2 66.2511L55.3333 58.3844L55.7333 91.3177L56 124.118H72.6667H89.3333V119.451V114.784H78.6667H68V84.7844V54.7844H64.6667C60 54.7844 60.5333 53.4511 67.7333 47.9844C91.7333 29.4511 123.6 21.7177 152.267 27.3177ZM198.4 199.051L198 206.118H177.333H156.667L156.267 199.051L155.867 192.118H177.333H198.8L198.4 199.051Z" fill="#C00101"/>
<path d="M94.6666 90.1177V128.118H100H105.333V110.118V92.1177H110H114.533L114.933 111.051L115.333 130.118L121.067 130.518L126.667 130.918V91.5844V52.1177H120.667H114.667V66.7844V81.4511H110H105.333V66.7844V52.1177H100H94.6666V90.1177Z" fill="#C00101"/>
<path d="M137.333 59.4511V64.1177H153.067C161.733 64.1177 169.2 64.3844 169.6 64.7844C171.067 66.2511 167.733 82.3844 164.4 89.7177C160.4 98.5177 149.6 109.584 142 112.251C137.733 113.851 137.333 114.518 137.333 119.184C137.333 124.251 137.467 124.384 141.067 123.451C148.533 121.718 156.933 116.651 163.333 110.118C174.8 98.6511 180.133 85.5844 182 64.3844L182.8 54.7844H160.133H137.333V59.4511Z" fill="#C00101"/>
<path d="M66.4 140.384C66 144.651 65.7334 144.784 59.7334 145.184C53.4667 145.584 53.3334 145.718 53.3334 150.251V154.784H72.6667H92V150.118V145.451H85.3334H78.6667V140.784C78.6667 136.118 78.6667 136.118 72.8 136.118C67.0667 136.118 66.8 136.251 66.4 140.384Z" fill="#C00101"/>
<path d="M96.9333 138.251C96.4 138.784 96 155.984 96 176.384V213.451H102H108V196.784V180.118H111.333H114.533L114.933 197.718L115.333 215.451L121.067 215.851L126.667 216.251V176.918V137.451H120.667H114.667V153.451V169.451H111.333H108.133L107.733 153.718L107.333 138.118L102.667 137.718C100 137.451 97.4667 137.718 96.9333 138.251Z" fill="#C00101"/>
<path d="M178.667 158.784V180.118H184H189.333V171.451V162.784H194H198.667V171.451V180.118H204.667H210.667V158.784V137.451H204.667H198.667V144.784V152.118H194H189.333V144.784V137.451H184H178.667V158.784Z" fill="#C00101"/>
<path d="M138.667 156.784V174.784H156H173.333V170.118V165.451H162H150.667V152.118V138.784H144.667H138.667V156.784Z" fill="#C00101"/>
<path d="M67.4667 158.918C57.0667 160.651 53.7333 169.184 55.0667 190.518C55.8667 203.718 58.1333 207.851 66.1333 210.651C73.2 213.051 80.6667 211.584 85.4667 206.918C88.2667 204.118 89.3333 201.318 90 195.451C92.1333 179.318 88.6667 163.184 82.8 160.651C78 158.651 72.4 157.984 67.4667 158.918ZM77.3333 170.784C78.1333 172.251 78.6667 178.918 78.4 186.251C78 197.451 77.6 199.318 75.3333 200.918C72.9333 202.518 72.1333 202.384 69.6 200.651C66.9333 198.784 66.6667 197.451 66.6667 185.984C66.6667 178.918 67.3333 172.118 68 170.651C69.8667 167.318 75.4667 167.318 77.3333 170.784Z" fill="#C00101"/>
</svg>
