<svg width="267" height="267" viewBox="0 0 267 267" fill="none" xmlns="http://www.w3.org/2000/svg">
<path d="M114.267 16.1178C68 24.5178 32.9333 55.8511 19.0667 101.051C15.8667 111.584 15.4667 114.784 15.4667 133.451C15.4667 152.118 15.8667 155.318 19.0667 165.851C31.6 206.651 60.1333 235.184 100.933 247.718C111.467 250.918 114.667 251.318 133.333 251.318C152 251.318 155.2 250.918 165.733 247.718C206.533 235.184 235.067 206.651 247.6 165.851C250.8 155.318 251.2 152.118 251.2 133.451C251.2 114.784 250.8 111.584 247.6 101.051C235.067 60.1178 206.133 31.3178 165.733 19.3178C156.533 16.6511 150.267 15.7178 137.333 15.4511C128.133 15.1844 117.733 15.4511 114.267 16.1178ZM152.267 27.3178C170.4 30.9178 188 38.6511 198.667 47.9844C202.933 51.7178 203.067 51.9844 200.4 52.1178C197.333 52.1178 197.333 52.3844 197.333 70.7844V89.4511H202.667H208V73.4511C208 64.6511 208.533 57.4511 209.2 57.4511C211.067 57.4511 223.067 73.0511 227.867 81.5844C245.6 113.318 245.467 153.851 227.467 185.984C222.4 194.918 208.667 212.118 206.667 212.118C205.867 212.118 205.333 204.918 205.333 194.118V176.118H210.667H216V170.784V165.451H210.667H205.333V151.451V137.451H200H194.667V176.784V216.118H198.4L202 216.251L198 219.584C187.467 228.384 169.733 236.118 152.267 239.584C114.933 246.784 73.6 231.318 49.7333 201.184C17.4667 160.518 17.3333 107.051 49.2 66.2511L55.3333 58.3844L55.7333 91.3178L56 124.118H72.6667H89.3333V119.451V114.784H78.6667H68V84.7844V54.7844H64.6667C60 54.7844 60.5333 53.4511 67.7333 47.9844C91.7333 29.4511 123.6 21.7178 152.267 27.3178Z" fill="#08068C"/>
<path d="M94.6666 90.1177V128.118H100H105.333V110.118V92.1177H110H114.533L114.933 111.051L115.333 130.118L121.067 130.518L126.667 130.918V91.5844V52.1177H120.667H114.667V66.7844V81.4511H110H105.333V66.7844V52.1177H100H94.6666V90.1177Z" fill="#08068C"/>
<path d="M149.733 53.4511C132.933 58.6511 132.533 81.4511 149.2 86.9178C156.133 89.1844 172 88.9178 176.933 86.2511C190 79.5844 191.067 62.6511 178.8 55.5844C173.6 52.6511 156.667 51.3178 149.733 53.4511ZM172.533 64.2511C182.4 71.9844 170.4 82.6511 156 78.7844C147.733 76.5178 145.6 70.3844 151.333 64.7845C155.733 60.3844 167.2 59.9844 172.533 64.2511Z" fill="#08068C"/>
<path d="M144 98.1178V102.784H170C192.267 102.784 196 103.051 196 104.784C196 106.518 192.267 106.784 170 106.784H144V118.118V129.451H177.333H210.667V125.451V121.451H183.333C156.933 121.451 156 121.318 156 118.784C156 116.251 156.933 116.118 182 116.118H208V104.784V93.4511H176H144V98.1178Z" fill="#08068C"/>
<path d="M71.6 137.051C71.0667 137.451 70.6667 139.584 70.6667 141.718V145.451H61.3333H52V150.118V154.784H77.3333H102.667V150.118V145.451H93.3333H84V140.784C84 136.118 84 136.118 78.2667 136.118C75.0667 136.118 72 136.518 71.6 137.051Z" fill="#08068C"/>
<path d="M110.667 176.784V216.118H116H121.333V198.118V180.118H126.667H132V174.784V169.451H126.667H121.333V153.451V137.451H116H110.667V176.784Z" fill="#08068C"/>
<path d="M137.333 144.784V149.451H146.933H156.4L155.6 164.118C154.4 183.718 149.467 194.918 140.133 198.784C136.533 200.251 136 201.051 136 205.584C136 208.918 136.667 210.784 137.733 210.784C141.6 210.784 153.733 202.251 157.6 196.784L161.733 190.918L165.467 196.118C169.067 200.918 178 207.984 183.067 209.851C184.933 210.518 185.333 209.851 185.333 205.851C185.333 201.851 184.4 200.251 180 196.384C170.933 188.651 168.8 183.184 168.267 165.051L167.733 149.451H175.867H184V144.784V140.118H160.667H137.333V144.784Z" fill="#08068C"/>
<path d="M72.6667 158.784C60 160.651 55.3334 167.584 55.3334 184.784C55.3334 198.118 57.3334 203.318 64.4 208.651C69.7334 212.651 84.8 212.651 90.1334 208.651C98.1334 202.651 99.3334 199.718 99.3334 184.918C99.3334 174.118 98.8 170.518 96.9334 167.718C92.2667 160.518 83.3334 157.318 72.6667 158.784ZM85.2 171.584C87.4667 174.518 88 177.051 88 185.318C87.8667 191.451 87.2 196.384 86.1334 197.718C83.6 201.184 77.8667 202.918 74.1334 201.451C68.5334 199.318 66.6667 195.051 66.6667 184.384C66.6667 175.851 67.0667 174.251 70 171.451C74.5334 166.784 81.4667 166.918 85.2 171.584Z" fill="#08068C"/>
<path d="M114.267 16.1178C68 24.5178 32.9333 55.8511 19.0667 101.051C15.8667 111.584 15.4667 114.784 15.4667 133.451C15.4667 152.118 15.8667 155.318 19.0667 165.851C31.6 206.651 60.1333 235.184 100.933 247.718C111.467 250.918 114.667 251.318 133.333 251.318C152 251.318 155.2 250.918 165.733 247.718C206.533 235.184 235.067 206.651 247.6 165.851C250.8 155.318 251.2 152.118 251.2 133.451C251.2 114.784 250.8 111.584 247.6 101.051C235.067 60.1178 206.133 31.3178 165.733 19.3178C156.533 16.6511 150.267 15.7178 137.333 15.4511C128.133 15.1844 117.733 15.4511 114.267 16.1178ZM152.267 27.3178C170.4 30.9178 188 38.6511 198.667 47.9844C202.933 51.7178 203.067 51.9844 200.4 52.1178C197.333 52.1178 197.333 52.3844 197.333 70.7844V89.4511H202.667H208V73.4511C208 64.6511 208.533 57.4511 209.2 57.4511C211.067 57.4511 223.067 73.0511 227.867 81.5844C245.6 113.318 245.467 153.851 227.467 185.984C222.4 194.918 208.667 212.118 206.667 212.118C205.867 212.118 205.333 204.918 205.333 194.118V176.118H210.667H216V170.784V165.451H210.667H205.333V151.451V137.451H200H194.667V176.784V216.118H198.4L202 216.251L198 219.584C187.467 228.384 169.733 236.118 152.267 239.584C114.933 246.784 73.6 231.318 49.7333 201.184C17.4667 160.518 17.3333 107.051 49.2 66.2511L55.3333 58.3844L55.7333 91.3178L56 124.118H72.6667H89.3333V119.451V114.784H78.6667H68V84.7844V54.7844H64.6667C60 54.7844 60.5333 53.4511 67.7333 47.9844C91.7333 29.4511 123.6 21.7178 152.267 27.3178Z" fill="#08068C"/>
<path d="M94.6666 90.1177V128.118H100H105.333V110.118V92.1177H110H114.533L114.933 111.051L115.333 130.118L121.067 130.518L126.667 130.918V91.5844V52.1177H120.667H114.667V66.7844V81.4511H110H105.333V66.7844V52.1177H100H94.6666V90.1177Z" fill="#08068C"/>
<path d="M149.733 53.4511C132.933 58.6511 132.533 81.4511 149.2 86.9178C156.133 89.1844 172 88.9178 176.933 86.2511C190 79.5844 191.067 62.6511 178.8 55.5844C173.6 52.6511 156.667 51.3178 149.733 53.4511ZM172.533 64.2511C182.4 71.9844 170.4 82.6511 156 78.7844C147.733 76.5178 145.6 70.3844 151.333 64.7845C155.733 60.3844 167.2 59.9844 172.533 64.2511Z" fill="#08068C"/>
<path d="M144 98.1178V102.784H170C192.267 102.784 196 103.051 196 104.784C196 106.518 192.267 106.784 170 106.784H144V118.118V129.451H177.333H210.667V125.451V121.451H183.333C156.933 121.451 156 121.318 156 118.784C156 116.251 156.933 116.118 182 116.118H208V104.784V93.4511H176H144V98.1178Z" fill="#08068C"/>
<path d="M71.6 137.051C71.0667 137.451 70.6667 139.584 70.6667 141.718V145.451H61.3333H52V150.118V154.784H77.3333H102.667V150.118V145.451H93.3333H84V140.784C84 136.118 84 136.118 78.2667 136.118C75.0667 136.118 72 136.518 71.6 137.051Z" fill="#08068C"/>
<path d="M110.667 176.784V216.118H116H121.333V198.118V180.118H126.667H132V174.784V169.451H126.667H121.333V153.451V137.451H116H110.667V176.784Z" fill="#08068C"/>
<path d="M137.333 144.784V149.451H146.933H156.4L155.6 164.118C154.4 183.718 149.467 194.918 140.133 198.784C136.533 200.251 136 201.051 136 205.584C136 208.918 136.667 210.784 137.733 210.784C141.6 210.784 153.733 202.251 157.6 196.784L161.733 190.918L165.467 196.118C169.067 200.918 178 207.984 183.067 209.851C184.933 210.518 185.333 209.851 185.333 205.851C185.333 201.851 184.4 200.251 180 196.384C170.933 188.651 168.8 183.184 168.267 165.051L167.733 149.451H175.867H184V144.784V140.118H160.667H137.333V144.784Z" fill="#08068C"/>
<path d="M72.6667 158.784C60 160.651 55.3334 167.584 55.3334 184.784C55.3334 198.118 57.3334 203.318 64.4 208.651C69.7334 212.651 84.8 212.651 90.1334 208.651C98.1334 202.651 99.3334 199.718 99.3334 184.918C99.3334 174.118 98.8 170.518 96.9334 167.718C92.2667 160.518 83.3334 157.318 72.6667 158.784ZM85.2 171.584C87.4667 174.518 88 177.051 88 185.318C87.8667 191.451 87.2 196.384 86.1334 197.718C83.6 201.184 77.8667 202.918 74.1334 201.451C68.5334 199.318 66.6667 195.051 66.6667 184.384C66.6667 175.851 67.0667 174.251 70 171.451C74.5334 166.784 81.4667 166.918 85.2 171.584Z" fill="#08068C"/>
</svg>
