<svg width="267" height="267" viewBox="0 0 267 267" fill="none" xmlns="http://www.w3.org/2000/svg">
<path d="M114.267 16.1178C68 24.5178 32.9333 55.8511 19.0667 101.051C15.8667 111.584 15.4667 114.784 15.4667 133.451C15.4667 152.118 15.8667 155.318 19.0667 165.851C31.6 206.651 60.1333 235.184 100.933 247.718C111.467 250.918 114.667 251.318 133.333 251.318C152 251.318 155.2 250.918 165.733 247.718C206.533 235.184 235.067 206.651 247.6 165.851C250.8 155.318 251.2 152.118 251.2 133.451C251.2 114.784 250.8 111.584 247.6 101.051C235.067 60.1178 206.133 31.3178 165.733 19.3178C156.533 16.6511 150.267 15.7178 137.333 15.4511C128.133 15.1844 117.733 15.4511 114.267 16.1178ZM152.267 27.3178C170.4 30.9178 188 38.6511 198.667 47.9844C202.933 51.7178 203.067 51.9844 200.4 52.1178C197.333 52.1178 197.333 52.3844 197.333 70.7844V89.4511H202.667H208V73.4511C208 64.6511 208.533 57.4511 209.2 57.4511C209.867 57.4511 213.467 61.1844 217.067 65.7178C249.2 106.384 249.333 159.984 217.467 200.651L211.333 208.518L210.933 172.918L210.667 137.451H204.667H198.667V152.118V166.784H195.333C192.133 166.784 192.133 166.651 191.733 152.384L191.333 138.118H186H180.667L180.267 175.851L180 213.451H186H192V195.451V177.451H195.333H198.667V195.851C198.667 206.918 199.2 214.784 200 215.584C202.667 218.251 184.533 229.718 169.867 234.918C137.067 246.384 103.067 242.384 74.4 223.584C70.8 221.318 68 219.051 68 218.518C68 217.851 80.6667 217.451 96 217.451H124V213.451V209.451H96.6667C70.2667 209.451 69.3333 209.318 69.3333 206.784C69.3333 204.251 70.2667 204.118 95.3333 204.118H121.333V193.451V182.784H89.3333H57.3333V187.451V192.118H83.3333C105.6 192.118 109.333 192.384 109.333 194.118C109.333 195.851 105.6 196.118 83.3333 196.118H57.3333V202.118C57.3333 205.451 56.8 208.118 56.1333 208.118C55.6 208.118 52.4 204.651 49.0667 200.384C17.4667 160.251 17.6 106.651 49.2 66.2511L55.3333 58.3844L55.7333 91.3178L56 124.118H72.6667H89.3333V119.451V114.784H78.6667H68V84.7844V54.7844H64.6667C60 54.7844 60.5333 53.4511 67.7333 47.9844C91.7333 29.4511 123.6 21.7178 152.267 27.3178Z" fill="#08068C"/>
<path d="M94.6667 90.1177V128.118H100H105.333V110.118V92.1177H110H114.533L114.933 111.051L115.333 130.118L121.067 130.518L126.667 130.918V91.5844V52.1177H120.667H114.667V66.7844V81.4511H110H105.333V66.7844V52.1177H100H94.6667V90.1177Z" fill="#08068C"/>
<path d="M149.733 53.4511C132.933 58.6511 132.533 81.4511 149.2 86.9178C156.133 89.1844 172 88.9178 176.933 86.2511C190 79.5844 191.067 62.6511 178.8 55.5844C173.6 52.6511 156.667 51.3178 149.733 53.4511ZM172.533 64.2511C182.4 71.9844 170.4 82.6511 156 78.7844C147.733 76.5178 145.6 70.3844 151.333 64.7845C155.733 60.3844 167.2 59.9844 172.533 64.2511Z" fill="#08068C"/>
<path d="M144 98.1178V102.784H170C192.267 102.784 196 103.051 196 104.784C196 106.518 192.267 106.784 170 106.784H144V118.118V129.451H177.333H210.667V125.451V121.451H183.333C156.933 121.451 156 121.318 156 118.784C156 116.251 156.933 116.118 182 116.118H208V104.784V93.4511H176H144V98.1178Z" fill="#08068C"/>
<path d="M70.6667 140.118C70.6667 142.518 69.7333 142.784 61.3333 142.784H52V147.451V152.118H77.3333H102.667V147.451V142.784H93.3333C84.9333 142.784 84 142.518 84 140.118C84 137.851 83.0667 137.451 77.3333 137.451C71.6 137.451 70.6667 137.851 70.6667 140.118Z" fill="#08068C"/>
<path d="M110.667 160.118V180.118H115.867H121.2L121.6 173.051L122 166.118L127.067 165.718C131.733 165.318 132 165.051 132 160.784C132 156.518 131.733 156.251 127.067 155.851L122 155.451L121.6 147.718L121.2 140.118H116H110.667V160.118Z" fill="#08068C"/>
<path d="M138.667 144.784V149.451H150H161.333V159.451V169.451H150H138.667V190.118V210.784H157.333H176V206.118V201.584L163.067 201.184L150 200.784V190.118V179.451L161.733 179.051L173.333 178.651V159.451V140.118H156H138.667V144.784Z" fill="#08068C"/>
<path d="M59.0667 157.451C51.3334 162.118 52 172.918 60.2667 177.718C62.2667 178.784 68.5334 179.451 77.6 179.451C90 179.451 92.2667 179.051 95.6 176.651C103.067 171.051 103.067 161.984 95.6 157.451C89.3334 153.584 65.3334 153.584 59.0667 157.451ZM85.8667 164.118C89.7334 165.584 90.4 168.784 87.2 169.984C86 170.384 81.6 170.784 77.3334 170.784C68.2667 170.784 65.3334 169.851 65.3334 167.318C65.3334 163.318 78.6667 161.318 85.8667 164.118Z" fill="#08068C"/>
</svg>
