<svg width="302" height="328" viewBox="0 0 302 328" fill="none" xmlns="http://www.w3.org/2000/svg">
<path d="M127.333 39.1666C70.9333 47.9666 25.7333 92.7666 16.6667 148.9C5.46667 217.567 47.2 280.9 115.733 299.433C130.933 303.567 161.467 303.567 177.6 299.433C260.267 278.633 302.533 189.7 266.133 113.167C249.333 77.7 216.8 51.1666 178.4 41.7C165.6 38.6333 139.6 37.3 127.333 39.1666ZM178.533 49.8333C224 62.7666 257.2 96.7666 268.267 141.3C272.267 157.967 272.267 183.033 268.267 199.7C257.2 244.633 224.133 278.1 177.733 291.433C162.667 295.833 132.267 295.833 116.133 291.433C71.7333 279.433 38.4 245.967 26.4 201.567C22 185.567 22 155.433 26.4 139.433C39.3333 91.8333 76.5333 57.0333 124.667 47.7C138.133 45.0333 165.867 46.1 178.533 49.8333Z" fill="#08068C"/>
<path d="M201.867 87.7C200.4 88.7666 191.2 90.5 181.333 91.7C152 95.1666 153.067 94.9 154.933 98.2333C155.867 99.8333 156.933 105.3 157.333 110.5L158 119.833L163.333 119.433C166.267 119.167 170.667 118.1 172.933 117.033C175.733 115.7 183.2 114.767 193.6 114.5C202.4 114.1 210.8 113.567 212.267 113.033C214.267 112.5 214.667 110.9 214.667 103.167C214.667 98.1 215.333 93.5666 216 93.1666C218.667 91.5666 217.2 89.0333 212.933 87.4333C207.2 85.3 205.2 85.4333 201.867 87.7ZM198.667 101.7C198.667 105.833 199.467 105.567 180.4 107.967L173.333 108.9V104.633C173.333 100.233 174.267 99.7 184 98.7666C197.6 97.3 198.667 97.5666 198.667 101.7Z" fill="#08068C"/>
<path d="M81.0666 90.7667L77.3333 91.3V103.7C77.3333 112.233 77.8666 116.633 79.0666 117.567C80.2666 118.633 88.4 118.1 107.333 115.7C122 113.967 134.8 112.233 135.733 111.833C138.8 110.633 137.333 107.167 132.667 104.9C128.267 102.767 127.6 102.767 124.267 104.767C122.267 105.833 116.8 107.167 112 107.7C107.2 108.233 101.333 108.9 99.0666 109.433L94.6666 110.1V102.767C94.6666 98.6333 95.3333 94.9 96 94.5C96.8 94.1 97.3333 92.7667 97.3333 91.7C97.3333 89.8333 90.1333 89.4333 81.0666 90.7667Z" fill="#08068C"/>
<path d="M211.333 115.033C210.533 115.7 196.533 117.833 180 119.833C163.467 121.833 149.867 123.7 149.6 123.833C149.467 123.967 149.867 125.567 150.667 127.433C152.267 130.9 152.667 130.9 173.067 127.967C176.533 127.433 177.333 127.833 177.333 129.833C177.333 131.833 176 132.5 169.733 133.167C165.467 133.7 160.4 134.5 158.4 134.9C154.933 135.833 154.933 135.967 157.067 138.767C159.333 141.7 159.333 141.7 174.667 139.833C183.067 138.767 192 137.567 194.4 137.3C197.467 136.9 198.667 137.167 198.667 138.5C198.667 139.433 197.6 140.633 196.4 141.033C191.733 142.233 176.533 143.567 168.933 143.3C158 143.033 156 144.367 156 152.5C156 161.567 156.933 163.167 161.867 163.167C164.133 163.167 177.733 161.7 192 159.833C206.267 157.967 218.133 156.5 218.4 156.5C218.533 156.5 218.667 155.7 218.667 154.767C218.667 151.033 204.133 147.833 202.133 151.033C201.733 151.567 197.333 152.5 192.4 153.033C187.467 153.567 181.067 154.233 178.4 154.767C174 155.433 173.333 155.167 173.333 152.9C173.333 150.633 174.8 150.1 185.733 148.767C192.4 147.967 199.867 147.7 202 148.1C204.267 148.367 208.133 148.233 210.667 147.567C215.2 146.367 215.333 146.233 216.133 137.7C216.667 131.967 216.533 128.9 215.467 128.233C213.2 126.767 201.6 127.033 200.667 128.5C199.333 130.633 193.333 130.1 193.333 127.967C193.333 125.433 194.933 125.033 211.733 123.167C219.2 122.233 225.733 120.9 226.267 120.1C228.533 116.5 214.8 111.7 211.333 115.033Z" fill="#08068C"/>
<path d="M133.333 116.367C132.267 117.033 117.867 119.3 101.333 121.3C84.8 123.3 71.2 125.033 70.9333 125.3C70.6667 125.433 71.2 126.9 72 128.5C73.4667 131.3 74.2667 131.433 83.2 130.633C88.4 130.1 94.9333 129.433 97.7333 128.9L102.667 128.1V135.033C102.667 143.167 103.867 143.967 113.067 142.367L119.333 141.167L119.733 133.7L120.133 126.233L133.067 124.633C147.733 122.9 150.133 121.567 145.467 117.7C142.267 115.033 136.667 114.5 133.333 116.367Z" fill="#08068C"/>
<path d="M81.0667 135.3C79.0667 136.367 78.6667 138.633 78.6667 148.367C78.6667 157.7 79.0667 160.367 80.6667 161.033C83.4667 162.1 137.733 155.3 139.333 153.7C141.333 151.7 134 145.833 129.467 145.833C127.467 145.833 125.333 146.367 124.667 147.033C123.6 147.967 101.733 151.167 96.1334 151.167C94.2667 151.167 94.2667 140.1 96.1334 138.233C96.9334 137.433 97.2 136.1 96.8 135.3C95.6 133.433 84.1334 133.433 81.0667 135.3Z" fill="#08068C"/>
<path d="M126 176.367L119.333 177.167L118.933 199.033L118.533 220.9L125.867 220.1C130 219.7 133.867 219.033 134.667 218.5C135.333 218.1 136 214.233 136 209.833C136 201.433 136.8 200.5 144.133 200.5C147.067 200.5 148 199.833 148 197.833C148 194.633 143.467 192.1 139.2 192.9C136.267 193.433 136 193.033 136 187.967C136 184.9 136.667 181.7 137.467 180.9C138.4 179.967 138.667 178.367 138.267 177.3C137.333 175.033 137.067 175.033 126 176.367Z" fill="#08068C"/>
<path d="M204.667 177.433C202.533 177.7 199.333 178.233 197.733 178.5L194.667 179.167V213.3C194.667 239.3 195.067 247.433 196.4 247.833C197.2 248.233 201.067 247.967 204.667 247.433L211.333 246.5L211.733 230.367L212.133 214.233L218.933 213.433C226.533 212.5 227.333 212.1 226.267 209.3C224.933 205.833 217.733 202.9 214.667 204.5C212.133 205.833 212 205.433 212 195.033C212 186.767 212.533 183.433 214.133 181.7C218.133 177.3 215.333 176.1 204.667 177.433Z" fill="#08068C"/>
<path d="M77.3333 183.033L71.3333 183.833V203.167V222.5H80C84.8 222.367 94.8 221.567 102.4 220.633C114.133 219.167 116 218.5 116 216.367C116 214.9 114.267 213.033 111.733 211.7C107.867 209.7 107.067 209.7 103.467 211.567C101.2 212.633 96.4 213.967 92.9333 214.367L86.5333 215.167L87.0666 201.433C87.3333 193.967 87.8666 186.633 88.1333 185.167C88.8 182.1 86.8 181.7 77.3333 183.033Z" fill="#08068C"/>
<path d="M174 183.033C172.933 183.967 153.867 187.167 149.467 187.167C147.867 187.167 149.467 247.833 151.067 249.433C152.4 250.767 156.667 250.633 171.333 248.9C181.6 247.7 190.667 246.233 191.6 245.567C193.867 243.7 192.4 241.167 187.6 238.5C183.467 236.367 182.8 236.367 176.933 238.367C164.667 242.5 165.333 243.7 165.333 217.3V194.1L173.067 193.3C189.333 191.433 191.333 189.967 184.533 184.633C180.8 181.7 176.133 181.033 174 183.033Z" fill="#08068C"/>
<path d="M80.6667 226.767C79.2 227.167 77.6 228.1 77.0667 229.033C75.6 231.167 75.8667 250.1 77.3333 252.5C78.4 254.233 82.1333 253.967 106.667 250.9C122.267 249.033 135.6 246.767 136.4 245.967C137.6 244.633 137.333 243.7 134.8 241.7C130.533 238.233 125.733 237.167 122.267 239.033C120.667 239.833 113.2 241.3 105.733 242.233L92 243.967V238.633C92 235.567 92.9333 231.967 94 230.633C95.0667 229.3 95.6 227.567 95.2 227.033C94.5333 225.833 85.2 225.7 80.6667 226.767Z" fill="#08068C"/>
</svg>
