<svg width="320" height="312" viewBox="0 0 320 312" fill="none" xmlns="http://www.w3.org/2000/svg">
<path d="M148.667 28C113.333 33.6 79.0667 55.2 59.0667 84.8C30.0001 127.733 28.5334 183.2 55.4667 228.267C59.4667 234.933 66.6667 244 74.0001 251.467C92.2667 270.133 110.933 281.067 136 287.733C153.467 292.267 181.733 292.667 198.667 288.4C214.4 284.4 227.467 278.667 240.8 270C268.533 252 288.267 224.267 296.8 191.333C299.6 180.533 300.267 174.8 300.4 160.667C300.4 151.067 299.733 139.733 298.8 135.333C285.733 72.5333 235.2 29.2 172.667 27.3333C163.867 27.0667 153.067 27.3333 148.667 28ZM202 39.3333C236.4 49.3333 264.533 72.5333 279.2 102.667C282.667 109.867 282.267 109.467 263.067 89.7333C247.467 73.7333 242.133 68.9333 237.467 67.3333C230.267 64.8 225.733 64.8 220.933 67.3333C218.8 68.4 207.2 70.5333 194.933 72C182.667 73.4667 171.333 75.3333 169.6 76.2667C165.867 78.2667 164.533 83.3333 166.4 88.4L167.867 92.4L164.933 89.6C161.333 86.1333 153.2 82.6667 149.067 82.6667C147.333 82.6667 144.4 83.4667 142.533 84.5333C139.067 86.2667 138.667 86.1333 130.533 77.7333L122 69.0667L108.933 69.7333C97.6001 70.2667 95.3334 70.8 92.5334 73.4667C89.6001 76.2667 89.3334 77.4667 89.3334 90.4C89.3334 103.6 89.2001 104.4 86.0001 106.933C83.7334 108.667 82.6667 110.8 82.6667 113.467C82.6667 117.467 86.9334 127.2 89.3334 128.667C90.0001 129.067 90.6667 134.533 90.6667 140.8C90.6667 151.733 90.8001 152.133 95.3334 157.2L100 162.267L93.7334 163.067C83.3334 164.267 82.6667 165.867 82.6667 191.333C82.6667 210.933 82.9334 213.333 85.3334 216.4C87.4667 219.067 88.0001 221.733 88.0001 229.867C88.0001 235.467 88.8001 242 89.8667 244.4C90.8001 246.8 97.2001 254 104 260.4C110.8 266.8 115.733 272 115.067 272C111.6 272 90.1334 256.8 81.2001 248.133C64.9334 232 53.7334 212.8 47.7334 190.4C43.3334 174.4 43.3334 144.267 47.7334 128.267C60.6667 80.6667 97.8667 45.8667 146 36.5333C160.933 33.6 187.2 34.9333 202 39.3333ZM234.267 76.2667C238.533 77.8667 240 80.4 237.333 82C236.667 82.4 236 86.9333 236 92C236 100.533 235.733 101.333 233.067 101.867C224.667 103.6 221.333 103.867 220.8 102.8C220 101.467 195.067 104.667 192.933 106.4C192.133 107.067 188.667 108 185.333 108.133L179.333 108.667L178.933 99.4667C178.667 94.1333 177.733 89.0667 176.4 87.2C175.333 85.4667 174.8 84 175.333 84C182.267 84 221.333 78 223.333 76.6667C226.667 74.2667 228.667 74.2667 234.267 76.2667ZM118.667 80.5333C118.667 81.6 118.133 82.9333 117.333 83.3333C115.733 84.2667 115.467 98.6667 117.067 98.6667C123.333 98.6667 141.6 95.4667 145.067 93.7333C149.067 91.7333 149.733 91.7333 154.133 93.7333C157.333 95.3333 158.667 96.8 158.4 98.4C158 100.267 153.867 101.2 130.667 104.133C113.6 106.267 102.4 107.2 101.067 106.4C99.0667 105.467 98.6667 103.333 98.6667 92.6667V80.1333L102.4 79.6C111.467 78.2667 118.667 78.6667 118.667 80.5333ZM245.333 105.333C247.6 106.933 248.267 108.267 247.333 109.2C246.667 109.867 239.067 111.333 230.667 112.267C217.6 113.733 215.333 114.4 214.933 116.533C214.533 118.667 214.933 118.933 218.933 118.133C229.067 116 232.133 115.733 235.2 116.533C238.267 117.333 238.4 117.733 237.733 125.6C237.333 130.267 236.533 134.533 235.867 135.2C235.333 135.867 229.2 136.533 222.4 136.667C202 137.2 194.667 138.533 194.667 141.467C194.667 142.933 195.467 144 196.4 144C198.533 143.867 222.133 140.267 227.733 139.2C232.133 138.4 240 140.667 240 142.8C240 143.467 238.667 144.533 237.067 145.2C232.533 146.8 180.133 152.667 179.067 151.6C177.6 150 177.2 136.8 178.533 134.667C179.467 133.2 182.533 132.667 188.933 132.533C205.333 132.267 218.8 130.533 219.6 128.4C220 127.467 220.133 126.4 219.867 126.133C219.6 125.867 210.667 126.667 200 128C182.267 130.267 180.533 130.267 179.067 128.267C176.4 124.933 176.933 124.267 182.667 123.467C185.6 123.067 190.4 122.267 193.333 121.867C197.6 121.2 198.667 120.533 198.667 118.4C198.667 116.267 198 115.867 195.733 116.4C194 116.8 188.4 117.6 183.067 118.133C174.133 118.933 173.467 118.8 172 116C171.2 114.4 170.667 112.933 170.933 112.8C171.2 112.533 184.8 110.8 201.333 108.8C217.733 106.8 232.133 104.533 233.333 104C236.667 102 241.733 102.533 245.333 105.333ZM166.667 106.4C168.4 107.733 169.333 109.467 168.933 110.267C168.4 111.067 162 112.4 154.8 113.333L141.467 114.933L141.067 122.533L140.667 130L133.467 131.067C125.067 132.4 124 131.6 124 122.8V116.933L118.4 117.733C115.2 118.133 108.667 118.933 103.867 119.467C95.6001 120.267 94.8001 120.133 93.3334 117.333C92.5334 115.733 92.0001 114.267 92.2667 114.133C92.5334 114 106 112.133 122.4 110.267C138.8 108.267 153.2 106.133 154.4 105.333C158 103.333 163.467 103.733 166.667 106.4ZM117.467 125.333C117.067 126.4 116.533 130.133 116.267 133.6C115.867 139.067 116.133 140 118.133 140C124 140 144.8 136.933 146 135.867C146.667 135.2 148.8 134.667 150.8 134.667C155.2 134.667 162.667 140.533 160.667 142.4C159.067 144 104.667 150.8 102 149.733C100.4 149.2 100 146.4 100 137.2C100 126 100.267 125.2 103.067 124C104.667 123.333 108.667 122.933 112 123.067C116.667 123.333 117.867 123.733 117.467 125.333ZM159.6 166.133C160 167.2 159.733 168.8 158.8 169.733C158 170.533 157.333 173.733 157.333 176.8C157.333 181.867 157.6 182.267 160.533 181.733C164.667 180.933 169.6 183.6 169.067 186.4C168.8 187.867 166.933 188.933 163.333 189.333L158 190L157.333 198.667C156.667 207.067 156.533 207.333 152.667 208.133C150.533 208.667 146.667 209.067 144.4 209.2L140 209.333V188C140 164.267 139.067 166.267 150 164.933C157.867 163.867 158.8 164 159.6 166.133ZM236.667 166.8C237.2 167.467 236.667 169.2 235.467 170.533C233.867 172.267 233.333 175.6 233.333 183.867C233.333 194.4 233.467 194.667 236.133 193.333C238.267 192.133 239.733 192.4 243.067 194.267C250.133 198.4 249.333 200.933 240.8 202L233.467 202.933L233.067 219.2L232.667 235.333L225.333 236.267C221.333 236.667 217.6 236.8 217.067 236.533C216.4 236.133 216 220.533 216 202V168L219.067 167.333C222.4 166.667 228.533 165.867 232.933 165.467C234.533 165.467 236.267 166 236.667 166.8ZM110 172C110.4 172.667 109.867 174.667 108.8 176.267C107.2 178.4 106.667 182.533 106.667 191.733V204.133L114.4 203.2C118.533 202.667 123.333 201.467 124.933 200.4C127.333 198.8 128.4 198.8 132.533 200.533C137.067 202.4 138.8 205.6 136.133 207.2C134 208.533 96.4001 212.4 94.1334 211.6C92.1334 210.8 92.0001 208.533 92.2667 191.733L92.6667 172.667L98.6667 171.867C108.267 170.533 109.067 170.533 110 172ZM205.867 173.467C207.733 174.933 209.333 176.933 209.333 178C209.333 179.733 207.6 180.133 193.067 182.133L186.667 182.933V206.133C186.667 232.533 186 231.333 198.267 227.2C204.133 225.2 204.8 225.2 208.933 227.333C213.733 230 215.333 232.8 212.933 234.267C210.8 235.6 175.867 239.867 173.6 239.067C171.067 238 170.8 234.667 170.4 204.4L170 176.267L182 174.667C188.667 173.867 194.533 172.667 195.333 171.867C197.333 169.867 202.133 170.533 205.867 173.467ZM116.533 215.867C116.933 216.533 116.4 217.733 115.333 218.667C114.133 219.733 113.333 222.667 113.333 226.533V232.8L127.067 231.067C134.533 230.133 142 228.667 143.6 227.867C147.067 226 151.867 227.067 156.133 230.533C158.4 232.4 158.933 233.6 157.867 234.667C157.067 235.467 144 237.6 128.933 239.6C106.267 242.4 100.933 242.667 99.3334 241.333C97.7334 240 97.3334 237.2 97.6001 228.8C98.0001 218.933 98.2667 218 101.333 216.4C105.2 214.4 115.467 214.133 116.533 215.867Z" fill="#08068C"/>
<path d="M207.333 87.3333C200.8 88.2667 195.2 89.2 195.067 89.2C194.8 89.3333 194.667 91.2 194.667 93.4667V97.7333L203.067 96.8C219.733 94.9333 220 94.9333 220 89.8667C220 87.3333 219.867 85.4667 219.733 85.4667C219.467 85.6 214 86.4 207.333 87.3333Z" fill="#08068C"/>
</svg>
