<svg width="369" height="358" viewBox="0 0 369 358" fill="none" xmlns="http://www.w3.org/2000/svg">
    <rect x="29" y="23" width="311" height="311" stroke="black" stroke-width="10" stroke-linecap="square" stroke-dasharray="30 30"/>
    <path d="M105.081 97.8919C104.416 97.7019 104.416 97.1319 105.081 96.4669C106.411 95.1369 108.976 93.7119 110.306 93.6169C112.681 93.4269 116.671 94.1869 119.521 95.5169C126.931 94.5669 139.946 92.8569 144.126 92.4769C148.116 92.0969 147.641 90.8619 148.876 90.6719C153.531 90.0069 159.326 91.4319 159.326 94.0919C159.326 96.0869 156.856 99.1269 155.526 98.8419C150.111 97.7019 133.106 99.6969 123.036 101.597L123.891 116.607C123.986 117.557 124.461 118.127 125.411 118.032C130.066 117.367 140.801 116.132 143.271 115.847C149.921 115.087 149.161 113.472 150.871 113.187C155.526 112.522 162.746 113.662 162.746 116.987C162.746 118.982 160.371 122.022 158.946 121.737C150.966 120.122 125.411 124.017 116.766 126.012C115.436 126.297 112.776 123.922 112.586 121.262L111.256 106.442C110.686 100.457 107.076 98.4619 105.081 97.8919ZM163.886 138.837C169.206 138.077 178.136 141.212 178.136 144.537C178.136 146.532 174.716 149.572 173.386 149.287C159.991 146.437 123.701 151.187 113.061 152.517C107.741 153.182 105.841 154.227 104.511 154.227C101.186 154.227 93.7758 149.002 92.6358 146.342C92.3508 145.677 92.4458 144.917 93.1108 144.917C93.4908 144.917 95.2008 146.152 104.511 145.867C111.541 145.677 122.276 144.727 132.156 143.682L131.681 139.027C131.301 135.037 130.066 132.187 127.406 131.427C126.741 131.237 126.741 130.667 127.406 130.002C128.736 128.672 131.301 127.722 132.631 127.627C137.286 127.342 144.696 129.907 144.696 131.902C144.696 132.567 144.126 133.042 144.031 135.702L143.841 142.447C147.736 141.972 151.156 141.592 153.436 141.402C162.746 140.452 162.556 139.027 163.886 138.837ZM262.682 100.932C267.242 99.7919 272.657 104.447 272.657 107.107C272.657 109.102 269.237 111.762 267.907 111.382C264.487 110.432 260.592 109.862 256.127 109.767L256.032 115.942C255.937 121.927 252.707 129.717 248.052 129.717C244.917 129.717 245.202 125.917 245.202 119.267V91.9069C245.202 85.9219 240.547 82.9769 238.552 82.4069C237.887 82.2169 237.887 81.6469 238.552 80.9819C239.882 79.6519 243.397 78.6069 244.727 78.6069C248.052 78.6069 257.457 82.5969 257.457 85.2569C257.457 86.5869 256.507 87.0619 256.507 89.0569L256.222 103.687C259.642 103.307 260.877 102.357 261.637 101.597C262.017 101.217 262.302 101.027 262.682 100.932ZM222.117 120.692C219.077 117.652 214.992 114.992 211.287 113.852C201.407 126.867 192.667 130.762 186.682 129.717C185.732 129.527 185.257 129.052 185.257 128.577C185.257 127.627 185.447 128.197 188.487 125.537C195.612 119.362 202.262 110.337 204.922 103.687C205.777 101.597 205.112 99.7919 203.972 98.5569C202.832 98.7469 201.882 99.0319 200.932 99.2219C196.467 100.362 197.037 101.217 195.707 101.217C193.047 101.217 187.347 97.6069 186.207 94.8519C185.922 94.1869 186.017 93.4269 186.682 93.4269C186.967 93.4269 188.487 94.5669 193.807 93.9019C199.127 93.2369 209.292 91.8119 216.607 91.1469C220.597 90.7669 220.502 89.4369 221.832 89.2469C225.822 88.6769 232.092 91.8119 232.092 94.4719C232.092 96.0869 229.622 98.3669 228.292 98.0819C224.302 97.2269 219.457 97.0369 214.802 97.2269C216.892 98.4619 218.697 99.6969 219.267 100.647C220.027 101.977 218.982 102.262 218.222 103.497C216.892 105.682 215.657 107.677 214.327 109.577C228.577 110.052 234.087 113.377 233.232 119.172C232.757 122.497 230.192 124.587 226.867 124.302C224.872 124.112 224.112 122.687 222.117 120.692ZM238.267 133.422C246.912 136.082 256.032 140.262 256.032 146.247C256.032 156.222 244.727 162.777 225.442 162.777C214.137 162.777 208.627 153.372 208.627 148.717C208.627 142.732 215.372 138.267 221.357 134.942C227.342 131.617 228.482 130.287 225.157 129.432C224.777 129.337 224.682 129.052 225.157 128.577C225.822 127.912 228.102 126.867 229.432 126.867C232.187 126.867 239.787 129.907 239.787 131.617C239.787 132.282 239.122 132.662 238.267 133.422ZM228.862 154.227C239.502 154.227 245.107 150.142 245.107 146.817C245.107 143.492 240.072 139.122 233.422 136.462C226.772 139.787 220.502 144.727 220.502 148.052C220.502 150.332 223.542 154.227 228.862 154.227ZM143.746 222.437C143.746 233.077 129.211 238.872 115.246 238.872C107.266 238.872 100.141 233.932 100.141 227.947C100.141 222.627 108.121 214.552 115.436 207.237C118.096 204.577 117.811 203.152 115.816 202.772C115.341 202.677 115.436 202.392 115.816 201.917C116.576 201.062 118.761 200.397 119.521 200.397C122.846 200.397 128.546 202.867 128.546 204.482C128.546 205.147 127.786 205.717 127.121 206.762C133.581 209.232 139.661 213.032 142.321 217.592C143.841 217.592 145.741 217.402 147.356 217.212L155.716 216.167C156.856 215.977 158.566 216.737 159.231 217.687V205.907C159.231 199.922 154.576 196.977 152.581 196.407C151.916 196.217 151.916 195.647 152.581 194.982C153.911 193.652 157.426 192.607 158.756 192.607C162.081 192.607 171.486 196.597 171.486 199.257C171.486 200.587 170.536 201.062 170.536 203.057L170.061 225.857C169.966 231.177 166.736 239.157 162.081 239.157C158.946 239.157 159.231 235.357 159.231 228.707V221.867L152.771 222.722C150.681 223.007 149.921 223.482 149.351 223.767C148.971 223.957 148.686 224.147 148.116 224.147C147.166 224.147 145.361 223.387 143.746 222.342V222.437ZM112.016 226.522C112.016 229.562 115.246 231.747 119.901 231.747C126.551 231.747 133.296 228.422 133.296 223.767C133.296 219.587 129.116 214.457 123.131 211.132C117.146 217.782 112.016 223.862 112.016 226.522ZM161.986 255.877C171.961 259.297 177.281 264.902 176.236 270.887C175.666 274.022 172.626 275.922 170.346 275.637C168.351 275.352 167.211 274.117 166.451 271.837C164.836 267.087 161.986 262.717 159.326 260.437C150.206 274.972 143.556 277.442 137.096 276.397C136.051 276.207 135.386 275.257 135.006 273.642L121.706 274.497C120.471 276.207 118.666 277.537 116.481 277.537C113.821 277.537 113.536 273.547 112.681 266.137L111.636 256.447C110.971 250.367 109.736 249.417 107.741 248.847C107.076 248.657 107.076 248.087 107.741 247.422C108.691 246.472 111.161 245.142 112.491 245.142C117.146 245.142 122.181 247.517 122.181 249.797C122.181 251.127 121.896 250.937 122.086 253.597L122.181 255.212L133.581 254.167L133.391 250.272C133.106 245.617 130.446 246.187 130.446 245.522C130.446 244.572 132.536 243.052 133.866 242.862C136.526 242.482 142.226 244.477 142.226 246.472C142.226 247.802 141.846 247.612 141.941 250.272L142.416 266.897C142.416 267.942 142.321 269.462 142.036 270.127L142.321 270.317C146.596 265.092 151.821 255.307 154.481 248.657C155.621 245.902 153.436 243.812 151.441 243.242C150.776 243.052 150.776 242.482 151.441 241.817C152.581 240.677 154.956 239.727 156.096 239.632C159.421 239.347 165.311 242.102 167.211 244.762C168.161 246.092 167.021 246.282 166.356 247.612C164.836 250.652 163.411 253.407 161.986 255.877ZM122.941 268.892L134.436 268.227L134.246 265.947L133.866 259.202L122.466 260.342L122.941 268.892ZM217.367 229.467C208.057 229.467 201.787 224.907 201.787 220.252C201.787 214.267 211.097 207.237 218.412 201.252C222.307 198.022 221.357 196.882 219.362 196.122C218.887 195.932 218.982 195.742 219.362 195.267C220.122 194.412 222.307 193.747 223.067 193.747C225.822 193.747 233.042 196.217 233.042 197.832C233.042 198.497 232.377 199.257 231.617 200.207C240.262 202.867 251.092 208.187 251.092 214.172C251.092 222.817 237.602 229.467 217.367 229.467ZM227.152 204.482C219.837 210.467 214.612 215.312 214.612 218.637C214.612 220.632 217.272 223.292 221.927 223.292C232.567 223.292 239.692 219.587 239.692 215.597C239.692 211.607 232.472 206.477 227.152 204.482ZM256.032 228.897C260.687 227.947 269.332 231.937 269.332 234.597C269.332 236.592 265.912 239.632 264.582 239.347C251.282 236.497 219.172 241.247 209.007 243.147C202.832 244.287 199.507 245.047 197.607 245.712C196.467 246.092 195.707 246.377 195.232 246.377C191.907 246.377 184.972 241.912 183.832 239.252C183.547 238.587 183.642 237.827 184.307 237.827C184.592 237.827 185.922 238.967 195.232 238.302C205.207 237.542 230.667 233.837 248.432 231.747C252.517 231.272 253.942 230.227 254.797 229.562C255.272 229.182 255.557 228.992 256.032 228.897ZM250.522 266.327C252.897 267.372 254.987 268.987 254.987 270.412C254.987 272.407 252.137 274.592 250.712 274.212C244.157 272.407 228.767 273.452 216.987 274.497C215.562 276.302 213.662 277.537 211.762 277.537C209.102 277.537 208.912 275.352 207.962 268.037L207.012 260.532C206.252 254.547 203.782 253.027 201.787 252.457C201.122 252.267 201.122 251.697 201.787 251.032C203.117 249.702 205.207 248.657 206.537 248.657C208.627 248.657 211.857 249.227 214.422 250.177C220.312 249.702 230.002 248.182 235.417 247.517C237.602 247.232 238.932 246.757 239.787 246.187C240.927 245.427 241.307 244.667 242.067 244.667C246.057 244.667 254.702 246.757 254.702 249.417C254.702 250.367 253.942 250.842 253.372 251.697C253.087 252.077 252.897 252.552 252.802 253.217L250.522 266.327ZM235.037 267.087C237.317 266.992 239.122 266.802 240.452 266.612C240.642 261.672 240.642 255.972 240.452 252.742L218.697 255.402L219.457 267.847L235.037 267.087Z" fill="black"/>
</svg>
