<svg width="602" height="602" viewBox="0 0 602 602" fill="none" xmlns="http://www.w3.org/2000/svg">
<rect x="5" y="5" width="592" height="592" stroke="black" stroke-width="10" stroke-linecap="square" stroke-dasharray="30 30"/>
<path d="M156.98 148.54C155.72 148.18 155.72 147.1 156.98 145.84C159.5 143.32 164.36 140.62 166.88 140.44C171.38 140.08 178.94 141.52 184.34 144.04C198.38 142.24 223.04 139 230.96 138.28C238.52 137.56 237.62 135.22 239.96 134.86C248.78 133.6 259.76 136.3 259.76 141.34C259.76 145.12 255.08 150.88 252.56 150.34C242.3 148.18 210.08 151.96 191 155.56L192.62 184C192.8 185.8 193.7 186.88 195.5 186.7C204.32 185.44 224.66 183.1 229.34 182.56C241.94 181.12 240.5 178.06 243.74 177.52C252.56 176.26 266.24 178.42 266.24 184.72C266.24 188.5 261.74 194.26 259.04 193.72C243.92 190.66 195.5 198.04 179.12 201.82C176.6 202.36 171.56 197.86 171.2 192.82L168.68 164.74C167.6 153.4 160.76 149.62 156.98 148.54ZM268.4 226.12C278.48 224.68 295.4 230.62 295.4 236.92C295.4 240.7 288.92 246.46 286.4 245.92C261.02 240.52 192.26 249.52 172.1 252.04C162.02 253.3 158.42 255.28 155.9 255.28C149.6 255.28 135.56 245.38 133.4 240.34C132.86 239.08 133.04 237.64 134.3 237.64C135.02 237.64 138.26 239.98 155.9 239.44C169.22 239.08 189.56 237.28 208.28 235.3L207.38 226.48C206.66 218.92 204.32 213.52 199.28 212.08C198.02 211.72 198.02 210.64 199.28 209.38C201.8 206.86 206.66 205.06 209.18 204.88C218 204.34 232.04 209.2 232.04 212.98C232.04 214.24 230.96 215.14 230.78 220.18L230.42 232.96C237.8 232.06 244.28 231.34 248.6 230.98C266.24 229.18 265.88 226.48 268.4 226.12ZM455.593 154.3C464.233 152.14 474.493 160.96 474.493 166C474.493 169.78 468.013 174.82 465.493 174.1C459.013 172.3 451.633 171.22 443.173 171.04L442.993 182.74C442.813 194.08 436.693 208.84 427.873 208.84C421.933 208.84 422.473 201.64 422.473 189.04V137.2C422.473 125.86 413.653 120.28 409.873 119.2C408.613 118.84 408.613 117.76 409.873 116.5C412.393 113.98 419.053 112 421.573 112C427.873 112 445.693 119.56 445.693 124.6C445.693 127.12 443.893 128.02 443.893 131.8L443.353 159.52C449.833 158.8 452.173 157 453.613 155.56C454.333 154.84 454.873 154.48 455.593 154.3ZM378.733 191.74C372.973 185.98 365.233 180.94 358.213 178.78C339.493 203.44 322.933 210.82 311.593 208.84C309.793 208.48 308.893 207.58 308.893 206.68C308.893 204.88 309.253 205.96 315.013 200.92C328.513 189.22 341.113 172.12 346.153 159.52C347.773 155.56 346.513 152.14 344.353 149.8C342.193 150.16 340.393 150.7 338.593 151.06C330.133 153.22 331.213 154.84 328.693 154.84C323.653 154.84 312.853 148 310.693 142.78C310.153 141.52 310.333 140.08 311.593 140.08C312.133 140.08 315.013 142.24 325.093 140.98C335.173 139.72 354.433 137.02 368.293 135.76C375.853 135.04 375.673 132.52 378.193 132.16C385.753 131.08 397.633 137.02 397.633 142.06C397.633 145.12 392.953 149.44 390.433 148.9C382.873 147.28 373.693 146.92 364.873 147.28C368.833 149.62 372.253 151.96 373.333 153.76C374.773 156.28 372.793 156.82 371.353 159.16C368.833 163.3 366.493 167.08 363.973 170.68C390.973 171.58 401.413 177.88 399.793 188.86C398.893 195.16 394.033 199.12 387.733 198.58C383.953 198.22 382.513 195.52 378.733 191.74ZM409.333 215.86C425.713 220.9 442.993 228.82 442.993 240.16C442.993 259.06 421.573 271.48 385.033 271.48C363.613 271.48 353.173 253.66 353.173 244.84C353.173 233.5 365.953 225.04 377.293 218.74C388.633 212.44 390.793 209.92 384.493 208.3C383.773 208.12 383.593 207.58 384.493 206.68C385.753 205.42 390.073 203.44 392.593 203.44C397.813 203.44 412.213 209.2 412.213 212.44C412.213 213.7 410.953 214.42 409.333 215.86ZM391.513 255.28C411.673 255.28 422.293 247.54 422.293 241.24C422.293 234.94 412.753 226.66 400.153 221.62C387.553 227.92 375.673 237.28 375.673 243.58C375.673 247.9 381.433 255.28 391.513 255.28ZM230.24 384.52C230.24 404.68 202.7 415.66 176.24 415.66C161.12 415.66 147.62 406.3 147.62 394.96C147.62 384.88 162.74 369.58 176.6 355.72C181.64 350.68 181.1 347.98 177.32 347.26C176.42 347.08 176.6 346.54 177.32 345.64C178.76 344.02 182.9 342.76 184.34 342.76C190.64 342.76 201.44 347.44 201.44 350.5C201.44 351.76 200 352.84 198.74 354.82C210.98 359.5 222.5 366.7 227.54 375.34C230.42 375.34 234.02 374.98 237.08 374.62L252.92 372.64C255.08 372.28 258.32 373.72 259.58 375.52V353.2C259.58 341.86 250.76 336.28 246.98 335.2C245.72 334.84 245.72 333.76 246.98 332.5C249.5 329.98 256.16 328 258.68 328C264.98 328 282.8 335.56 282.8 340.6C282.8 343.12 281 344.02 281 347.8L280.1 391C279.92 401.08 273.8 416.2 264.98 416.2C259.04 416.2 259.58 409 259.58 396.4V383.44L247.34 385.06C243.38 385.6 241.94 386.5 240.86 387.04C240.14 387.4 239.6 387.76 238.52 387.76C236.72 387.76 233.3 386.32 230.24 384.34V384.52ZM170.12 392.26C170.12 398.02 176.24 402.16 185.06 402.16C197.66 402.16 210.44 395.86 210.44 387.04C210.44 379.12 202.52 369.4 191.18 363.1C179.84 375.7 170.12 387.22 170.12 392.26ZM264.8 447.88C283.7 454.36 293.78 464.98 291.8 476.32C290.72 482.26 284.96 485.86 280.64 485.32C276.86 484.78 274.7 482.44 273.26 478.12C270.2 469.12 264.8 460.84 259.76 456.52C242.48 484.06 229.88 488.74 217.64 486.76C215.66 486.4 214.4 484.6 213.68 481.54L188.48 483.16C186.14 486.4 182.72 488.92 178.58 488.92C173.54 488.92 173 481.36 171.38 467.32L169.4 448.96C168.14 437.44 165.8 435.64 162.02 434.56C160.76 434.2 160.76 433.12 162.02 431.86C163.82 430.06 168.5 427.54 171.02 427.54C179.84 427.54 189.38 432.04 189.38 436.36C189.38 438.88 188.84 438.52 189.2 443.56L189.38 446.62L210.98 444.64L210.62 437.26C210.08 428.44 205.04 429.52 205.04 428.26C205.04 426.46 209 423.58 211.52 423.22C216.56 422.5 227.36 426.28 227.36 430.06C227.36 432.58 226.64 432.22 226.82 437.26L227.72 468.76C227.72 470.74 227.54 473.62 227 474.88L227.54 475.24C235.64 465.34 245.54 446.8 250.58 434.2C252.74 428.98 248.6 425.02 244.82 423.94C243.56 423.58 243.56 422.5 244.82 421.24C246.98 419.08 251.48 417.28 253.64 417.1C259.94 416.56 271.1 421.78 274.7 426.82C276.5 429.34 274.34 429.7 273.08 432.22C270.2 437.98 267.5 443.2 264.8 447.88ZM190.82 472.54L212.6 471.28L212.24 466.96L211.52 454.18L189.92 456.34L190.82 472.54ZM369.733 397.84C352.093 397.84 340.213 389.2 340.213 380.38C340.213 369.04 357.853 355.72 371.713 344.38C379.093 338.26 377.293 336.1 373.513 334.66C372.613 334.3 372.793 333.94 373.513 333.04C374.953 331.42 379.093 330.16 380.533 330.16C385.753 330.16 399.433 334.84 399.433 337.9C399.433 339.16 398.173 340.6 396.733 342.4C413.113 347.44 433.633 357.52 433.633 368.86C433.633 385.24 408.073 397.84 369.733 397.84ZM388.273 350.5C374.413 361.84 364.513 371.02 364.513 377.32C364.513 381.1 369.553 386.14 378.373 386.14C398.533 386.14 412.033 379.12 412.033 371.56C412.033 364 398.353 354.28 388.273 350.5ZM442.993 396.76C451.813 394.96 468.193 402.52 468.193 407.56C468.193 411.34 461.713 417.1 459.193 416.56C433.993 411.16 373.153 420.16 353.893 423.76C342.193 425.92 335.893 427.36 332.293 428.62C330.133 429.34 328.693 429.88 327.793 429.88C321.493 429.88 308.353 421.42 306.193 416.38C305.653 415.12 305.833 413.68 307.093 413.68C307.633 413.68 310.153 415.84 327.793 414.58C346.693 413.14 394.933 406.12 428.593 402.16C436.333 401.26 439.033 399.28 440.653 398.02C441.553 397.3 442.093 396.94 442.993 396.76ZM432.553 467.68C437.053 469.66 441.013 472.72 441.013 475.42C441.013 479.2 435.613 483.34 432.913 482.62C420.493 479.2 391.333 481.18 369.013 483.16C366.313 486.58 362.713 488.92 359.113 488.92C354.073 488.92 353.713 484.78 351.913 470.92L350.113 456.7C348.673 445.36 343.993 442.48 340.213 441.4C338.953 441.04 338.953 439.96 340.213 438.7C342.733 436.18 346.693 434.2 349.213 434.2C353.173 434.2 359.293 435.28 364.153 437.08C375.313 436.18 393.673 433.3 403.933 432.04C408.073 431.5 410.593 430.6 412.213 429.52C414.373 428.08 415.093 426.64 416.533 426.64C424.093 426.64 440.473 430.6 440.473 435.64C440.473 437.44 439.033 438.34 437.953 439.96C437.413 440.68 437.053 441.58 436.873 442.84L432.553 467.68ZM403.213 469.12C407.533 468.94 410.953 468.58 413.473 468.22C413.833 458.86 413.833 448.06 413.473 441.94L372.253 446.98L373.693 470.56L403.213 469.12Z" fill="black"/>
</svg>
