<svg width="312" height="328" viewBox="0 0 312 328" fill="none" xmlns="http://www.w3.org/2000/svg">
<path d="M135.333 38.6667C117.867 41.3333 97.8667 49.2 81.7333 59.4666C72.2667 65.6 54.2667 82.8 47.2 92.8C39.3333 103.867 30.2667 123.467 26.4 137.333C22.1333 153.2 22.1333 186.133 26.4 201.6C33.0667 226 44.4 245.733 61.3333 262.8C77.6 279.2 97.6 290.933 120.667 297.6C130 300.267 134.267 300.667 154.667 300.667C175.067 300.667 179.333 300.267 188.533 297.6C213.867 290.267 233.067 278.933 250.133 261.067C268.133 242.4 280 219.6 284.8 194.667C287.467 181.2 287.333 156.533 284.667 143.333C274.267 93.3333 236 53.4666 186.4 41.2C173.733 38.1333 147.6 36.8 135.333 38.6667ZM186.533 49.3333C214 57.2 237.867 72.9333 253.2 93.3333C256.8 98 255.467 97.0667 247.2 88.9333C241.333 83.2 234.8 78.1333 232.667 77.6C227.733 76.2666 209.467 78.4 205.733 80.6666C203.733 82 201.733 82.2666 198.667 81.3333C195.6 80.4 192.933 80.6666 188.8 82.1333C185.867 83.3333 178.4 85.0667 172.4 85.8666C162 87.4666 161.2 87.3333 159.067 84.9333C154.267 79.7333 149.6 78.4 139.467 79.3333C134.267 79.8666 128 81.0667 125.6 82.1333C123.2 83.0667 119.467 83.6 117.333 83.2C115.067 82.6666 111.867 83.2 109.333 84.4C107.067 85.6 99.4667 87.2 92.2667 88C76.1333 89.8666 72.5333 92 73.0667 99.4666C73.2 102.4 73.8667 113.6 74.4 124.533C75.3333 143.467 75.2 144.267 72.6667 145.733C68.9333 147.6 68 149.333 68 154.133C68 158.4 72.8 166 79.2 171.867C83.6 176 83.6 178.4 79.0667 179.467C69.0667 181.733 66.9333 187.333 71.8667 198C73.6 201.867 74.1333 205.467 73.6 210.8C73.2 215.867 73.7333 219.467 75.0667 222.133C76.5333 224.933 76.8 228.533 76.4 235.6C75.2 252 75.8667 253.6 91.7334 269.867L106 284.267L98.6667 280.667C68.1333 265.333 44.2667 236.4 34.6667 202.667C30.9333 189.867 29.6 164 31.8667 149.867C40.1333 99.3333 78.4 59.2 129.333 47.8666C144.667 44.5333 172.133 45.2 186.533 49.3333ZM232 88.5333C232 89.6 231.467 90.9333 230.667 91.3333C229.867 91.8666 229.333 99.6 229.333 110C229.333 119.867 228.933 128.133 228.4 128.4C227.733 128.8 223.867 129.467 219.733 130L212 130.933V126.133C212 121.6 211.867 121.333 207.333 121.333C203.067 121.333 202.667 121.733 202.667 125.2C202.667 131.333 200 132.533 188.533 131.467C180.4 130.667 178.133 130.933 176.8 132.533C176 133.6 172.667 134.667 169.333 134.933L163.333 135.333L162.667 118C162.267 108.4 161.6 100 161.067 99.2C160 97.4666 163.067 96.6666 176.667 95.3333C181.067 94.8 186.533 93.4666 188.933 92.2666C195.067 89.2 203.467 91.3333 202.933 95.8666C202.667 98.2666 203.2 98.8 204.8 98.1333C205.867 97.7333 208 97.3333 209.467 97.3333C211.467 97.3333 212 96.4 212 92.8C212 87.6 212.933 87.2 225.067 86.8C230.267 86.6666 232 87.2 232 88.5333ZM148.933 90.1333C149.333 91.2 149.067 92.8 148.133 93.7333C147.2 94.6666 146.667 104.667 146.667 125.333C146.667 146.933 146.267 155.867 145.067 157.067C144.133 158 140.267 158.667 136.4 158.667C130.8 158.667 129.333 158.267 129.333 156.533C129.333 154.8 128.4 154.533 125.733 155.067C123.6 155.467 112.8 156.8 101.733 158.133C81.6 160.533 81.3333 160.533 79.3333 157.867C78.2667 156.533 77.3333 154.933 77.3333 154.533C77.3333 154.133 81.7333 153.2 87.0667 152.533L96.6667 151.333L97.0667 146.267C97.4667 141.467 97.4667 141.333 92.8 141.333C83.8667 141.333 84 141.467 84 122.667C84 113.2 83.4667 104 82.8 102.267L81.4667 98.9333L94.9333 97.3333C102.267 96.4 109.867 94.9333 111.6 94C113.333 93.0667 116 92.5333 117.333 92.9333C120.533 93.7333 125.6 98.5333 124.667 99.8667C124.4 100.533 120.533 101.467 116.4 101.867C112.133 102.4 106.667 103.2 104.4 103.6L100 104.267V118.533V132.8L105.333 132.267C108.267 132 111.067 131.2 111.467 130.533C112.533 128.667 120.4 129.2 123.2 131.333C126.8 134.133 124.933 136.8 118.8 137.867C113.467 138.667 113.333 138.8 113.333 144.133C113.333 149.6 113.333 149.6 117.467 148.8C119.733 148.4 123.333 148 125.467 148H129.333V119.333C129.333 87.2 128.267 90.2666 139.333 88.9333C147.2 87.8666 148.133 88 148.933 90.1333ZM188 139.2C188 140.267 187.467 141.6 186.667 142C186 142.4 185.333 145.6 185.333 148.8C185.333 154.667 185.467 154.8 189.067 154.133C191.067 153.733 196.267 153.067 200.667 152.667C205.067 152.133 211.467 150.8 214.933 149.733C220.667 147.733 221.333 147.733 224.667 149.867C228.8 152.533 230.4 155.867 228.133 157.2C225.733 158.667 174 164.533 171.6 163.6C169.733 162.933 169.333 160.8 169.333 151.333C169.333 140.8 169.6 139.867 172.4 138.667C177.467 136.667 188 137.067 188 139.2ZM146.667 176.533C146.667 177.6 146.133 178.933 145.333 179.333C144.667 179.733 144 183.467 144 187.333C144 194.533 144 194.667 147.333 193.067C149.867 191.867 151.2 192 154 193.867C160.133 197.867 157.2 201.333 147.733 201.333H144V212.667C144 223.733 143.867 224.133 140.533 225.333C138.667 226.133 134.8 226.667 131.867 226.667H126.667V207.867C126.667 196.4 126.133 189.467 125.333 190C124.667 190.4 114.667 192 103.067 193.467C83.0667 196 82 196 80.4 193.867C79.4667 192.533 78.6667 191.067 78.6667 190.533C78.6667 189.333 83.7333 188 88.4 188C91.7334 188 92 187.6 92 182.8C92 177.867 92.2667 177.6 97.0667 176.8C99.7334 176.4 104.267 176 107.2 176C111.467 176 112.133 176.4 111.333 178.267C110.8 179.6 110 181.733 109.6 183.2C109.067 185.333 109.333 185.467 111.733 184.133C115.867 182 119.2 182.4 123.2 185.467L126.667 188.133V182.133C126.667 176.4 126.8 176.133 131.067 175.6C141.467 174.267 146.667 174.667 146.667 176.533ZM224.667 178.8C225.2 179.467 224.667 181.2 223.467 182.533C221.867 184.267 221.333 187.6 221.333 195.067C221.333 205.333 221.333 205.333 224.533 204.533C228.8 203.467 236.267 207.467 235.733 210.4C235.467 211.6 234.4 212.8 233.333 212.933C232.267 213.067 229.067 213.467 226.4 214L221.333 214.8V230.533C221.333 248.4 221.6 248 209.733 248H204V213.467V178.8L209.733 178.267C221.067 177.333 223.867 177.333 224.667 178.8ZM194.533 185.2C199.6 189.067 197.467 191.6 188.4 192.667C173.067 194.267 174.667 191.467 174.667 217.867V241.067L180.4 240.4C183.467 240 186.533 239.2 187.333 238.533C189.6 236.267 195.867 237.333 199.6 240.533C202.267 242.8 202.933 244.267 201.867 245.2C200.133 247.067 161.733 251.6 160.4 250.133C159.6 249.333 157.467 190.4 158.133 188.4C158.133 188.133 163.333 187.333 169.467 186.533C175.6 185.733 181.6 184.533 182.667 183.867C186 182 191.067 182.533 194.533 185.2ZM114 197.333C118.8 199.2 121.6 206.267 119.867 212.4C116.8 223.467 100.267 229.467 88.5333 223.733C82.6667 220.933 81.0667 211.867 84.9333 205.2C89.4667 197.6 104.267 193.6 114 197.333ZM104 231.2C104 232.267 103.467 233.6 102.667 234C102 234.4 101.333 236.667 101.333 238.8C101.333 242.533 101.6 242.8 105.733 242.133C108 241.733 114.667 240.8 120.267 240C126 239.333 131.733 238 133.2 237.067C136.267 235.2 143.467 237.733 145.467 241.467C146.533 243.6 146.133 244.267 143.733 245.2C140.533 246.533 97.8667 252 90.8 252H86.6667V241.467C86.6667 229.6 86.4 229.867 98.4 229.467C102.4 229.333 104 229.867 104 231.2Z" fill="#08068C"/>
<path d="M181.067 102.267C179.067 102.8 178.667 104.533 178.667 113.2V123.6L182.667 122.933L186.667 122.4V111.867C186.667 101.067 186.533 100.8 181.067 102.267Z" fill="#08068C"/>
<path d="M206.4 106.4C203.467 106.8 202.667 107.6 202.667 110.133C202.667 113.467 203.867 113.867 209.067 112.533C210.667 112 212 110.667 212 109.2C212 106.267 211.067 105.733 206.4 106.4Z" fill="#08068C"/>
<path d="M98.6667 206.133C96.8 210.8 97.0667 213.733 99.2 216.667C100.8 218.8 101.333 218.933 103.2 217.467C105.333 215.733 106 208.8 104.533 204.8C103.333 201.6 100.133 202.267 98.6667 206.133Z" fill="#08068C"/>
</svg>
