<svg width="326" height="322" viewBox="0 0 326 322" fill="none" xmlns="http://www.w3.org/2000/svg">
<path d="M151.333 33.8333C94.9333 42.6333 49.7333 87.4333 40.6666 143.567C29.4666 212.233 71.1999 275.567 139.733 294.1C154.933 298.233 185.467 298.233 201.6 294.1C284.267 273.3 326.533 184.367 290.133 107.833C273.333 72.3666 240.8 45.8333 202.4 36.3666C189.6 33.2999 163.6 31.9666 151.333 33.8333ZM202.533 44.4999C248 57.4333 281.2 91.4333 292.267 135.967C296.267 152.633 296.267 177.7 292.267 194.367C281.2 239.3 248.133 272.767 201.733 286.1C186.667 290.5 156.267 290.5 140.133 286.1C95.7333 274.1 62.3999 240.633 50.3999 196.233C45.9999 180.233 45.9999 150.1 50.3999 134.1C63.3333 86.4999 100.533 51.6999 148.667 42.3666C162.133 39.6999 189.867 40.7666 202.533 44.4999Z" fill="#08068C"/>
<path d="M119.067 133.433C116 133.967 116 133.967 116 162.633C116 194.633 115.6 193.567 125.6 191.567L131.333 190.367L131.733 163.833C131.867 148.767 132.667 136.633 133.333 135.967C134.133 135.167 134.667 134.1 134.667 133.567C134.667 132.5 124.4 132.367 119.067 133.433Z" fill="#08068C"/>
<path d="M252.667 133.7L248.667 134.5V163.167C248.667 195.167 248.267 193.7 258.133 191.833L262.667 191.033V177.967C262.667 163.833 263.067 163.167 270 163.167C271.733 163.167 273.6 162.5 274.133 161.567C275.6 159.3 269.333 154.9 265.733 155.567C262.8 156.1 262.667 155.833 262.667 147.033C262.667 142.1 263.333 137.567 264 137.167C264.8 136.767 265.333 135.433 265.333 134.367C265.333 132.367 260.133 132.1 252.667 133.7Z" fill="#08068C"/>
<path d="M182.133 135.433C180.667 136.233 171.733 137.833 162.267 139.033C152.667 140.233 144.667 141.833 144.4 142.5C144.133 143.3 144.667 144.9 145.6 146.1C147.2 148.233 148.533 148.233 161.333 146.5C179.2 144.1 178.667 144.1 178.667 147.033C178.667 149.967 171.867 151.567 160 151.433C156 151.3 151.067 151.567 149.067 151.967C145.467 152.633 145.333 152.9 145.333 162.5C145.333 169.833 145.867 172.367 147.333 173.033C149.067 173.7 186.8 169.567 194.4 167.833C198.533 166.9 198.133 164.9 193.067 161.833C189.333 159.567 188.4 159.567 184.667 161.033C182.267 162.1 176.133 163.3 170.933 163.833L161.333 164.767V161.3C161.333 157.433 160.4 157.7 182.4 157.167C187.733 157.033 192.533 156.5 193.2 155.7C193.867 155.033 194.667 150.233 194.933 144.9C195.6 136.1 195.467 135.3 192.8 134.633C188.533 133.433 184.933 133.7 182.133 135.433Z" fill="#08068C"/>
<path d="M100.667 136.9C99.1999 137.967 94.3999 139.167 89.9999 139.7C75.9999 141.3 73.3332 141.967 74.3999 143.7C74.9332 144.5 75.5999 156.5 75.9999 170.5L76.6666 195.833L81.9999 195.433C84.9332 195.167 88.1332 194.233 89.0666 193.433C90.1332 192.633 95.4666 191.967 101.067 191.833H111.333L112 165.167C112.4 150.5 112.4 138.1 112 137.567C110.4 135.433 103.333 135.033 100.667 136.9ZM97.3332 165.033C97.3332 181.3 97.0666 184.367 95.1999 185.033C89.4666 187.167 89.3332 186.767 89.3332 165.833V145.833H93.3332H97.3332V165.033Z" fill="#08068C"/>
<path d="M235.333 137.167C233.2 138.1 227.2 139.3 222 139.7C208.8 141.033 207.733 141.433 209.467 144.767C210.533 146.9 211.867 147.3 215.6 146.9L220.267 146.367L219.733 159.7C219.067 174.5 217.067 180.767 210.4 188.9C205.6 195.033 206.8 197.833 212.933 194.767C216.933 192.633 226.933 182.5 228.4 179.033C229.333 177.033 229.333 177.033 235.333 186.367C238.933 191.7 245.733 192.367 246.4 187.433C247.2 182.233 244 176.633 237.733 172.367C233.467 169.3 232 167.7 232.667 166.1C233.2 164.767 233.867 159.567 234.267 154.233L235.067 144.767L240.8 143.833C247.467 142.9 248.4 140.633 243.333 137.3C241.6 136.1 239.867 135.167 239.733 135.3C239.467 135.3 237.6 136.233 235.333 137.167Z" fill="#08068C"/>
<path d="M191.333 171.033C190.533 171.7 178.4 173.567 164.4 175.167C150.267 176.9 138.667 178.633 138.667 179.033C138.667 179.433 139.467 180.9 140.533 182.1C142 184.1 143.333 184.233 150.8 183.167C155.467 182.5 160 181.833 160.933 181.833C161.867 181.833 162.667 184.5 162.933 188.767C163.333 195.3 163.6 195.833 166.933 196.233C173.467 197.033 176 194.5 176 187.3C176 179.833 176 179.833 188.8 178.5C193.867 177.967 199.467 176.9 201.333 176.233L204.667 174.9L201.467 172.367C198.133 169.7 193.333 169.033 191.333 171.033Z" fill="#08068C"/>
</svg>
