<svg width="327" height="324" viewBox="0 0 327 324" fill="none" xmlns="http://www.w3.org/2000/svg">
<path d="M158 41.3333C105.6 49.6 63.4666 88.1333 49.0666 141.067C46.7999 149.333 46.2666 155.333 46.2666 172C46.2666 190.267 46.6666 194.267 49.7333 206C59.3333 241.867 83.7333 272.4 115.867 289.067C138.4 300.8 154.4 304.667 179.333 304.4C193.333 304.267 199.2 303.6 210 300.8C259.333 288 296.667 249.067 307.333 199.333C310.933 182.533 310.4 157.467 306.133 140.667C290.933 82.1333 241.733 42.5333 182 40.6667C173.2 40.4 162.4 40.6667 158 41.3333ZM210.8 52.5333C226.133 56.9333 235.6 61.3333 246.933 68.8C272 85.6 291.6 113.467 298.667 142.8C300.133 148.933 301.333 154.533 301.333 155.2C301.333 156 295.467 150.667 288.133 143.6C275.6 131.2 274.8 130.667 269.2 130.667C262.267 130.667 240.667 134.133 238.267 135.6C237.467 136.133 231.333 137.333 224.667 138.133C213.733 139.6 212.4 139.467 210 137.2C204.133 132 193.467 130.4 185.2 133.867C182.667 134.8 174.533 136.4 166.933 137.2L153.2 138.8L148.533 134.8C144.533 131.2 142.8 130.667 136.667 130.667C127.733 130.667 111.867 133.067 104.667 135.467C101.733 136.4 94.2666 137.867 87.9999 138.667C81.8666 139.467 75.7333 140.8 74.3999 141.467C71.1999 143.2 69.9999 148.933 71.8666 154C72.7999 156.533 73.3333 167.467 73.3333 182.133V206L118.4 251.067L163.333 296.267L157.333 295.333C124.533 290.133 92.7999 269.6 74.1333 241.6C66.7999 230.4 62.3999 220.933 57.7333 205.467C54.6666 195.333 54.2666 191.733 54.1333 173.333C53.9999 155.733 54.5333 150.933 57.0666 141.467C69.9999 93.8667 107.2 59.2 155.333 49.8667C170 47.0667 196.533 48.2667 210.8 52.5333ZM141.333 141.2C141.333 142 140.8 142.933 140 143.333C139.2 143.867 138.667 154.133 138.667 169.733C138.667 183.867 138.133 196 137.6 196.8C137.067 197.6 133.867 198.667 130.4 199.067C125.6 199.733 124.133 199.467 123.467 197.867C123.067 196.667 122.667 183.6 122.667 168.667C122.667 141.6 122.667 141.467 125.733 140.933C131.467 139.867 141.333 140 141.333 141.2ZM272 141.867C272 142.933 271.467 144.267 270.667 144.667C270 145.067 269.333 149.6 269.333 154.667C269.333 163.067 269.467 163.733 272 163.067C275.2 162.267 281.733 166.133 280.933 168.4C280.667 169.333 278.133 170.267 275.2 170.667L270 171.333L269.6 184.933C269.333 194.667 268.8 198.667 267.6 198.667C266.667 198.667 263.733 199.067 261.067 199.467L256 200.4V170.933V141.467L259.733 140.933C268 139.733 272 140 272 141.867ZM199.467 142.133C202.133 142.8 202.267 143.6 201.6 152.4C201.333 157.733 200.667 162.4 200.133 162.933C199.733 163.467 196 164 192 164.133C188 164.267 180.933 164.533 176.4 164.933C168.533 165.467 168 165.733 168 168.933V172.267L177.6 171.333C182.8 170.8 188.933 169.6 191.2 168.667C193.6 167.733 196.533 167.467 198 168C201.2 169.2 204.667 173.067 203.6 174.133C202.4 175.333 162.667 180.133 157.467 179.733L152.667 179.333L152.267 169.733C151.867 160.267 151.867 160.267 155.6 159.467C157.6 159.067 162 158.8 165.333 158.8C168.667 158.933 174.533 158.533 178.4 158C184 157.333 185.333 156.533 185.333 154.533C185.333 151.467 184.133 151.467 166.267 153.867C153.333 155.467 153.067 155.467 152 152.8C151.467 151.2 151.2 149.6 151.467 149.2C151.733 148.8 158.933 147.733 167.6 146.667C176.267 145.733 185.2 144.267 187.333 143.333C191.867 141.333 195.333 141.067 199.467 142.133ZM116.533 143.867C118.8 144.8 118.933 146.533 118.8 171.333C118.667 186 118.133 198.267 117.867 198.667C117.467 199.067 112.8 199.333 107.6 199.333C102.267 199.333 96.6666 200.133 95.0666 200.933C93.4666 201.867 89.9999 202.667 87.4666 202.667H82.6666V178.533C82.6666 165.333 82.1333 153.333 81.3333 152C79.8666 149.2 81.1999 148.667 95.3333 147.2C100.533 146.8 105.867 145.467 107.333 144.533C110.133 142.533 112.667 142.267 116.533 143.867ZM250.4 144.8C254.267 147.467 254.133 150.667 250.4 150.667C242.533 150.667 241.733 151.6 240.933 161.867C240.4 167.2 239.733 172.533 239.333 173.6C238.8 174.933 240.4 176.933 244 179.333C252.267 185.067 255.867 193.6 251.333 197.333C248.267 199.867 244.4 197.733 240.667 191.333C237.6 185.867 234.667 183.6 234.667 186.4C234.667 187.067 232.533 190 229.867 193.067C224.533 199.333 218.133 203.2 215.2 202.133C213.6 201.467 214 200.267 217.2 196.4C219.467 193.6 222.133 189.067 223.333 186.133C225.467 181.2 228.267 156.4 227.067 154.267C226.8 153.733 224.4 153.6 222 154.133C218.4 154.8 217.333 154.4 216.133 152.267C214.4 148.933 215.467 148.533 228.667 147.2C233.867 146.8 239.867 145.6 242 144.667C247.2 142.4 246.933 142.4 250.4 144.8ZM208.133 179.867C212.133 183.067 211.467 183.467 195.333 185.733L183.333 187.333L182.667 194.667C182.133 200.933 181.6 202 178.667 202.8C171.067 204.933 170.667 204.533 170.667 196.533V189.067L159.6 190C150.267 190.8 148.267 190.533 146.8 188.8C145.733 187.6 145.2 186.4 145.467 186.133C145.733 185.867 157.467 184.267 171.333 182.667C185.333 180.933 197.2 179.067 198 178.533C200.133 176.533 204.933 177.2 208.133 179.867Z" fill="#08068C"/>
<path d="M99.7333 153.067L96 153.467V173.6V193.6L99.6 192.667C101.733 192.133 103.467 191.6 103.733 191.467C103.867 191.2 103.867 182.4 103.733 171.867L103.333 152.667L99.7333 153.067Z" fill="#08068C"/>
</svg>
