<svg width="314" height="326" viewBox="0 0 314 326" fill="none" xmlns="http://www.w3.org/2000/svg">
<path d="M140.267 46C114.533 50.5333 90.5334 63.0667 71.3334 82C49.0667 103.733 37.4667 126 32.5334 155.733C21.4667 222.667 64 287.333 130.533 304.933C147.2 309.467 174.8 310 191.333 306.133C247.6 293.333 288.4 247.333 294.933 189.467C298.4 157.6 288.933 123.6 269.067 97.2C250.533 72.6667 225.867 56.1333 196 48.4C179.867 44.2667 156.267 43.2 140.267 46ZM196.667 56.6667C222.267 64.1333 244.267 78.6667 260.267 98.5333C268.267 108.533 280 129.333 280 133.467C280 134.4 276.133 131.467 271.467 126.8L262.933 118.267L255.067 118.4C240.8 118.667 228.933 120.933 226.4 124C225.2 125.467 224 127.333 223.733 128.133C223.333 129.2 221.867 128.933 219.067 127.467C213.867 124.8 206.4 124.667 200.933 127.2C198.533 128.267 192.133 129.733 186.667 130.4L176.667 131.733L169.333 124.667C165.333 120.8 160.533 117.333 158.667 116.933C153.067 115.467 130.4 118.667 126.533 121.333C124.667 122.667 121.733 123.467 119.867 123.2C118.133 122.8 111.333 123.467 104.667 124.667C98.1334 125.733 88.8 126.933 84 127.333C67.8667 128.4 62 129.6 59.0667 132.4C56 135.067 56 135.2 56 180.933C56 206.267 56.5334 227.867 57.2 229.067C57.8667 230.4 72 245.067 88.8 261.733C105.467 278.4 118.8 292.267 118.533 292.667C117.067 294.133 95.7334 282 85.6 274C57.8667 252 41.2 219.867 39.0667 183.867C35.4667 120.8 78.4 65.8667 140.667 53.8667C155.6 50.9333 181.867 52.2667 196.667 56.6667ZM159.2 127.867C159.6 128.533 158.8 130.533 157.333 132.4C154.8 135.6 154.667 137.867 154.667 176.4C154.667 222.8 156.133 218.4 141.067 219.6L132 220.4V199.467V178.667H127.467C118.533 178.667 118.667 178.267 118.667 200C118.667 211.2 118.133 220.133 117.333 220.667C116.667 221.067 112.133 221.733 107.333 222.267C100.8 222.8 98.6667 222.667 98.6667 221.333C98.6667 218.933 86.4 220.933 84.2667 223.733C83.0667 225.467 80.4 226 74.2667 226H66L65.6 182.533L65.3334 139.067L70.2667 138.133C73.0667 137.733 78.5334 137.333 82.4 137.333C88.4 137.333 89.3334 137.733 89.3334 139.867C89.3334 141.333 88.8 142.933 88 143.333C87.2 143.733 86.6667 149.733 86.6667 156.8C86.6667 168.933 86.8 169.333 89.7334 169.333C91.3334 169.333 94 168.933 95.7334 168.533C98.5334 167.733 98.6667 167.2 98.6667 151.2C98.6667 138.933 99.0667 134.667 100.4 134.667C101.2 134.667 105.867 134 110.4 133.333C115.067 132.667 119.733 132.533 120.8 132.933C123.2 133.867 123.2 137.867 120.667 140C119.2 141.2 118.667 144.667 118.667 154.133V166.667H123.2C132.133 166.667 132 166.933 132 146.667V128.133L137.067 127.6C147.067 126.533 158.533 126.667 159.2 127.867ZM260.667 129.467C261.2 130.267 260.4 132.267 258.8 133.867C256.133 136.8 256 138 256 177.733C256 207.333 255.6 218.8 254.4 219.467C253.6 220 248.533 220.667 243.067 221.067L233.333 221.733V208.133V194.533L224.8 195.467C220.133 196 216 195.867 215.6 195.2C215.2 194.533 214.533 191.867 214 189.2L213.067 184.4L223.2 183.333L233.333 182.4V173.2V163.867L226.4 164.667C222.533 165.2 218.533 165.733 217.733 166C216 166.533 212.667 156.8 213.867 154.8C214.267 154.133 218.8 153.333 223.867 152.8L233.2 151.867L233.6 140.933L234 130L240 129.2C250.267 127.867 259.867 128 260.667 129.467ZM217.067 137.333C221.867 140.267 223.733 143.467 221.867 145.333C221.2 146 215.867 147.2 210 148C204.133 148.8 197.333 149.733 195.067 150.133L190.667 150.8V162C190.667 168.933 191.2 173.333 192 173.333C192.8 173.333 195.6 172.4 198.267 171.333C200.8 170.267 204.533 169.333 206.4 169.333C210.933 169.333 218.667 174.4 218.667 177.333C218.667 180.133 216.933 180.8 206 182C201.6 182.4 196.4 183.067 194.4 183.467L190.667 184.267V198.267V212.4L198.8 211.467C203.2 211.067 208.533 209.733 210.667 208.533C215.333 205.733 219.867 206.8 225.6 211.867C232.667 218.133 230.267 219.2 200.933 222.667C186.8 224.4 174.133 225.467 172.933 224.933C170.933 224.133 170.667 220.667 170.667 188.933C170.667 161.733 170.267 152.4 168.8 148.267C166.533 141.867 165.2 142.4 187.333 139.867C194.667 139.067 202.133 137.467 204 136.533C208.667 134 212 134.267 217.067 137.333Z" fill="#C00101"/>
<path d="M91.7334 178.267L86.6667 178.8V195.6C86.6667 212.267 86.6667 212.267 89.7334 211.467C91.3334 211.067 94.0001 210.667 95.7334 210.667C98.6667 210.667 98.6667 210.4 98.6667 194C98.6667 184.8 98.2667 177.467 97.7334 177.6C97.0667 177.733 94.4001 178 91.7334 178.267Z" fill="#C00101"/>
</svg>
