<svg width="304" height="316" viewBox="0 0 304 316" fill="none" xmlns="http://www.w3.org/2000/svg">
<path d="M134 34.6667C77.6 43.4666 32.4 88.2666 23.3334 144.4C12.1334 213.067 53.8667 276.4 122.4 294.933C137.6 299.067 168.133 299.067 184.4 294.933C223.733 285.067 255.867 259.067 272.8 223.333C309.067 147.067 266.667 57.4666 184.933 37.2C172.267 34.1333 146.267 32.8 134 34.6667ZM185.2 45.3333C230.667 58.2666 263.867 92.2666 274.933 136.8C278.933 153.467 278.933 178.533 274.933 195.2C263.867 240.133 230.8 273.6 184.4 286.933C169.333 291.333 138.933 291.333 122.8 286.933C78.4 274.933 45.0667 241.467 33.0667 197.067C28.6667 181.067 28.6667 150.933 33.0667 134.933C46 87.3333 83.2 52.5333 131.333 43.2C144.8 40.5333 172.533 41.6 185.2 45.3333Z" fill="#08068C"/>
<path d="M224.4 118.933L214.667 120.267V147.6V175.067L224.667 174.267C230.133 173.867 235.2 173.2 236 172.667C236.667 172.267 237.333 167.2 237.333 161.467V150.933L246.4 149.867C254.133 148.8 255.333 148.267 255.733 145.733C256.533 140.667 246 136.8 239.867 140C237.467 141.333 237.333 140.933 237.333 134.533C237.333 129.733 238.133 126.8 240.133 124.267C242.667 120.933 242.667 120.667 240.533 119.067C237.867 117.2 238 117.2 224.4 118.933Z" fill="#08068C"/>
<path d="M108.667 119.333C108 119.6 103.333 120.133 98.5333 120.667L89.7333 121.467L88.9333 128.133C87.3333 141.6 76.5333 158.533 64.6666 166.4C61.2 168.667 57.7333 170.8 56.9333 171.067C55.8666 171.467 56 172.4 57.6 174C59.4666 176.133 60.5333 176.133 66 174.8C76.1333 172.267 87.6 165.733 95.6 158L103.067 150.8L107.867 152.8C110.533 153.867 116.267 157.2 120.8 160C132.4 167.6 143.067 167.333 143.067 159.467C143.067 151.067 136.533 146.667 120.533 143.867C107.067 141.6 107.867 142.267 110.267 135.067C111.467 131.6 113.6 127.333 115.2 125.6C118 122.533 118 122.4 115.467 120.533C112.933 118.667 111.333 118.4 108.667 119.333Z" fill="#08068C"/>
<path d="M191.733 124.933C190.133 126.533 184.133 127.867 171.333 129.467C161.333 130.667 152.8 132.133 152.4 132.533C152 132.933 152.667 134.8 154 136.8C156.533 140.667 157.467 140.667 181.067 137.867L188 136.933V142.4C188 147.067 187.6 147.867 184.533 148.533C182.667 149.067 176.133 149.067 170.267 148.667C155.6 147.467 154.933 148 153.867 162.933C153.333 169.467 152.8 174.667 152.533 174.667C152.267 174.667 150.133 173.467 147.733 172C142.4 168.8 138.933 168.667 134.933 171.333C132.933 172.8 119.467 174.933 92.4001 178.267C70.5334 180.933 52.4001 183.2 52.2667 183.467C50.9334 184.4 56.8001 192 58.8001 192C61.2001 192 78.8001 189.867 86.2667 188.533L90.5334 187.867L90.9334 200.933L91.3334 214L98.4001 213.733C110.133 213.2 110.667 212.533 110.667 198.133V185.733L130.4 183.333C141.2 182.133 151.067 180.4 152.4 179.733C153.733 179.067 154.667 179.067 154.667 179.867C154.667 180.533 155.867 181.6 157.333 182C160.4 182.933 205.867 177.733 210.4 176C214.533 174.267 214 171.067 209.067 168C203.867 164.933 197.733 164.533 194.8 167.2C193.6 168.267 188.267 169.6 183.067 170L173.333 171.067V165.067V159.067L179.067 158.267C182.133 157.867 188.133 157.867 192.267 158.267C196.4 158.667 201.333 158.667 203.2 158.133C206.667 157.333 206.667 157.067 206.667 144.667C206.667 137.733 207.2 131.733 208 131.333C210.933 129.6 209.333 125.6 205.2 124.133C199.2 122 194.267 122.267 191.733 124.933Z" fill="#08068C"/>
<path d="M218.933 179.467C217.067 180.8 206.4 182.667 187.6 184.933C172.133 186.8 158.8 188.8 158.267 189.333C157.6 189.867 158.667 192 160.4 194.133L163.733 197.867L183.467 195.6C194.4 194.267 205.6 192.8 208.4 192.4L213.333 191.6V202.533C213.333 215.467 213.6 215.6 226.4 213.867L235.333 212.667L235.733 199.333C235.867 192 236.667 185.467 237.333 184.8C242.8 179.333 226 174.4 218.933 179.467Z" fill="#08068C"/>
</svg>
