<svg width="336" height="324" viewBox="0 0 336 324" fill="none" xmlns="http://www.w3.org/2000/svg">
<path d="M140.667 45.3333C122.8 48.1333 102.533 56.1333 86.6666 66.5333C76.6666 73.0667 59.6 89.6 52.5333 99.4667C44.6666 110.533 35.6 130.133 31.7333 144C29.2 153.6 28.6666 158.533 28.8 176.667C28.8 194.667 29.2 199.733 31.8666 209.333C44.5333 256.533 81.0666 292.933 127.467 304.8C188.267 320.133 251.067 291.333 278.667 235.333C289.867 212.667 294 190.4 291.867 164.4C287.333 108.8 246.667 61.7333 191.333 47.8667C179.067 44.8 152.8 43.4667 140.667 45.3333ZM184.667 54.5333C247.867 67.6 291.333 126.667 284 189.6C282.533 202.667 276.933 224 274.933 224C274.4 224 250.933 200.933 222.667 172.667C187.467 137.467 170 120.933 167.067 119.867C163.867 118.8 159.067 118.933 149.733 120.133C134.533 122 130.667 124.533 130.667 132.8V137.867L127.067 134.4C122 129.6 116.8 127.733 107.733 127.867C91.8666 127.867 80 137.6 74 155.333C70.4 166.267 68.9333 183.067 70.6666 196C73.3333 216.267 73.3333 216.133 117.867 260.933C162.8 306.133 161.333 303.6 138.533 299.2C113.2 294.4 94.1333 284.933 75.4666 267.867C40.5333 236 26.9333 184.133 41.6 138.667C61.0666 78.2667 123.067 41.7333 184.667 54.5333ZM164.533 128.8C167.2 129.867 167.333 132.533 164.667 134.667C163.067 136 162.667 139.6 162.667 150.8V165.333L165.867 163.867C170 162 174.8 163.2 179.467 167.067C185.2 172 183.2 174.267 172.133 175.333L162.667 176.267V197.467C162.667 221.867 163.467 220.667 148.667 221.467L140.667 222L140.267 176.4L140 130.933L148.933 130C154 129.467 158.667 128.933 159.333 128.667C161.467 127.867 162.267 128 164.533 128.8ZM121.333 142.4C135.6 156.667 134.933 200.933 120.267 216.4C115.067 221.867 110.267 224 103.067 224C93.8666 224 88.6666 220.267 84.2666 210.933C80.9333 203.733 80.6666 202.133 80.6666 184C80.6666 162.4 82.5333 154.667 89.8666 145.867C94.8 139.733 100.133 137.467 109.2 137.333C115.733 137.333 116.8 137.733 121.333 142.4ZM205.333 213.2C205.333 217.6 204.8 221.467 204.133 221.867C203.6 222.267 199.6 222.933 195.467 223.467L188 224.4V215.6V206.8L193.733 206.267C206.533 205.2 205.333 204.4 205.333 213.2ZM234.667 213.2C234.667 217.6 234.133 221.467 233.467 221.867C232.933 222.267 228.933 222.933 224.8 223.467L217.333 224.4V215.6V206.8L223.067 206.267C235.867 205.2 234.667 204.4 234.667 213.2Z" fill="#08068C"/>
<path d="M102.267 154.267C100 159.6 100.133 203.6 102.4 207.733C104.667 211.733 106.933 210.933 108.933 205.2C110.933 199.333 111.2 160.533 109.2 154.8C107.333 149.733 104.4 149.467 102.267 154.267Z" fill="#08068C"/>
</svg>
