<svg width="707" height="168" viewBox="0 0 707 168" fill="none" xmlns="http://www.w3.org/2000/svg">
<path d="M148.121 21C153.021 21 167.021 26.88 167.021 30.8C167.021 32.76 165.621 33.46 165.621 36.4L164.921 113.4C164.781 128.1 160.861 147 153.021 147C149.101 147 148.821 140.98 148.821 130.2V77.84L138.321 79.24C135.241 79.66 134.121 80.36 133.281 80.78C132.721 81.06 132.301 81.34 131.461 81.34C130.201 81.34 127.961 80.36 125.861 79.1V79.52C125.861 96.18 107.241 107.24 83.7211 107.24C70.9811 107.24 61.3211 96.32 61.3211 87.5C61.3211 75.74 73.2211 64.12 83.0211 53.34C87.3611 48.58 85.8211 47.32 82.8811 46.76C82.1811 46.62 82.3211 46.2 82.8811 45.5C84.0011 44.24 87.2211 43.26 88.3411 43.26C91.4211 43.26 101.641 46.2 101.641 48.58C101.641 49.56 100.521 50.4 99.5411 51.94C106.541 55.02 119.001 61.88 123.901 71.54C125.861 71.4 128.381 71.26 130.341 70.98L143.641 69.3C145.321 69.02 147.841 70.14 148.821 71.54V40.6C148.821 31.78 141.961 27.44 139.021 26.6C138.041 26.32 138.041 25.48 139.021 24.5C140.981 22.54 146.161 21 148.121 21ZM89.1811 94.64C100.941 94.64 110.461 89.18 110.461 81.34C110.461 71.26 99.4011 62.58 93.5211 59.64C85.6811 68.46 78.8211 77.56 78.8211 85.4C78.8211 89.32 82.3211 94.64 89.1811 94.64ZM282.516 77.56V69.72C267.676 81.48 234.356 93.66 213.636 96.6C210.556 97.02 204.956 89.88 204.256 83.02L203.836 78.26C202.716 69.3 199.076 67.76 196.136 66.92C195.156 66.64 195.156 65.8 196.136 64.82C198.096 62.86 201.876 60.62 203.836 60.62C206.496 60.62 210.276 60.9 213.496 61.74L234.216 59.22C236.316 58.94 237.716 58.66 238.836 58.24C238.976 53.76 238.976 49.28 238.696 47.32L227.636 48.72C215.596 50.26 215.176 53.2 212.236 53.2C207.336 53.2 197.816 46.9 196.136 42.98C195.716 42 195.856 40.88 196.836 40.88C197.256 40.88 199.076 42.98 212.236 41.3L231.696 38.92C239.816 37.94 239.536 34.72 241.496 34.72C247.376 34.72 260.116 37.38 260.116 41.3C260.116 43.26 258.156 44.1 257.316 46.9L254.236 57.96C256.616 59.22 258.436 60.9 258.436 62.44C258.436 65.38 253.956 68.46 252.136 68.04C245.416 66.36 232.816 67.48 221.056 69.44L221.616 78.26C221.756 80.22 222.456 81.2 223.436 81.2C240.096 80.22 267.816 73.22 282.516 65.52V40.6C282.516 31.78 275.656 27.44 272.716 26.6C271.736 26.32 271.736 25.48 272.716 24.5C274.676 22.54 279.856 21 281.816 21C286.716 21 300.716 26.88 300.716 30.8C300.716 32.76 299.316 33.46 299.316 36.4L298.616 73.36C298.476 81.2 293.576 92.96 286.716 92.96C282.096 92.96 282.516 87.36 282.516 77.56ZM293.156 129.08C296.656 130.62 299.736 133 299.736 135.1C299.736 138.04 295.536 141.26 293.436 140.7C284.196 138.18 263.196 139.44 246.256 140.98C244.156 143.64 241.356 145.74 238.416 145.74C234.496 145.74 234.216 142.38 232.816 131.74L230.996 117.46C229.876 108.64 227.356 106.82 224.416 105.98C223.436 105.7 223.436 104.86 224.416 103.88C226.376 101.92 229.456 100.38 231.416 100.38C235.336 100.38 240.936 101.5 244.436 103.46C252.976 102.48 264.036 100.8 270.756 99.96C273.976 99.54 275.936 98.84 277.196 98C278.876 96.88 279.436 95.76 280.556 95.76C286.436 95.76 299.316 98.84 299.316 102.76C299.316 104.16 298.196 104.86 297.356 106.12C296.936 106.68 296.656 107.38 296.516 108.36L293.156 129.08ZM270.336 130.2C273.696 130.06 276.216 129.78 278.176 129.64C278.456 121.8 278.456 112.56 278.176 107.66L247.936 111.44L249.196 131.32L270.336 130.2ZM394.93 64.96C394.93 80.64 373.51 89.18 352.93 89.18C341.17 89.18 330.67 81.9 330.67 73.08C330.67 65.24 342.43 53.34 353.21 42.56C357.13 38.64 356.71 36.54 353.77 35.98C353.07 35.84 353.21 35.42 353.77 34.72C354.89 33.46 358.11 32.48 359.23 32.48C364.13 32.48 372.53 36.12 372.53 38.5C372.53 39.48 371.41 40.32 370.43 41.86C379.95 45.5 388.91 51.1 392.83 57.82C395.07 57.82 397.87 57.54 400.25 57.26L412.57 55.72C414.25 55.44 416.77 56.56 417.75 57.96V40.6C417.75 31.78 410.89 27.44 407.95 26.6C406.97 26.32 406.97 25.48 407.95 24.5C409.91 22.54 415.09 21 417.05 21C421.95 21 435.81 26.88 435.81 30.8C435.81 32.76 434.41 33.46 434.41 36.4L433.71 70C433.57 77.84 428.81 89.6 421.95 89.6C417.33 89.6 417.75 84 417.75 74.2V64.12L408.23 65.38C405.15 65.8 404.03 66.5 403.19 66.92C402.63 67.2 402.21 67.48 401.37 67.48C399.97 67.48 397.31 66.36 394.93 64.82V64.96ZM348.17 70.98C348.17 75.46 352.93 78.68 359.79 78.68C369.59 78.68 379.53 73.78 379.53 66.92C379.53 60.76 373.37 53.2 364.55 48.3C355.73 58.1 348.17 67.06 348.17 70.98ZM421.81 114.24C436.51 119.28 444.35 127.54 442.81 136.36C441.97 140.98 437.49 143.78 434.13 143.36C431.19 142.94 429.51 141.12 428.39 137.76C426.01 130.76 421.81 124.32 417.89 120.96C404.45 142.38 394.65 146.02 385.13 144.48C383.59 144.2 382.61 142.8 382.05 140.42L362.45 141.68C360.63 144.2 357.97 146.16 354.75 146.16C350.83 146.16 350.41 140.28 349.15 129.36L347.61 115.08C346.63 106.12 344.81 104.72 341.87 103.88C340.89 103.6 340.89 102.76 341.87 101.78C343.27 100.38 346.91 98.42 348.87 98.42C355.73 98.42 363.15 101.92 363.15 105.28C363.15 107.24 362.73 106.96 363.01 110.88L363.15 113.26L379.95 111.72L379.67 105.98C379.25 99.12 375.33 99.96 375.33 98.98C375.33 97.58 378.41 95.34 380.37 95.06C384.29 94.5 392.69 97.44 392.69 100.38C392.69 102.34 392.13 102.06 392.27 105.98L392.97 130.48C392.97 132.02 392.83 134.26 392.41 135.24L392.83 135.52C399.13 127.82 406.83 113.4 410.75 103.6C412.43 99.54 409.21 96.46 406.27 95.62C405.29 95.34 405.29 94.5 406.27 93.52C407.95 91.84 411.45 90.44 413.13 90.3C418.03 89.88 426.71 93.94 429.51 97.86C430.91 99.82 429.23 100.1 428.25 102.06C426.01 106.54 423.91 110.6 421.81 114.24ZM364.27 133.42L381.21 132.44L380.93 129.08L380.37 119.14L363.57 120.82L364.27 133.42ZM550.605 21C555.505 21 569.505 26.88 569.505 30.8C569.505 32.76 568.105 33.46 568.105 36.4L567.405 113.4C567.265 128.1 563.345 147 555.505 147C551.585 147 551.305 140.98 551.305 130.2V40.6C551.305 31.78 544.445 27.44 541.505 26.6C540.525 26.32 540.525 25.48 541.505 24.5C543.465 22.54 548.645 21 550.605 21ZM500.905 76.16C522.185 78.82 532.685 85.96 531.005 97.44C530.305 102.34 526.525 105.42 521.625 105C518.265 104.72 516.445 102.06 514.205 98.7C509.305 91.56 502.025 85.68 496.565 83.02C481.445 105.7 471.225 111.72 462.405 110.32C461.005 110.04 460.305 109.34 460.305 108.64C460.305 107.24 461.425 107.94 465.625 102.9C475.425 91 483.405 77.42 488.305 64.68C489.565 61.32 489.285 58.66 487.885 56.98C485.925 57.4 484.245 57.68 482.705 58.1C476.125 59.78 476.965 61.04 475.005 61.04C471.085 61.04 462.685 55.72 461.005 51.66C460.585 50.68 460.725 49.56 461.705 49.56C462.125 49.56 464.365 51.24 472.205 50.26C480.045 49.28 495.025 47.18 505.805 46.2C511.685 45.64 511.545 43.68 513.505 43.4C519.385 42.56 528.905 47.18 528.905 51.1C528.905 53.48 525.265 56.84 523.305 56.42C517.285 55.16 510.005 54.88 502.865 55.3C505.945 56.98 508.465 58.94 509.445 60.2C510.845 62.16 508.885 62.58 507.905 64.4C505.525 68.74 503.145 72.66 500.905 76.16ZM619.479 98.98C616.539 98.98 614.859 97.72 614.579 94.78C612.479 69.58 610.239 51.8 606.039 34.16L606.179 33.88C610.379 31.78 617.799 30.24 625.779 31.08C632.079 31.78 632.499 35.28 632.079 39.48C629.979 60.48 627.739 77.14 624.379 94.78C623.819 97.72 622.419 98.98 619.479 98.98ZM619.479 133.98C615.699 134.26 612.059 133.7 610.379 133.28L610.099 133C609.259 131.32 607.859 127.4 608.139 122.78C608.559 115.64 611.919 111.58 619.479 111.58C626.199 111.58 630.959 116.06 630.959 122.78C630.959 129.5 626.619 133.56 619.479 133.98Z" fill="#C00101"/>
<rect x="1.5" y="1.5" width="704" height="165" stroke="#C00101" stroke-width="10"/>
</svg>
