<svg width="775" height="168" viewBox="0 0 775 168" fill="none" xmlns="http://www.w3.org/2000/svg">
<path d="M138.321 26.6C137.341 26.32 137.341 25.48 138.321 24.5C140.281 22.54 145.461 21 147.421 21C152.321 21 166.321 26.88 166.321 30.8C166.321 32.76 164.921 33.46 164.921 36.4L164.221 113.4C164.081 128.1 160.161 147 152.321 147C148.401 147 148.121 140.98 148.121 130.2V40.6C148.121 31.78 141.261 27.44 138.321 26.6ZM85.6811 107.1C72.9411 107.1 62.7211 97.3 62.7211 87.5C62.7211 77.7 77.0011 63.28 85.8211 53.48C89.6011 49.28 89.3211 47.88 86.3811 46.9C85.6811 46.62 85.8211 46.34 86.3811 45.64C87.5011 44.38 90.7211 43.4 91.8411 43.4C94.9211 43.4 105.141 46.34 105.141 48.72C105.141 49.7 104.021 50.26 103.041 51.66C116.761 58.52 129.221 67.76 129.221 79.52C129.221 96.18 109.201 107.1 85.6811 107.1ZM91.1411 94.5C102.901 94.5 113.821 89.18 113.821 81.34C113.821 73.22 105.981 63.42 97.1611 58.52C87.3611 70.28 80.2211 78.54 80.2211 85.4C80.2211 90.3 84.2811 94.5 91.1411 94.5ZM240.936 73.5C224.556 92.26 210.136 99.68 201.456 98.98C200.056 98.84 198.656 98.28 198.656 97.3C198.656 95.9 199.356 96.46 206.356 90.3C219.656 78.4 231.136 63.84 238.976 50.12L225.116 51.8C213.636 53.2 214.756 56.14 211.816 56.14C206.916 56.14 196.696 49.56 195.016 45.64C194.596 44.66 194.736 43.54 195.716 43.54C196.136 43.54 199.076 45.78 211.816 44.24L233.936 41.58C241.776 40.6 241.776 37.38 243.736 37.38C249.616 37.38 263.336 39.62 263.336 43.26C263.336 45.5 260.816 46.06 259.136 48.72C254.376 56.28 249.476 63 244.856 68.74L249.616 68.32L278.176 64.82C279.716 64.54 282.096 65.66 283.216 66.92V40.6C283.216 31.78 276.356 27.44 273.416 26.6C272.436 26.32 272.436 25.48 273.416 24.5C275.376 22.54 280.556 21 282.516 21C287.416 21 301.416 26.88 301.416 30.8C301.416 32.76 300.016 33.46 300.016 36.4L299.316 89.46C299.176 99.4 295.256 111.86 287.416 111.86C283.496 111.86 283.216 107.24 283.216 96.46V73.36L257.596 76.58C254.516 77 253.396 77.7 252.556 78.12C251.996 78.4 251.576 78.68 250.736 78.68C248.636 78.68 243.736 76.02 240.936 73.5ZM287.136 124.46C294.976 123.2 306.736 128.66 306.736 132.58C306.736 135.52 302.396 139.72 300.436 139.44C288.676 137.76 264.736 138.74 242.476 140.28C240.516 140.42 236.456 137.2 236.176 133.28L234.776 117.6C233.936 108.64 228.616 106.54 225.676 105.7C224.696 105.42 224.696 104.58 225.676 103.6C227.636 101.64 231.416 99.4 233.376 99.4C238.276 99.4 252.416 102.2 252.416 107.1C252.416 109.06 251.296 109.34 251.576 113.26L252.416 127.54C252.556 129.5 253.536 129.5 254.516 129.5C257.456 129.5 267.396 128.94 270.336 128.66C286.016 127.12 284.616 124.88 287.136 124.46ZM435.81 58.8C442.53 57.12 450.51 63.98 450.51 67.9C450.51 70.84 445.47 74.76 443.51 74.2C438.47 72.8 432.73 71.96 426.29 71.82L426.01 89.88C425.87 99.82 422.09 112.28 414.25 112.28C410.33 112.28 410.05 107.66 410.05 96.88V40.6C410.05 31.78 403.19 27.44 400.25 26.6C399.27 26.32 399.27 25.48 400.25 24.5C402.21 22.54 407.39 21 409.35 21C414.25 21 428.11 26.88 428.11 30.8C428.11 32.76 426.71 33.46 426.71 36.4L426.43 62.86C431.33 62.3 433.15 60.9 434.27 59.78C434.83 59.22 435.25 58.94 435.81 58.8ZM393.11 67.76C393.11 83.44 370.15 93.52 349.57 93.52C337.81 93.52 327.31 84.7 327.31 75.88C327.31 65.1 339.35 55.86 350.13 46.06C354.89 41.72 352.93 38.64 349.99 38.08C349.29 37.94 349.43 37.52 349.99 36.82C351.11 35.56 354.33 34.58 355.45 34.58C358.53 34.58 368.75 38.22 368.75 40.6C368.75 41.58 367.63 42.42 366.65 43.96C374.49 46.9 393.11 55.02 393.11 67.76ZM356.43 83.02C366.23 83.02 377.71 76.58 377.71 69.72C377.71 60.62 365.67 52.36 360.77 50.4C351.95 59.22 344.81 66.92 344.81 73.78C344.81 77.7 349.57 83.02 356.43 83.02ZM415.51 124.88C423.35 123.62 435.11 129.08 435.11 133C435.11 135.94 430.77 140.14 428.81 139.86C417.05 138.18 394.65 139.02 372.39 140.56C370.43 140.7 366.51 137.48 366.09 133.56L364.83 120.12C363.99 111.16 358.67 109.06 355.73 108.22C354.75 107.94 354.75 107.1 355.73 106.12C357.69 104.16 361.47 101.92 363.43 101.92C368.33 101.92 382.47 104.72 382.47 109.62C382.47 111.58 381.35 111.86 381.63 115.78L382.33 127.82C382.47 129.78 383.45 129.78 384.43 129.78C387.37 129.78 395.77 129.36 398.71 129.08C414.39 127.54 412.99 125.3 415.51 124.88ZM552.005 21C556.905 21 570.905 26.88 570.905 30.8C570.905 32.76 569.505 33.46 569.505 36.4L568.805 113.4C568.665 128.1 564.745 147 556.905 147C552.985 147 552.705 140.98 552.705 130.2V99.82L488.305 119.28C482.285 121.1 480.045 122.08 478.645 122.78C477.525 123.34 477.105 123.62 475.705 123.62C470.805 123.62 457.085 115.64 455.405 111.72C454.985 110.74 455.125 109.62 456.105 109.62C457.085 109.62 459.885 111.3 473.605 110.32C478.225 110.04 486.065 108.64 495.445 106.82L493.765 88.48C488.585 89.32 483.965 90.16 480.185 91C478.225 91.42 474.305 87.92 474.025 84L472.765 66.08C471.925 57.26 466.745 54.32 463.805 53.48C462.825 53.2 462.825 52.36 463.805 51.38C465.765 49.42 469.545 47.32 471.505 47.18C474.305 47.04 478.505 47.46 482.145 48.58C492.505 47.18 503.285 45.92 507.345 45.5C513.225 44.94 512.525 43.12 514.345 42.84C520.225 42 530.725 44.66 530.725 48.58C530.725 51.1 527.085 55.16 525.125 54.74C519.525 53.62 504.125 54.88 489.705 56.7L490.685 77.42C490.685 78.82 491.385 79.66 492.785 79.52C497.545 79.1 503.845 78.12 507.485 77.7C518.265 76.44 517.425 74.2 519.385 73.92C525.265 73.08 535.765 75.88 535.765 79.8C535.765 82.74 532.265 86.38 530.165 86.1C523.165 85.12 512.805 85.96 502.585 87.22L502.305 87.36C506.225 88.34 512.245 90.44 512.105 92.96L511.405 103.32C526.245 100.1 541.785 96.18 552.705 92.82V40.6C552.705 31.78 545.845 27.44 542.905 26.6C541.925 26.32 541.925 25.48 542.905 24.5C544.865 22.54 550.045 21 552.005 21ZM689.759 21C694.659 21 707.399 26.88 707.399 30.8C707.399 32.76 705.999 33.46 705.999 36.4L705.299 113.4C705.159 128.1 701.799 147 693.959 147C690.039 147 689.759 140.98 689.759 130.2V40.6C689.759 31.78 683.879 27.44 680.939 26.6C679.959 26.32 679.959 25.48 680.939 24.5C682.899 22.54 687.799 21 689.759 21ZM662.879 28.98C667.779 28.98 677.439 33.32 677.439 37.24C677.439 39.2 676.459 38.92 676.459 42.84V100.94C676.459 115.64 675.199 134.54 667.359 134.54C663.439 134.54 663.299 128.52 663.159 117.74L662.459 72.66L651.119 74.06C648.039 74.48 646.919 75.18 646.079 75.6C645.519 75.88 645.099 76.16 644.259 76.16C641.319 76.16 633.199 71.12 632.359 68.18C632.079 67.2 632.359 66.08 633.339 66.22C635.299 66.5 639.779 66.22 643.139 65.8L657.139 64.12C658.819 63.84 661.339 64.96 662.319 66.5L662.039 47.18C661.899 38.36 657.419 35.42 654.479 34.58C653.499 34.3 653.499 33.46 654.479 32.48C655.879 31.08 660.919 28.98 662.879 28.98ZM653.779 84.42C658.679 82.18 654.059 90.02 650.139 93.1C641.319 99.96 626.479 106.82 612.759 108.78C609.679 109.2 603.239 101.92 602.679 95.2L600.299 70C599.459 61.18 594.839 58.24 591.899 57.4C590.919 57.12 590.919 56.28 591.899 55.3C593.859 53.34 597.639 51.8 599.599 51.8C605.479 51.8 617.799 54.18 617.799 58.1C617.799 60.06 616.819 60.9 617.099 65.8L618.639 90.44C618.779 92.4 619.479 93.52 620.459 93.38C631.239 92.4 644.959 88.34 653.779 84.42Z" fill="#C00101"/>
<rect x="1.5" y="1.5" width="772" height="165" stroke="#C00101" stroke-width="10"/>
</svg>
