<svg width="650" height="168" viewBox="0 0 650 168" fill="none" xmlns="http://www.w3.org/2000/svg">
<path d="M138.321 26.6C137.341 26.32 137.341 25.48 138.321 24.5C140.281 22.54 145.461 21 147.421 21C152.321 21 166.321 26.88 166.321 30.8C166.321 32.76 164.921 33.46 164.921 36.4L164.221 113.4C164.081 128.1 160.161 147 152.321 147C148.401 147 148.121 140.98 148.121 130.2V40.6C148.121 31.78 141.261 27.44 138.321 26.6ZM85.6811 107.1C72.9411 107.1 62.7211 97.3 62.7211 87.5C62.7211 77.7 77.0011 63.28 85.8211 53.48C89.6011 49.28 89.3211 47.88 86.3811 46.9C85.6811 46.62 85.8211 46.34 86.3811 45.64C87.5011 44.38 90.7211 43.4 91.8411 43.4C94.9211 43.4 105.141 46.34 105.141 48.72C105.141 49.7 104.021 50.26 103.041 51.66C116.761 58.52 129.221 67.76 129.221 79.52C129.221 96.18 109.201 107.1 85.6811 107.1ZM91.1411 94.5C102.901 94.5 113.821 89.18 113.821 81.34C113.821 73.22 105.981 63.42 97.1611 58.52C87.3611 70.28 80.2211 78.54 80.2211 85.4C80.2211 90.3 84.2811 94.5 91.1411 94.5ZM286.576 21C291.476 21 304.216 26.88 304.216 30.8C304.216 32.76 302.816 33.46 302.816 36.4L302.116 113.4C301.976 128.1 298.616 147 290.776 147C286.856 147 286.576 140.98 286.576 130.2V40.6C286.576 31.78 280.696 27.44 277.756 26.6C276.776 26.32 276.776 25.48 277.756 24.5C279.716 22.54 284.616 21 286.576 21ZM261.096 28.98C265.996 28.98 275.656 33.32 275.656 37.24C275.656 39.2 274.676 38.92 274.676 42.84V102.62C274.676 117.32 273.416 136.22 265.576 136.22C261.656 136.22 261.516 130.2 261.376 119.42L260.816 84L244.576 85.96C241.496 86.38 240.376 87.08 239.536 87.5C238.976 87.78 238.556 88.06 237.716 88.06C235.896 88.06 232.676 86.24 230.016 84.14C216.156 105.7 204.676 114.38 196.696 114.38C194.736 114.38 193.196 113.68 193.196 112.7C193.196 111.3 194.176 112.28 199.916 105.28C209.716 93.38 220.496 74.76 226.376 59.08L218.116 60.06C206.356 61.46 207.756 63.7 204.816 63.7C200.896 63.7 191.096 58.66 189.416 54.6C188.996 53.62 189.136 52.5 190.116 52.5C190.536 52.5 192.076 54.04 204.816 52.5L222.316 50.4C230.156 49.42 230.156 46.2 232.116 46.2C237.996 46.2 248.496 48.44 248.496 52.08C248.496 54.32 246.256 54.88 244.996 57.54C241.216 65.24 237.436 71.96 233.936 77.98L236.596 77.7L255.496 75.32C257.176 75.04 259.836 76.16 260.676 77.7L260.256 47.18C260.116 38.36 255.636 35.42 252.696 34.58C251.716 34.3 251.716 33.46 252.696 32.48C254.096 31.08 259.136 28.98 261.096 28.98ZM417.61 21C422.51 21 436.51 26.88 436.51 30.8C436.51 32.76 435.11 33.46 435.11 36.4L434.41 113.4C434.27 128.1 430.35 147 422.51 147C418.59 147 418.31 140.98 418.31 130.2V99.82L353.91 119.28C347.89 121.1 345.65 122.08 344.25 122.78C343.13 123.34 342.71 123.62 341.31 123.62C336.41 123.62 322.69 115.64 321.01 111.72C320.59 110.74 320.73 109.62 321.71 109.62C322.69 109.62 325.49 111.3 339.21 110.32C343.83 110.04 351.67 108.64 361.05 106.82L359.37 88.48C354.19 89.32 349.57 90.16 345.79 91C343.83 91.42 339.91 87.92 339.63 84L338.37 66.08C337.53 57.26 332.35 54.32 329.41 53.48C328.43 53.2 328.43 52.36 329.41 51.38C331.37 49.42 335.15 47.32 337.11 47.18C339.91 47.04 344.11 47.46 347.75 48.58C358.11 47.18 368.89 45.92 372.95 45.5C378.83 44.94 378.13 43.12 379.95 42.84C385.83 42 396.33 44.66 396.33 48.58C396.33 51.1 392.69 55.16 390.73 54.74C385.13 53.62 369.73 54.88 355.31 56.7L356.29 77.42C356.29 78.82 356.99 79.66 358.39 79.52C363.15 79.1 369.45 78.12 373.09 77.7C383.87 76.44 383.03 74.2 384.99 73.92C390.87 73.08 401.37 75.88 401.37 79.8C401.37 82.74 397.87 86.38 395.77 86.1C388.77 85.12 378.41 85.96 368.19 87.22L367.91 87.36C371.83 88.34 377.85 90.44 377.71 92.96L377.01 103.32C391.85 100.1 407.39 96.18 418.31 92.82V40.6C418.31 31.78 411.45 27.44 408.51 26.6C407.53 26.32 407.53 25.48 408.51 24.5C410.47 22.54 415.65 21 417.61 21ZM555.365 21C560.265 21 573.005 26.88 573.005 30.8C573.005 32.76 571.605 33.46 571.605 36.4L570.905 113.4C570.765 128.1 567.405 147 559.565 147C555.645 147 555.365 140.98 555.365 130.2V40.6C555.365 31.78 549.485 27.44 546.545 26.6C545.565 26.32 545.565 25.48 546.545 24.5C548.505 22.54 553.405 21 555.365 21ZM528.485 28.98C533.385 28.98 543.045 33.32 543.045 37.24C543.045 39.2 542.065 38.92 542.065 42.84V100.94C542.065 115.64 540.805 134.54 532.965 134.54C529.045 134.54 528.905 128.52 528.765 117.74L528.065 72.66L516.725 74.06C513.645 74.48 512.525 75.18 511.685 75.6C511.125 75.88 510.705 76.16 509.865 76.16C506.925 76.16 498.805 71.12 497.965 68.18C497.685 67.2 497.965 66.08 498.945 66.22C500.905 66.5 505.385 66.22 508.745 65.8L522.745 64.12C524.425 63.84 526.945 64.96 527.925 66.5L527.645 47.18C527.505 38.36 523.025 35.42 520.085 34.58C519.105 34.3 519.105 33.46 520.085 32.48C521.485 31.08 526.525 28.98 528.485 28.98ZM519.385 84.42C524.285 82.18 519.665 90.02 515.745 93.1C506.925 99.96 492.085 106.82 478.365 108.78C475.285 109.2 468.845 101.92 468.285 95.2L465.905 70C465.065 61.18 460.445 58.24 457.505 57.4C456.525 57.12 456.525 56.28 457.505 55.3C459.465 53.34 463.245 51.8 465.205 51.8C471.085 51.8 483.405 54.18 483.405 58.1C483.405 60.06 482.425 60.9 482.705 65.8L484.245 90.44C484.385 92.4 485.085 93.52 486.065 93.38C496.845 92.4 510.565 88.34 519.385 84.42Z" fill="#C00101"/>
<rect x="1.5" y="1.5" width="647" height="165" stroke="#C00101" stroke-width="10"/>
</svg>
