<svg width="334" height="331" viewBox="0 0 334 331" fill="none" xmlns="http://www.w3.org/2000/svg">
<path d="M146 41.3333C96.6667 48.9333 54.6667 85.0667 39.6 132.8C22.2667 187.6 43.4667 249.333 90.5333 281.2C144 317.6 214.133 311.067 259.2 265.6C281.6 243.067 294.4 215.867 297.2 185.2C303.333 120.133 261.733 60.6667 198.8 44.4C184.4 40.6667 159.6 39.3333 146 41.3333ZM185.333 49.4667C206.4 52.8 229.867 63.7333 247.333 78.1333C257.467 86.5333 270.267 103.6 277.333 118C283.467 130.533 290 152.133 289.067 156.933C288.8 158.267 284.667 154.667 277.467 146.8C263.467 131.467 261.2 130.133 249.6 131.467C244.667 131.867 239.067 133.2 237.067 134.133C235.067 135.2 231.867 135.733 230.133 135.2C228.4 134.8 224.133 135.467 220.8 136.533C211.067 139.867 207.067 139.333 200.933 133.867L195.6 128.933L184.4 129.733C178.133 130.133 172.4 131.067 171.733 131.733C170.667 132.8 169.467 132.8 167.6 131.733C163.867 129.733 146 131.2 141.867 134C140.133 135.067 138.667 136.933 138.667 138C138.667 140.933 137.6 140.533 131.867 135.333C127.867 131.733 125.6 130.667 121.6 130.667C116 130.8 95.2 133.867 87.3333 135.733C84.4 136.533 78 137.6 72.9333 138C56.9333 139.733 53.4667 146 61.8667 158.4L66.2667 165.067L61.2 169.733C55.0667 175.2 54.5333 179.333 59.3333 185.067C61.6 187.733 62.6667 190.667 62.6667 194C62.6667 196.667 63.3333 200.133 64.1333 201.733C64.9333 203.333 86.1333 225.2 111.067 250.267C155.333 294.667 156.533 296 152 296C144 296 125.467 290.8 114 285.467C70.1333 264.933 43.7333 225.467 41.7333 177.333C41.2 163.867 41.6 158.133 43.7333 148C52.5333 105.733 81.4667 71.4667 121.6 56C140.267 48.8 165.333 46.1333 185.333 49.4667ZM193.333 140.533C193.333 141.6 192.8 142.933 192 143.333C191.333 143.733 190.667 148.533 190.667 153.867C190.667 163.6 190.667 163.6 194 162.933C195.867 162.667 198.8 163.333 200.667 164.533L204 166.667V161.467C204 158.533 203.467 154.667 202.667 152.8C201.467 149.6 201.6 149.467 209.067 148.667C213.2 148.267 219.333 147.067 222.667 146C227.867 144.4 228.933 144.4 232.267 146.4C236.133 148.667 237.2 151.733 234.4 152.667C233.467 152.933 229.2 153.467 225.067 154L217.333 154.8V174.533V194.267L222.4 193.2C225.067 192.667 228.667 191.867 230.133 191.333C233.467 190.267 240 193.867 240 196.667C240 197.733 237.867 198.8 235.067 199.2C219.6 201.467 207.467 202.8 205.867 202.133C204.4 201.6 204 197.733 204 184.8V168L200.533 169.333C198.667 170.133 195.733 170.667 194 170.667C190.8 170.667 190.8 170.933 190.4 183.6L190 196.533L184.133 197.6C180.933 198.133 177.733 198.267 177.2 197.867C176.533 197.467 176 184.4 176 168.667C176 136.4 174.933 139.2 187.733 138.8C191.733 138.667 193.333 139.2 193.333 140.533ZM124 141.867C124 142.933 123.467 144.267 122.667 144.667C122 145.067 121.333 147.6 121.333 150.133C121.333 154.267 121.6 154.667 124.533 153.867C128.267 152.933 133.333 155.333 133.333 158C133.333 159.2 131.2 160.133 127.333 160.667L121.467 161.6L121.067 168.4L120.667 175.333L114.667 176.267C110.533 176.933 108.533 176.8 107.733 175.6C107.2 174.8 106.8 166.8 106.933 158L107.333 142L112 141.2C120.533 139.733 124 139.867 124 141.867ZM163.2 143.2C162.533 146 162.8 146.4 165.333 145.733C168.667 144.8 174.667 147.733 174.667 150.133C174.667 151.867 171.733 152.533 152.267 154.8C140.533 156.133 138.267 156.133 137.2 154.533C135.333 151.467 135.733 150.933 141.333 150C146.133 149.2 146.667 148.667 146.667 145.333C146.667 141.2 148.133 140.667 159.067 140.133C163.733 140 164 140.267 163.2 143.2ZM258.133 141.467C258.533 142.267 258.267 143.6 257.467 144.4C256.667 145.2 256 150 256 155.067C256 163.333 256.267 164.133 258.533 163.333C261.467 162.4 267.6 164.933 268.533 167.6C269.333 169.6 268.4 170 261.067 171.333L256 172.133V185.2C256 199.867 255.867 200 246.533 200H241.333L241.6 170.933L242 142L248 141.2C251.333 140.8 254.667 140.267 255.6 140.267C256.4 140.133 257.6 140.667 258.133 141.467ZM103.2 145.2C106.4 148.667 104.933 150.667 99.2 150.667C94.5333 150.667 94.1333 151.2 91.4667 159.6C90.6667 162.133 91.2 162.667 96 164C101.733 165.6 106.133 170.533 104.8 174C103.333 177.867 99.8667 177.733 93.8667 173.333L87.8667 169.067L82.9333 173.6C76.5333 179.333 69.7333 182.267 67.6 180.133C66.5333 179.067 67.3333 177.333 71.0667 173.6C75.4667 169.2 80 159.2 80 154.4C80 153.733 77.8667 153.333 75.2 153.6C71.4667 153.867 69.8667 153.333 68.4 151.2C66.6667 148.533 66.9333 148.4 79.4667 146.8C86.5333 146 93.3333 144.667 94.5333 144C97.8667 142 100.667 142.4 103.2 145.2ZM164.933 160.267C169.2 164.267 171.067 171.2 170.267 180C169.467 189.333 166.533 195.333 160.933 198.667C153.067 203.467 144.267 201.333 140.667 193.733C138 188.133 137.867 173.867 140.4 167.867C145.067 156.933 157.333 153.067 164.933 160.267ZM114.667 180.4C122.667 184.4 122 194.4 113.333 198.8C104.133 203.6 83.8667 205.333 77.3333 202C70.6667 198.533 70.5333 190.133 77.3333 185.333C85.3333 179.6 107.333 176.667 114.667 180.4Z" fill="#08068C"/>
<path d="M152.267 166.267C150.667 170.4 151.2 191.733 152.933 193.467C153.867 194.4 155.067 194.667 155.6 194.133C156.933 192.8 157.867 171.6 156.8 167.333C155.867 163.467 153.6 162.933 152.267 166.267Z" fill="#08068C"/>
<path d="M90.6667 187.067C86.9333 188.933 85.4667 194.4 88.2667 196.133C92.6667 199.067 104.667 196.133 106 191.867C106.533 190.4 106.133 188.4 105.333 187.333C103.333 184.933 95.2 184.8 90.6667 187.067Z" fill="#08068C"/>
</svg>
