<svg width="315" height="336" viewBox="0 0 315 336" fill="none" xmlns="http://www.w3.org/2000/svg">
<path d="M123.6 50.1333C68.4 60.1333 24.8 104.267 16 159.067C13.3333 175.2 14.9333 202 19.2 216.667C33.6 264.667 71.4667 299.6 120.667 310.133C132 312.667 158.933 312.933 170 310.8C221.333 300.533 261.333 263.6 274.667 214C279.067 197.867 279.733 171.2 276.267 154.533C261.6 84 193.6 37.4667 123.6 50.1333ZM178 59.8667C191.067 63.3333 208.4 71.4667 219.2 79.2C230.133 87.0667 243.6 101.333 251.2 113.067C256.933 122 265.333 139.733 265.333 143.067C265.333 143.867 259.733 138.933 252.8 132.267L240.4 120H232.533C222.933 120 206.8 122.267 204.8 123.867C204 124.533 198.533 125.467 192.667 126C186.8 126.533 180.933 127.467 179.6 128.133C178.4 128.933 172.533 129.6 166.667 129.733L156 130.133L151.2 125.2C148.533 122.4 144.533 119.867 142.133 119.467C137.467 118.533 96.9333 123.2 94.2667 124.933C93.4667 125.467 90.2667 126 87.2 126.133C84.2667 126.267 80.2667 127.2 78.5333 128.4C76.6667 129.6 67.8667 131.333 58 132.533C42.5333 134.533 40.4 135.067 37.7333 138.133C36 140 34.6667 142.533 34.6667 143.867C34.6667 146.933 41.7333 158.133 48 164.667L53.0667 170L51.8667 179.2C49.6 197.2 44.9333 209.067 36.8 217.733C34.1333 220.533 32 223.867 32 225.067C31.8667 229.6 28 220 25.2 208.4C21.7333 193.867 21.3333 169.467 24.5333 154.933C29.4667 132.267 40.1333 112.133 55.8667 95.6C75.4667 75.0667 99.0667 62.2667 126.267 57.3333C137.333 55.3333 166.133 56.6667 178 59.8667ZM142.667 131.867C142.667 133.2 141.733 135.067 140.667 136C138.933 137.467 138.667 143.867 138.667 178.667V219.733L135.733 220.533C134 220.933 130.133 221.333 127.067 221.333H121.333V176.133C121.333 141.2 121.733 130.8 123.067 130.267C123.867 129.867 128.667 129.467 133.733 129.467C141.6 129.333 142.667 129.6 142.667 131.867ZM237.333 131.867C237.333 133.2 236.4 135.067 235.333 136C234.133 137.067 233.333 140 233.333 143.467C233.333 148.933 234.8 150.933 236.667 148C238.133 145.6 245.067 146.667 248.8 149.733C254.4 154.533 252.4 156.8 242.133 158L233.333 158.933V168C233.333 173.067 232.667 177.6 232 178C231.2 178.533 226.133 179.2 220.667 179.6L210.667 180.4V156.267C210.667 132.267 210.667 132 213.733 131.333C218.267 130.4 224.133 129.733 231.067 129.467C236.4 129.333 237.333 129.733 237.333 131.867ZM117.333 176C117.333 227.333 118.133 224 106.133 224H100V203.2V182.267L93.6 183.067L87.2 183.867L85.0667 178L82.9333 172.267L91.0667 171.067L99.3333 170L99.7333 158.267L100.133 146.533L93.0667 147.333C89.2 147.867 85.3333 148.4 84.5333 148.667C83.7333 148.933 82.6667 154.267 82.2667 160.933C81.7333 167.333 80.6667 176.267 79.8667 180.533C78.2667 187.867 78.4 188.533 80.9333 190.533C82.5333 191.733 85.8667 194.267 88.4 196.267C94.5333 201.067 98.2667 210.267 96.5333 217.067C95.2 222.267 92.9333 223.467 87.2 222.133C84.9333 221.467 82.9333 218.8 79.4667 211.333C76.9333 205.867 74.5333 201.333 74.2667 201.333C73.8667 201.333 72 204.133 70 207.467C62.2667 220.667 50.8 230.267 44.5333 228.8L41.2 227.867L45.7333 222.267C56 209.733 60.9333 193.467 62.2667 168.267L63.0667 152H56.4C50.6667 152 49.3333 151.467 47.3333 148.533C46.1333 146.667 45.4667 144.8 45.8667 144.4C46.1333 144 53.8667 142.8 62.9333 141.733C72.1333 140.533 80.2667 138.8 81.4667 137.867C84.1333 135.467 90.4 135.6 94.6667 138C99.3333 140.667 100 140.533 100 136.667C100 132.933 100.667 132.667 115.733 130.8C116.933 130.667 117.333 140.533 117.333 176ZM206 136C206.533 136.8 206 138.933 204.8 140.667C203.067 143.2 202.667 147.733 202.667 162.533C202.667 183.467 203.333 182.133 191.2 183.467C186.267 184.133 184 183.867 184 182.8C184 180.133 172.4 181.067 169.733 183.867C166.533 187.2 152.267 189.2 150.533 186.533C149.067 184.267 148.933 141.733 150.4 140.933C150.933 140.533 156 139.867 161.6 139.333C170.533 138.533 172.133 138.667 172.8 140.533C173.333 141.733 172.667 143.867 171.467 145.2C170.267 146.533 169.333 148.933 169.333 150.533C169.333 153.467 169.733 153.6 175.733 152.667C179.2 152.133 182.4 151.467 183.067 151.067C183.6 150.8 184 147.333 184 143.333V136.133L189.733 135.6C201.2 134.667 205.2 134.667 206 136ZM229.333 183.067L234 184.667L233.6 196C233.333 202.267 232.667 207.867 232.133 208.4C230.4 210.133 214.267 212 212.667 210.667C211.867 210 204.933 210.267 196 211.467C187.6 212.4 180.267 213.333 179.733 213.333C179.067 213.333 178.667 215.2 178.667 217.467C178.667 221.467 178.933 221.6 183.067 220.933C185.333 220.4 193.6 219.467 201.333 218.533C209.067 217.733 216.533 216.133 218 215.2C221.6 212.667 227.867 212.933 233.333 215.733C238.8 218.667 239.733 220.667 236.4 222.4C235.067 223.067 217.333 225.6 197.067 228.133C167.333 231.733 159.733 232.267 158.4 230.933C155.733 228.267 155.2 208.933 157.733 206.4C160.267 203.867 172.533 202.133 175.733 203.867C177.333 204.667 182.8 204.533 192.133 203.333C199.733 202.267 207.067 201.333 208.4 201.333C209.867 201.333 210.667 200.267 210.667 198C210.667 196.133 210.533 194.667 210.4 194.667C210.133 194.667 200.4 195.867 188.667 197.333C160.4 200.8 160.533 200.8 158 196C156.8 193.733 156.133 192 156.4 192C163.067 192 212 184.8 214.4 183.333C218.8 181.067 223.067 180.933 229.333 183.067ZM64.6667 264.133C94.6667 294.4 95.7333 296.267 74.6667 282.267C65.0667 275.867 46.5333 256 40.4 245.6C35.0667 236.667 34.1333 234.667 35.0667 234.667C35.2 234.667 48.5333 248 64.6667 264.133Z" fill="#08068C"/>
<path d="M173.733 162.267C169.6 162.8 169.333 163.2 169.333 168V173.067L175.067 172.4C183.6 171.467 184 171.067 184 166C184 160.933 184.133 161.067 173.733 162.267Z" fill="#08068C"/>
</svg>
