<svg width="1088" height="168" viewBox="0 0 1088 168" fill="none" xmlns="http://www.w3.org/2000/svg">
<path d="M68.8811 79.52C67.4811 79.24 66.7811 78.54 66.7811 77.84C66.7811 76.44 67.7611 77 72.9411 73.5C85.5411 65.1 97.8611 54.18 103.741 47.32C105.561 45.22 105.561 43.26 104.581 41.72C99.6811 42.42 95.7611 43.26 93.3811 43.82C87.5011 45.36 87.7811 46.34 85.8211 46.34C81.9011 46.34 73.3611 41.44 71.6811 37.38C71.2611 36.4 71.4011 35.28 72.3811 35.28C72.8011 35.28 75.0411 36.96 82.8811 35.98C90.7211 35 121.661 30.94 132.441 29.96C138.321 29.4 138.181 27.44 140.141 27.16C146.021 26.32 155.541 30.52 155.541 34.44C155.541 36.82 151.901 40.18 149.941 39.76C143.781 38.36 132.721 38.78 121.801 39.76C124.041 41.02 125.861 42.42 126.701 43.54C128.101 45.5 127.121 46.2 125.441 47.74C123.901 49.14 122.361 50.54 120.821 51.8C142.661 50.26 157.781 54.32 156.941 63.84C156.521 68.6 153.161 71.82 148.261 71.12C145.461 70.7 144.761 70 140.841 67.48C133.701 62.86 121.661 58.38 114.101 57.54C94.5011 73.5 77.9811 81.2 68.8811 79.52ZM157.221 80.22C164.081 78.82 176.821 84.56 176.821 88.48C176.821 91.42 171.781 95.9 169.821 95.48C153.021 91.84 106.541 97.02 87.9211 99.82C78.8211 101.22 73.9211 102.62 71.1211 103.6C69.4411 104.16 68.3211 104.58 67.6211 104.58C62.7211 104.58 52.5011 98 50.8211 94.08C50.4011 93.1 50.5411 91.98 51.5211 91.98C51.9411 91.98 53.9011 93.66 67.6211 92.68C76.3011 91.98 92.9611 90.3 110.601 88.34L110.181 83.3C109.621 75.46 106.121 72.94 103.181 72.1C102.201 71.82 102.201 71.26 103.181 70.28C104.581 68.88 107.801 67.34 109.481 67.06C114.381 66.22 127.401 69.3 127.401 73.5C127.401 75.46 126.001 76.16 126.001 79.1L125.861 86.66L146.021 84.28C152.041 83.58 154.141 82.18 155.401 81.2C156.101 80.64 156.521 80.36 157.221 80.22ZM139.861 125.16C147.701 123.9 159.461 129.36 159.461 133.28C159.461 136.22 155.121 140.42 153.161 140.14C141.401 138.46 116.341 139.44 94.0811 140.98C92.1211 141.12 88.2011 137.9 87.7811 133.98L86.8011 124.6C85.8211 115.64 80.6411 113.54 77.7011 112.7C76.7211 112.42 76.7211 111.58 77.7011 110.6C79.6611 108.64 83.4411 106.4 85.4011 106.4C90.3011 106.4 104.441 109.2 104.441 114.1C104.441 116.06 103.461 116.34 103.601 120.26L104.021 128.24C104.161 130.2 105.141 130.2 106.121 130.2C109.061 130.2 120.121 129.64 123.061 129.36C138.741 127.82 137.341 125.58 139.861 125.16ZM282.516 21C287.416 21 301.416 26.88 301.416 30.8C301.416 32.76 300.016 33.46 300.016 36.4L299.316 113.4C299.176 128.1 295.256 147 287.416 147C283.496 147 283.216 140.98 283.216 130.2V77.14L273.416 78.4C270.336 78.82 269.216 79.52 268.376 79.94C267.816 80.22 267.396 80.5 266.556 80.5C264.876 80.5 261.516 78.82 258.716 76.86V90.3C258.716 98.14 255.216 107.1 248.356 107.1C245.976 107.1 244.716 104.86 244.156 100.52L217.416 102.9C215.876 107.24 212.796 110.46 208.736 110.46C204.816 110.46 204.396 104.44 203.136 93.66L199.776 65.8C198.656 56.98 194.316 55.44 191.376 54.6C190.396 54.32 190.396 53.48 191.376 52.5C193.336 50.54 197.116 49 199.076 49C204.956 49 217.556 52.08 217.556 56C217.556 57.96 216.576 57.68 216.856 61.6L217.276 68.88L242.756 65.8L242.476 58.8C242.196 49.98 238.136 47.04 235.196 46.2C234.216 45.92 234.216 45.08 235.196 44.1C236.596 42.7 241.216 40.6 243.176 40.6C248.076 40.6 260.256 45.08 260.256 49C260.256 50.96 258.856 51.66 258.856 54.6V70.7C260.816 70.56 263.336 70.42 265.436 70.14L278.036 68.6C279.716 68.32 282.236 69.44 283.216 70.84V40.6C283.216 31.78 276.356 27.44 273.416 26.6C272.436 26.32 272.436 25.48 273.416 24.5C275.376 22.54 280.556 21 282.516 21ZM218.816 94.36L243.456 92.12V90.3L242.896 74.06L217.836 77.14L218.816 93.66V94.36ZM356.43 69.02C354.47 69.44 350.41 65.94 350.13 62.02L349.15 49.98C348.45 41.16 342.99 38.22 340.05 37.38C339.07 37.1 339.07 36.26 340.05 35.28C342.01 33.32 345.79 31.08 347.75 31.08C354.61 31.08 366.79 34.58 366.79 39.48C366.79 41.44 365.95 42.84 366.09 45.78L366.65 55.58C366.79 56.98 367.49 57.82 368.89 57.68C373.65 57.26 391.29 54.88 394.93 54.46C406.69 53.06 405.57 51.1 407.53 50.68C411.45 49.84 423.63 52.22 423.63 57.12C423.63 60.06 419.43 63.42 417.33 63C408.51 61.18 369.17 66.22 356.43 69.02ZM319.61 86.8C319.19 85.82 319.33 84.7 320.31 84.7C320.73 84.7 322.69 86.38 336.41 85.4C351.11 84.28 388.63 80.08 414.81 77C420.83 76.3 422.93 74.9 424.19 73.92C424.89 73.36 425.31 73.08 426.01 72.94C432.87 71.54 445.61 77.28 445.61 81.2C445.61 84.14 440.57 88.62 438.61 88.2C421.81 84.56 375.33 89.74 356.71 92.54C347.61 93.94 342.71 95.34 339.91 96.32C338.23 96.88 337.11 97.3 336.41 97.3C331.51 97.3 321.29 90.72 319.61 86.8ZM363.57 140.42C361.61 140.56 357.69 137.34 357.27 133.42L356.29 121.94C355.45 112.98 350.13 110.88 347.19 110.04C346.21 109.76 346.21 108.92 347.19 107.94C349.15 105.98 352.93 103.74 354.89 103.74C361.75 103.74 373.79 106.54 373.79 111.44C373.79 113.4 372.81 115.08 372.95 119L373.37 127.68C373.51 129.64 374.49 129.64 375.47 129.64C378.41 129.64 391.43 128.94 394.37 128.66C410.05 127.12 408.65 124.74 411.17 124.46C419.01 123.62 430.77 128.66 430.77 132.58C430.77 135.52 425.73 139.72 423.77 139.44C412.01 137.76 385.83 138.88 363.57 140.42ZM517.286 77.42C515.886 77.14 515.186 76.44 515.186 75.74C515.186 74.34 516.446 74.76 522.186 71.12C536.886 62.02 551.446 48.3 559.286 39.48C562.226 36.12 558.586 32.76 554.666 31.78C553.686 31.5 553.686 30.66 554.666 29.68C556.346 28 560.406 26.18 562.366 26.18C568.246 26.18 578.746 31.36 581.546 35.28C582.946 37.24 581.686 37.94 580.286 39.48C577.346 42.56 574.406 45.36 571.606 48.02C595.966 44.94 607.446 50.54 606.746 59.64C606.326 65.1 601.986 68.46 597.366 67.62C594.846 67.2 594.426 66.08 590.086 63.42C583.366 59.22 573.706 55.02 565.306 53.76C545.286 71.4 528.346 79.52 517.286 77.42ZM607.026 72.38C613.886 70.98 626.626 76.86 626.626 80.78C626.626 83.72 621.586 88.2 619.626 87.78C600.026 83.58 552.706 90.58 537.726 93.38C528.626 95.06 523.726 96.18 520.926 97.16C519.246 97.72 518.126 98.14 517.426 98.14C512.526 98.14 502.306 91.56 500.626 87.64C500.206 86.66 500.346 85.54 501.326 85.54C501.746 85.54 503.706 87.22 517.426 86.24C532.126 85.12 569.646 79.66 595.826 76.58C601.846 75.88 603.946 74.34 605.206 73.36C605.906 72.8 606.326 72.52 607.026 72.38ZM576.646 103.88C589.386 107.8 604.226 117.74 604.226 124.6C604.226 139.3 588.686 146.16 556.906 146.16C542.206 146.16 533.526 136.22 533.526 128.38C533.526 120.54 545.566 112.98 557.466 105.28C563.906 101.08 561.806 99.54 558.866 98.42C558.166 98.14 558.166 97.86 558.866 97.16C559.846 96.18 562.926 95.06 564.326 94.92C568.246 94.5 579.026 98.56 579.026 100.94C579.026 101.92 577.766 102.48 576.646 103.88ZM563.626 134.26C580.286 134.26 587.426 130.34 587.426 125.44C587.426 120.68 578.326 112.14 570.486 109.06C559.706 117.88 552.426 123.48 552.426 127.4C552.426 130.34 556.766 134.26 563.626 134.26ZM731.62 21C736.52 21 750.52 26.88 750.52 30.8C750.52 32.76 749.12 33.46 749.12 36.4L748.42 113.4C748.28 128.1 744.36 147 736.52 147C732.6 147 732.32 140.98 732.32 130.2V87.5C717.62 99.26 685.7 111.58 664.98 114.52C661.9 114.94 655.74 107.8 655.04 100.94L654.06 89.74C653.22 80.78 648.74 79.38 645.8 78.54C644.82 78.26 644.82 77.42 645.8 76.44C647.76 74.48 651.54 72.24 653.5 72.24C657.14 72.24 662.6 72.94 666.38 74.34L683.32 72.24C685.28 71.96 686.68 71.68 687.66 71.4C688.08 64.96 688.08 56.98 687.8 54.46L677.3 55.72C665.26 57.12 664.84 60.2 661.9 60.2C657 60.2 647.48 53.9 645.8 49.98C645.38 49 645.52 47.88 646.5 47.88C646.92 47.88 648.74 49.98 661.9 48.3L680.8 45.92C688.92 44.94 688.64 41.72 690.6 41.72C696.48 41.72 709.22 44.38 709.22 48.3C709.22 50.26 707.12 51.1 706.42 53.9L702.5 70.56C705.3 71.96 707.54 73.64 707.54 75.46C707.54 78.4 703.06 81.48 701.24 81.06C694.52 79.52 682.34 80.5 670.86 82.46L671.7 96.18C671.84 98.14 672.54 99.12 673.52 99.12C690.18 98.14 717.62 91.14 732.32 83.3V40.6C732.32 31.78 725.46 27.44 722.52 26.6C721.54 26.32 721.54 25.48 722.52 24.5C724.48 22.54 729.66 21 731.62 21ZM885.615 58.1C892.335 56.42 900.315 63.28 900.315 67.2C900.315 70.14 895.275 74.06 893.315 73.5C888.275 72.1 882.535 71.26 876.095 71.12L875.815 91.28C875.675 101.22 871.895 113.68 864.055 113.68C860.135 113.68 859.855 109.06 859.855 98.28V40.6C859.855 31.78 852.995 27.44 850.055 26.6C849.075 26.32 849.075 25.48 850.055 24.5C852.015 22.54 857.195 21 859.155 21C864.055 21 877.915 26.88 877.915 30.8C877.915 32.76 876.515 33.46 876.515 36.4L876.235 62.16C881.135 61.6 882.955 60.2 884.075 59.08C884.635 58.52 885.055 58.24 885.615 58.1ZM811.275 43.68C800.775 44.1 792.375 39.62 790.275 32.9C789.995 31.92 790.135 30.8 790.975 30.8C791.395 30.8 791.815 31.64 795.175 32.2C800.215 33.04 806.095 32.06 810.715 30.38C819.955 27.02 825.415 29.68 825.835 34.72C826.255 39.34 820.515 43.26 811.275 43.68ZM840.815 80.78C840.815 91.56 827.795 101.22 804.275 101.22C792.515 101.22 784.115 93.52 784.115 87.64C784.115 78.82 794.195 69.44 802.035 61.6C803.575 60.06 804.415 59.08 804.555 58.38C799.655 59.08 795.455 59.92 792.515 60.62C785.935 62.16 785.935 64.96 784.115 64.54C779.215 63.56 771.375 58.94 769.415 55.02C768.995 54.04 769.135 52.92 770.115 52.92C770.535 52.92 772.775 54.6 780.615 53.62C788.455 52.64 811.835 49.42 822.615 48.44C828.495 47.88 828.355 45.78 830.315 45.5C836.195 44.52 846.415 46.34 846.415 51.24C846.415 53.62 842.775 57.54 840.815 57.12C835.075 55.86 826.675 56 818.275 56.7C819.255 57.4 819.955 58.1 819.955 58.66C819.955 59.64 819.115 59.78 818.135 61.18C831.855 66.08 840.815 72.94 840.815 80.78ZM801.615 85.54C801.615 88.9 804.975 92.82 809.875 92.82C820.655 92.82 825.415 87.5 825.415 82.6C825.415 77.42 821.915 71.12 813.095 67.2C806.235 75.04 801.615 80.64 801.615 85.54ZM865.315 125.58C873.155 124.32 884.915 129.78 884.915 133.7C884.915 136.64 880.575 140.84 878.615 140.56C866.855 138.88 842.635 139.72 820.375 141.26C818.415 141.4 814.495 138.18 814.075 134.26L813.235 125.02C812.395 116.06 807.075 114.66 804.135 113.82C803.155 113.54 803.155 112.7 804.135 111.72C806.095 109.76 809.875 107.66 811.835 107.52C816.735 107.1 830.875 109.62 830.875 114.52C830.875 116.48 829.755 116.76 830.035 120.68L830.455 128.52C830.595 130.48 831.575 130.48 832.555 130.48C835.495 130.48 845.575 130.06 848.515 129.78C864.195 128.24 862.795 126 865.315 125.58ZM1020.01 69.44C1026.73 67.76 1034.71 74.62 1034.71 78.54C1034.71 81.48 1029.67 85.4 1027.71 84.84C1022.39 83.3 1016.37 82.6 1009.37 82.46L1009.09 113.4C1008.95 128.1 1005.03 147 997.189 147C993.269 147 992.989 140.98 992.989 130.2V81.48C979.269 93.24 949.029 104.58 929.429 107.52C926.349 107.94 919.909 100.66 919.349 93.94L917.109 69.3C916.269 60.48 911.649 57.54 908.709 56.7C907.729 56.42 907.729 55.58 908.709 54.6C910.669 52.64 914.449 50.4 916.409 50.4C919.769 50.4 924.949 51.38 928.869 53.06C936.989 51.94 946.089 50.82 950.849 50.4C956.729 49.84 956.029 48.3 957.849 47.88C962.749 46.76 972.409 50.82 972.409 54.18C972.409 56.7 969.189 59.92 967.229 59.5C960.789 58.1 946.089 59.5 934.189 61.32L935.869 89.18C936.009 91.14 936.709 92.12 937.689 92.12C953.369 91.14 980.249 84.14 992.989 77.28V40.6C992.989 31.78 986.129 27.44 983.189 26.6C982.209 26.32 982.209 25.48 983.189 24.5C985.149 22.54 990.329 21 992.289 21C997.189 21 1011.19 26.88 1011.19 30.8C1011.19 32.76 1009.79 33.46 1009.79 36.4L1009.51 73.5C1011.19 73.36 1012.59 73.22 1013.71 72.94C1016.37 72.24 1017.63 71.26 1018.47 70.42C1019.03 69.86 1019.45 69.58 1020.01 69.44Z" fill="#C00101"/>
<rect x="1.5" y="1.5" width="1085" height="165" stroke="#C00101" stroke-width="10"/>
</svg>
