<svg width="509" height="168" viewBox="0 0 509 168" fill="none" xmlns="http://www.w3.org/2000/svg">
<path d="M68.3211 76.72C66.9211 76.44 66.2211 75.74 66.2211 75.04C66.2211 73.64 67.0611 74.62 72.2411 71.26C85.5411 62.86 97.0211 53.48 102.901 46.62C104.721 44.52 105.281 42.84 104.861 41.3C99.2611 42.14 94.6411 42.98 92.1211 43.68C86.2411 45.22 86.5211 46.2 84.5611 46.2C80.6411 46.2 72.1011 41.3 70.4211 37.24C70.0011 36.26 70.1411 35.14 71.1211 35.14C71.5411 35.14 73.7811 36.82 81.6211 35.84C89.4611 34.86 121.101 30.66 131.881 29.68C137.761 29.12 137.621 27.16 139.581 26.88C145.461 26.04 154.981 29.54 154.981 33.46C154.981 35.84 151.341 39.9 149.381 39.48C143.361 38.22 132.581 38.5 121.661 39.48C123.621 40.6 125.161 41.86 125.861 42.84C127.261 44.8 126.281 45.5 124.601 47.04L121.241 49.98C146.581 47.18 158.621 50.68 157.781 60.2C157.361 64.82 153.021 67.9 148.401 66.92C145.601 66.36 145.181 65.38 140.981 63.14C133.421 59.08 121.661 56.7 114.101 55.86C93.1011 72.66 77.5611 78.4 68.3211 76.72ZM157.221 70.84C164.081 69.44 176.821 75.32 176.821 79.24C176.821 82.18 171.781 86.66 169.821 86.24C158.061 83.72 136.221 85.26 117.461 87.5L117.181 87.64C121.101 88.62 125.581 90.72 125.581 93.24C125.581 95.2 125.301 98.14 124.881 100.1C124.461 102.06 124.181 102.62 123.901 102.76L124.041 102.9C125.021 103.04 126.281 103.18 127.541 103.6C139.721 107.94 153.581 116.34 153.581 124.46C153.581 139.16 137.761 146.16 105.981 146.16C91.2811 146.16 82.3211 136.08 82.3211 128.24C82.3211 120.4 94.5011 113.12 106.401 104.44C109.061 102.48 109.341 101.5 109.201 99.68L108.501 88.62C99.8211 89.74 92.4011 91 87.9211 91.84C78.8211 93.52 73.9211 94.64 71.1211 95.62C69.4411 96.18 68.3211 96.6 67.6211 96.6C62.7211 96.6 52.5011 90.02 50.8211 86.1C50.4011 85.12 50.5411 84 51.5211 84C51.9411 84 53.9011 85.68 67.6211 84.7C82.3211 83.58 119.841 78.12 146.021 75.04C152.041 74.34 154.141 72.8 155.401 71.82C156.101 71.26 156.521 70.98 157.221 70.84ZM119.841 107.52C109.061 116.34 101.221 123.34 101.221 127.26C101.221 130.2 105.841 134.26 112.701 134.26C129.361 134.26 136.781 130.2 136.781 125.3C136.781 120.54 128.661 111.58 119.841 107.52ZM241.916 50.68C237.996 49.84 232.536 45.92 230.716 42.84C230.156 41.86 230.436 41.02 231.416 41.02C231.836 41.02 233.516 41.86 238.416 41.44C240.096 41.3 241.356 41.16 242.896 40.88C250.736 39.48 250.736 36.96 252.696 36.96C258.576 36.96 269.916 38.78 269.916 42.42C269.916 44.38 267.676 45.64 266.136 48.58C263.336 54.18 260.676 59.22 258.016 63.56C259.696 63.56 261.516 63.28 263.056 63.14L278.176 61.32C279.856 61.04 282.376 62.16 283.356 63.56V40.6C283.356 31.78 276.496 27.44 273.556 26.6C272.576 26.32 272.576 25.48 273.556 24.5C275.516 22.54 280.696 21 282.656 21C287.556 21 301.416 26.88 301.416 30.8C301.416 32.76 300.016 33.46 300.016 36.4L299.316 70C299.176 77.84 294.416 89.6 287.556 89.6C282.936 89.6 283.356 84 283.356 74.2V69.72L271.036 71.26C267.956 71.68 266.836 72.38 265.996 72.8C265.436 73.08 265.016 73.36 264.176 73.36C262.216 73.36 257.876 71.12 254.936 68.74C241.636 90.16 232.256 94.22 225.256 93.38C223.856 93.24 222.456 92.68 222.456 91.7C222.456 90.3 223.436 90.86 227.216 86.24C237.716 73.5 245.976 60.34 248.916 48.86L247.516 49.14C243.316 49.98 243.876 51.1 241.916 50.68ZM229.316 52.5C215.596 80.92 203.976 85.82 195.156 85.82C193.196 85.82 191.656 85.12 191.656 84.14C191.656 82.74 192.636 83.16 195.576 79.52C202.576 71.12 208.876 62.02 211.816 52.22L207.616 52.92C202.716 53.76 203.276 54.88 201.316 54.6C197.956 54.18 191.936 49.28 190.116 46.06C189.556 45.08 189.836 44.24 190.816 44.24C191.236 44.24 192.216 45.22 198.516 44.94C201.596 44.8 204.116 44.38 207.196 43.82C214.056 42.56 214.056 40.04 216.016 40.04C221.896 40.04 232.396 43.4 232.396 46.34C232.396 48.3 231.136 48.58 229.316 52.5ZM283.916 92.4C289.796 92.4 300.856 93.94 300.856 97.86C300.856 99.82 298.756 101.22 298.616 104.16L297.496 125.3C297.076 134.12 293.716 144.9 285.876 144.9C281.956 144.9 281.956 138.88 281.676 128.1L281.116 103.88L274.956 104.72C271.456 105.28 271.596 106.26 269.636 106.26C266.276 106.26 259.276 101.5 257.456 98.56C256.756 97.44 257.176 96.46 258.156 96.46C258.576 96.46 260.396 97.44 265.156 96.88L274.116 95.76C282.096 94.78 281.956 92.4 283.916 92.4ZM239.116 96.74C244.996 96.74 256.616 98.56 256.616 102.48C256.616 104.44 254.796 105.84 254.516 108.78C253.396 120.26 251.996 131.6 251.016 135.66C250.036 139.58 240.936 143.92 237.016 143.92C235.616 143.92 234.916 143.5 234.916 142.8C234.916 142.1 235.336 142.1 235.756 138.32C236.596 130.48 237.296 118.3 237.016 108.5L229.316 109.62C223.716 110.32 224.276 111.86 222.316 111.86C218.396 111.86 209.996 107.24 208.316 103.18C207.896 102.2 208.036 101.08 209.016 101.08C209.436 101.08 210.136 102.62 220.916 101.22L229.316 100.24C237.436 99.26 237.156 96.74 239.116 96.74ZM435.81 67.9C442.53 66.22 450.51 73.08 450.51 77C450.51 79.94 445.47 83.86 443.51 83.3C438.33 81.76 432.45 81.06 425.59 80.92L425.31 113.4C425.17 128.1 421.25 147 413.41 147C409.49 147 409.21 140.98 409.21 130.2V40.6C409.21 31.78 402.35 27.44 399.41 26.6C398.43 26.32 398.43 25.48 399.41 24.5C401.37 22.54 406.55 21 408.51 21C413.41 21 427.41 26.88 427.41 30.8C427.41 32.76 426.01 33.46 426.01 36.4L425.73 71.96C427.27 71.82 428.53 71.68 429.51 71.4C432.17 70.7 433.43 69.72 434.27 68.88C434.83 68.32 435.25 68.04 435.81 67.9ZM390.45 56C390.03 56.56 389.75 57.26 389.61 58.24L385.55 93.38C388.49 94.92 390.73 96.88 390.73 98.7C390.73 101.64 386.39 104.3 384.43 103.6C377.15 100.94 366.37 101.92 347.61 104.44C345.65 107.66 342.85 110.32 339.77 110.32C335.85 110.32 335.57 105.7 334.17 94.92L330.81 67.9C329.69 59.08 325.35 57.54 322.41 56.7C321.43 56.42 321.43 55.58 322.41 54.6C324.37 52.64 328.15 50.4 330.11 50.4C333.89 50.4 339.91 51.38 343.69 53.2C350.27 52.5 357.27 51.24 363.85 50.4C367.07 49.98 369.03 49.28 370.29 48.44C371.97 47.32 372.53 46.2 373.65 46.2C379.53 46.2 392.41 48.72 392.41 52.64C392.41 54.04 391.29 54.74 390.45 56ZM349.99 95.76L366.51 93.66C368.47 93.38 369.87 93.24 371.13 92.96C371.55 81.76 371.55 63.42 371.27 57.96L347.75 60.76L349.99 95.76Z" fill="#C00101"/>
<rect x="1.5" y="1.5" width="506" height="165" stroke="#C00101" stroke-width="10"/>
</svg>
