<svg width="353" height="168" viewBox="0 0 353 168" fill="none" xmlns="http://www.w3.org/2000/svg">
<path d="M149.241 21C154.141 21 167.721 26.88 167.721 30.8C167.721 32.76 166.321 33.46 166.321 36.4L165.621 68.74C165.481 76.58 161.001 88.34 154.141 88.34C149.521 88.34 149.941 82.74 149.941 72.94V67.76L145.741 68.32C142.661 68.74 141.541 69.44 140.701 69.86C140.141 70.14 139.721 70.42 138.881 70.42C135.941 70.42 128.101 64.96 126.981 62.44C126.561 61.46 126.981 60.34 127.961 60.48C129.921 60.76 134.261 60.48 137.761 60.06L144.761 59.22C146.441 58.94 148.961 60.06 149.941 61.46V40.6C149.941 31.78 143.081 27.44 140.141 26.6C139.161 26.32 139.161 25.48 140.141 24.5C142.101 22.54 147.281 21 149.241 21ZM112.141 72.8C94.6411 92.82 82.6011 98.42 75.4611 97.58C74.0611 97.44 72.6611 96.88 72.6611 95.9C72.6611 94.5 73.3611 95.34 78.5411 90.86C81.9011 87.92 85.1211 84.98 88.0611 81.9C90.0211 79.38 89.4611 78.4 87.3611 75.46C85.8211 73.36 84.2811 71.54 82.7411 70C70.4211 83.02 61.4611 85.68 55.0211 84.14C53.6211 83.86 52.9211 83.16 52.9211 82.46C52.9211 81.06 53.4811 81.9 57.4011 78.54C63.0011 73.64 69.7211 65.8 73.6411 58.94C75.3211 56 76.0211 53.34 73.7811 51.8L70.2811 52.36C65.3811 53.34 65.9411 54.74 63.9811 54.32C60.0611 53.48 54.6011 49.14 52.9211 45.08C52.5011 44.1 52.5011 42.98 53.4811 42.98C53.9011 42.98 55.7211 44.52 62.5811 43.68L77.9811 41.72C81.9011 41.3 82.1811 40.32 84.2811 39.76C88.2011 38.78 94.3611 41.72 94.3611 44.66C94.3611 47.18 93.2411 51.24 91.2811 50.96C89.3211 50.68 87.2211 50.54 85.1211 50.68C89.1811 52.5 92.6811 54.88 92.6811 56.56C92.6811 57.54 92.5411 58.24 91.1411 60.06C90.1611 61.46 89.0411 62.72 88.0611 63.98C91.7011 65.8 95.2011 68.18 98.1411 70.7C102.201 65.66 105.701 60.76 108.641 56.28C110.461 53.48 110.601 50.54 108.361 48.58C102.901 49.7 104.301 50.82 102.341 50.12C99.4011 49.14 94.9211 44.24 93.9411 41.3C93.6611 40.46 93.8011 39.9 94.6411 39.9C95.0611 39.9 95.4811 40.74 102.341 39.9L114.941 38.36C118.861 37.94 119.281 36.26 121.241 35.98C127.121 35.14 134.541 37.52 134.541 41.44C134.541 44.38 131.601 48.02 129.641 47.74C126.701 47.32 123.061 47.32 119.561 47.46C122.361 49 124.881 50.82 126.281 52.78C127.681 54.74 126.001 55.16 124.741 56.98C122.221 60.34 119.841 63.56 117.461 66.36C122.641 66.92 132.861 71.68 134.821 74.48C136.221 76.44 134.821 77.84 133.561 79.66C123.761 93.94 115.781 96.74 108.921 94.78C107.801 94.5 106.821 93.8 106.821 93.1C106.821 92.12 107.521 92.54 110.601 90.02C115.501 85.82 119.001 82.04 119.421 79.1C119.701 76.72 116.061 74.2 112.141 72.8ZM147.701 90.44C152.601 90.44 164.921 94.92 164.921 98.84C164.921 100.8 163.521 101.5 163.521 104.44L163.381 127.82C163.381 135.66 159.321 144.62 152.461 144.62C150.081 144.62 148.961 142.52 148.261 138.6L115.641 139.58C113.681 142.94 110.601 145.74 106.821 145.74C102.901 145.74 102.621 139.72 101.221 128.94L99.2611 113.12C98.1411 104.3 95.4811 103.6 91.5611 102.62C90.5811 102.34 90.5811 101.5 91.5611 100.52C93.5211 98.56 97.3011 97.16 99.2611 97.02C105.141 96.6 117.041 99.4 117.041 103.32C117.041 105.28 116.061 105 116.341 108.92L116.481 110.6L147.001 108.64C146.721 99.82 142.661 96.88 139.721 96.04C138.741 95.76 138.741 94.92 139.721 93.94C141.121 92.54 145.741 90.44 147.701 90.44ZM117.741 131.04L147.561 130.06V127.82L147.281 116.9L116.901 118.72L117.741 131.04ZM211.816 133.98C208.036 134.26 204.396 133.7 202.716 133.28L202.436 133C201.596 131.32 200.196 127.4 200.476 122.78C200.896 115.64 204.256 111.58 211.816 111.58C218.536 111.58 223.296 116.06 223.296 122.78C223.296 129.5 218.956 133.56 211.816 133.98ZM281.816 133.98C278.036 134.26 274.396 133.7 272.716 133.28L272.436 133C271.596 131.32 270.196 127.4 270.476 122.78C270.896 115.64 274.256 111.58 281.816 111.58C288.536 111.58 293.296 116.06 293.296 122.78C293.296 129.5 288.956 133.56 281.816 133.98Z" fill="#08068C"/>
<rect x="1.5" y="1.5" width="350" height="165" stroke="#08068C" stroke-width="10"/>
</svg>
