<svg width="208" height="208" viewBox="0 0 208 208" fill="none" xmlns="http://www.w3.org/2000/svg">
<path d="M63.7202 32.7432C63.3777 33.1427 62.9782 34.113 62.8641 34.912C62.6929 36.1677 62.4075 36.3389 59.8392 36.5101C56.8143 36.6813 55.3874 37.7657 55.9581 39.3638C56.5289 40.7906 57.385 41.2472 59.1543 40.8477C60.8665 40.5053 61.2089 41.1901 59.8392 42.3316C58.8118 43.1877 58.7548 44.7287 59.6679 45.6419C60.0675 46.0414 60.2387 46.3268 60.1245 46.3839C59.9533 46.3839 58.8118 46.5551 57.5562 46.6692C54.9879 47.0117 53.8464 47.7536 53.8464 49.1805C53.8464 50.5503 55.6157 50.8927 59.4396 50.2649C63.8343 49.58 64.6904 49.6371 64.6904 50.5503C64.6904 51.121 63.606 51.6347 61.5514 52.0342C56.0152 53.1756 53.3898 56.7142 56.1864 59.2255C57.2138 60.1387 58.2411 60.3099 63.3207 60.1957C71.1968 60.0816 76.1052 58.1981 76.1052 55.3445C76.1052 53.7464 74.7925 52.662 71.4251 51.4634C68.1149 50.322 67.3158 49.3517 69.3705 48.9522C77.1896 47.3541 77.532 47.24 77.7033 45.699C77.9316 43.6443 77.0754 43.4731 72.4525 44.3863C70.3407 44.8429 67.0875 45.4136 65.2612 45.699L61.8938 46.1556L63.6631 43.8726C65.6036 41.4755 65.09 41.5326 71.3681 42.7882C74.1647 43.416 74.9637 43.0736 74.7925 41.3043C74.7354 40.4482 74.2218 39.8775 73.3657 39.6492C72.1671 39.3638 72.11 39.2496 72.9661 38.3365C73.4798 37.7657 73.8222 36.7955 73.7081 36.2247C73.5369 35.3686 72.9661 35.1974 70.2837 35.3115C67.1446 35.4257 67.0305 35.3686 66.8592 33.8847C66.688 32.1725 64.7475 31.4876 63.7202 32.7432ZM69.7129 55.4015C70.6261 55.9723 67.43 56.6001 63.3207 56.6001C60.0104 56.6001 60.2387 55.9723 63.7202 55.4015C67.2017 54.8308 68.8568 54.8308 69.7129 55.4015Z" fill="#08068C"/>
<path d="M140.827 35.7681C140.142 36.7954 139.4 37.1949 138.087 37.1949C136.946 37.1949 135.919 37.6515 135.234 38.4506C134.206 39.6491 134.206 39.6491 135.519 40.7335C136.432 41.4755 137.46 41.7038 138.715 41.5326C139.742 41.3613 140.713 41.4755 140.884 41.7608C141.226 42.3316 139.172 42.9023 136.546 42.9023C133.807 42.9023 132.779 44.1009 133.693 46.1555C134.32 47.5824 134.549 47.5824 137.916 47.3541C141.341 47.0687 141.512 47.1258 142.197 48.4956C142.71 49.637 142.71 50.0936 142.197 50.379C141.854 50.6073 138.316 50.9497 134.378 51.178C125.759 51.6346 125.189 51.7488 125.189 53.3468C125.189 55.5727 127.814 56.2005 134.777 55.7439C138.144 55.5156 141.112 55.2873 141.455 55.2873C141.74 55.2303 142.025 56.543 142.025 58.2552C142.025 61.223 142.083 61.3942 143.738 61.8508C145.964 62.4216 146.648 61.5084 147.162 57.0566C147.505 54.0888 147.39 53.4039 146.42 52.0341C145.45 50.7214 145.393 50.379 146.021 49.6941C146.42 49.2375 146.877 48.3814 146.934 47.7536C147.219 45.5848 145.564 36.3388 144.708 35.3115C143.509 33.9417 141.911 34.113 140.827 35.7681Z" fill="#08068C"/>
<path d="M122.221 37.0238C121.65 37.6516 121.194 38.4506 121.194 38.793C121.194 39.8204 123.191 40.6194 125.702 40.6194C127.015 40.6194 128.042 40.8477 128.042 41.076C128.042 41.875 126.33 45.1282 125.702 45.4707C124.104 46.498 125.988 49.1805 128.271 49.1805C129.583 49.1805 130.04 48.6097 131.752 45.0141C135.177 37.8228 134.606 36.5101 127.928 36.1677C123.762 35.9394 123.077 36.0535 122.221 37.0238Z" fill="#08068C"/>
<path d="M164.227 54.4313C163.257 55.8011 160.346 59.7962 157.778 63.3919C155.209 66.9305 153.212 70.2407 153.383 70.6403C153.954 72.1242 155.495 71.4393 157.321 68.8139C158.291 67.33 161.145 63.3919 163.542 60.0816C165.996 56.7713 167.937 53.6323 167.823 53.1757C167.537 51.4635 165.939 52.0342 164.227 54.4313Z" fill="#08068C"/>
<path d="M120.223 60.8806C118.625 61.6796 117.027 62.707 116.628 63.1636C116.114 63.7914 115.486 63.6772 112.747 62.5928C105.555 59.6821 93.1132 59.5679 85.6365 62.3645L82.2692 63.6202L79.6438 62.3645C76.5047 60.8235 71.7105 60.6523 68.6285 61.965C65.4324 63.2777 64.0626 65.1041 59.8392 73.2086C59.3826 74.0647 58.6406 74.293 56.4147 74.293C52.5337 74.35 49.0522 76.0052 45.799 79.4867C43.0024 82.4545 40.4911 87.6482 39.8063 91.9858C39.4067 94.4971 39.1784 94.6112 37.0096 93.5839C35.8111 93.0132 35.4116 93.0702 35.0121 93.6981C34.213 94.9537 35.0121 95.9239 37.3521 96.6088C39.4067 97.2366 39.578 97.4649 40.1487 100.49C42.0321 110.078 46.3697 117.954 54.3601 126.344C59.6109 131.823 60.0675 132.508 60.7523 135.019C61.0377 136.332 61.4372 137.759 61.6084 138.216C62.2363 139.928 63.549 148.261 63.549 150.315C63.549 151.514 63.7773 152.484 64.1197 152.484C64.4051 152.484 64.5192 152.827 64.348 153.283C64.1768 153.74 64.5192 154.368 65.2041 154.71C66.5739 155.452 74.9066 155.509 80.557 154.767C82.8399 154.482 98.8206 154.139 116.114 154.082L147.562 153.968L147.276 152.655C147.162 151.913 147.219 151.171 147.505 151.057C147.904 150.772 146.306 145.236 145.222 143.352C144.936 142.839 144.537 141.069 144.308 139.414L143.909 136.389L146.705 133.421C152.242 127.657 157.607 121.322 159.319 118.525C161.659 114.701 164.455 107.339 165.197 102.944L165.825 99.3484L169.193 97.6361C172.731 95.8669 173.074 95.4103 171.704 94.2688C171.019 93.6981 170.448 93.8122 168.85 94.7825C166.225 96.3234 165.711 96.2664 165.711 94.6683C165.711 92.1571 163.885 87.1346 162.172 84.9658C159.49 81.6555 153.954 78.0028 148.988 76.4047C145.279 75.1491 143.909 74.9778 140.484 75.2632C136.718 75.6057 136.432 75.5486 136.832 74.5783C137.06 74.0076 137.345 72.1242 137.517 70.3549C138.087 64.248 134.035 60.0816 127.072 59.625C123.705 59.3967 122.792 59.5679 120.223 60.8806ZM130.497 63.1065C133.236 64.248 134.435 65.9602 134.72 68.9851C135.005 72.4666 133.636 75.1491 130.439 77.3179C125.246 80.8564 123.419 87.5341 126.558 91.301C127.357 92.2141 129.526 93.7551 131.41 94.7254C134.72 96.5517 134.777 96.6088 135.234 99.5767C135.861 103.572 135.576 106.825 134.435 108.594C133.122 110.649 129.869 114.245 129.355 114.245C129.127 114.245 128.442 114.872 127.757 115.614C125.702 118.069 120.566 119.495 112.975 119.838C108.923 120.009 105.042 119.838 103.272 119.438C98.2498 118.297 95.9669 118.183 91.5151 118.811C79.3013 120.466 67.4871 115.044 65.2041 106.654C64.5192 104.028 64.9187 101.232 66.4026 98.264C68.5715 93.9834 71.1968 84.9087 70.6832 83.4818C70.4549 82.9682 69.2563 81.7696 67.9436 80.8564C66.6309 79.8862 65.09 78.174 64.4621 76.9754C63.549 75.092 63.4919 74.4642 64.0626 72.2383C66.0031 64.5333 72.2242 61.7367 79.4155 65.2753L82.3833 66.7592L85.8648 65.3895C94.1976 62.0221 106.811 62.4787 114.801 66.4168C115.886 66.9875 116.342 66.8734 117.655 65.846C121.707 62.5358 126.673 61.4514 130.497 63.1065ZM62.065 78.5735C62.4075 79.2013 63.9485 80.9135 65.4324 82.3974C68.1719 85.0799 68.1719 85.137 67.5441 87.1346C67.0305 88.7326 66.5739 89.1321 65.3753 89.1321C62.1792 89.1321 58.4694 93.1844 57.6133 97.6361C57.2138 99.862 58.6977 103.629 61.0948 106.54C62.008 107.567 63.549 109.85 64.5763 111.619C66.7451 115.272 69.4846 117.384 75.2491 119.724C79.1301 121.322 79.5867 121.379 89.5175 121.436C95.1678 121.493 101.332 121.778 103.215 122.178C113.146 124.004 126.273 121.721 130.382 117.327C131.067 116.585 132.095 115.957 132.608 115.957C133.122 115.957 135.177 114.758 137.174 113.331C143.281 108.937 146.306 105.056 146.306 101.517C146.306 98.264 143.624 96.2093 136.546 93.9834C132.779 92.7849 129.241 90.5019 128.099 88.5043C127.129 86.7921 127.529 84.9658 129.355 82.2262C131.353 79.2584 133.921 78.2881 140.713 78.174C146.249 78.0598 146.82 78.1169 150.301 79.772C156.009 82.4545 159.89 85.8219 161.545 89.5317C162.914 92.4424 162.972 93.1844 162.686 98.4923C162.058 110.307 158.177 117.441 144.308 131.938C142.653 133.707 141.226 135.476 141.112 135.933C140.827 137.645 141.911 142.61 143.509 146.777C144.423 149.117 145.164 151.114 145.164 151.228C145.164 151.286 141.911 151.343 137.916 151.228C120.394 150.886 87.8053 151.4 78.9018 152.199C73.7081 152.655 68.7997 152.827 67.9436 152.598C66.4597 152.199 66.3456 151.97 66.1173 148.204C65.9461 144.265 63.4919 133.364 62.2933 131.138C61.9509 130.454 60.0675 128.285 58.1269 126.23C51.5635 119.438 49.2234 116.299 46.6551 110.934C40.9477 99.0059 41.176 89.4175 47.34 81.8838C50.422 78.174 52.762 77.0896 57.4991 77.3179C60.7523 77.432 61.5514 77.6603 62.065 78.5735ZM65.8319 92.3283C65.8319 93.2415 61.7226 101.118 61.266 101.118C59.3255 101.118 60.1816 95.7527 62.5216 93.5839C64.1197 92.1 65.8319 91.4722 65.8319 92.3283ZM141.455 98.8347C144.023 100.262 144.023 102.487 141.455 105.855C140.313 107.339 138.943 108.766 138.316 109.108C137.288 109.622 137.288 109.565 137.859 107.909C138.201 106.882 138.316 104.257 138.144 101.688C137.802 96.723 137.745 96.8371 141.455 98.8347Z" fill="#08068C"/>
<path d="M125.702 68.1861C122.221 70.5261 123.305 72.9803 126.787 70.7544C128.499 69.67 129.184 67.8436 128.099 67.2158C127.814 67.0446 126.73 67.5012 125.702 68.1861Z" fill="#08068C"/>
<path d="M71.8247 69.2134C71.2539 70.1266 73.2515 72.01 74.7925 72.01C76.3906 72.01 76.5047 70.8115 75.0779 69.5558C73.8793 68.4714 72.3383 68.3002 71.8247 69.2134Z" fill="#08068C"/>
<path d="M125.816 72.5237C124.903 73.0944 125.36 74.8637 126.444 74.8637C127.757 74.8637 128.784 73.8364 128.442 72.9232C128.042 71.8959 127.015 71.7817 125.816 72.5237Z" fill="#08068C"/>
<path d="M73.3657 74.4071C73.594 75.9481 75.2491 76.4618 75.7628 75.1491C76.2194 73.8934 75.7057 73.1515 74.336 73.1515C73.4799 73.1515 73.1945 73.4939 73.3657 74.4071Z" fill="#08068C"/>
<path d="M88.2619 81.1418C86.036 82.055 86.6068 83.4247 89.1751 83.4247C91.8005 83.4247 92.4854 82.7399 91.1727 81.4842C90.2024 80.4569 90.0312 80.4569 88.2619 81.1418Z" fill="#08068C"/>
<path d="M108.58 82.3404C107.952 83.596 108.466 83.9384 111.263 84.1667C112.575 84.2809 112.918 84.0526 112.918 83.1394C112.918 81.4843 109.379 80.8564 108.58 82.3404Z" fill="#08068C"/>
<path d="M87.8624 91.1868C86.2073 92.7849 86.9493 95.4103 89.0039 95.4103C90.9444 95.4103 91.9717 92.842 90.602 91.358C89.4034 90.0453 89.0039 89.9883 87.8624 91.1868Z" fill="#08068C"/>
<path d="M108.98 91.0156C107.724 91.9288 107.952 94.7825 109.322 95.6386C110.749 96.4947 112.918 94.3259 112.347 92.6137C111.833 90.9014 110.178 90.1595 108.98 91.0156Z" fill="#08068C"/>
<path d="M101.046 97.522C100.818 97.6932 99.4484 97.8074 97.8504 97.8074L95.0537 97.6932L94.6542 100.946C94.3118 103.743 94.4259 104.314 95.3391 104.942C96.5947 105.912 102.359 105.512 103.044 104.428C103.9 103.058 103.387 98.264 102.359 97.6932C101.788 97.4079 101.218 97.2937 101.046 97.522ZM100.647 101.688C100.647 102.602 100.247 102.83 98.9348 102.83C97.6221 102.83 97.2225 102.602 97.2225 101.688C97.2225 100.775 97.6221 100.547 98.9348 100.547C100.247 100.547 100.647 100.775 100.647 101.688Z" fill="#08068C"/>
<path d="M35.2975 60.5952C35.0121 61.0518 39.3497 67.9577 41.9751 71.268C42.6029 72.067 44.1439 71.6105 44.1439 70.5831C44.1439 69.7841 40.0346 63.3348 38.2653 61.2801C37.0097 59.9674 35.8682 59.682 35.2975 60.5952Z" fill="#08068C"/>
<path d="M151.043 73.551C150.016 73.8934 150.13 75.8339 151.1 76.1764C152.356 76.69 153.269 75.2632 152.413 74.1788C152.07 73.6651 151.386 73.3797 151.043 73.551Z" fill="#08068C"/>
<path d="M26.451 79.9433C26.451 88.3331 26.9076 91.301 28.2774 92.0429C28.9052 92.3854 29.6472 92.4424 29.9325 92.1571C30.1608 91.9288 29.9896 87.6482 29.4759 82.6828C28.6198 74.7496 28.3915 73.7222 27.4784 73.7222C26.5652 73.7222 26.451 74.293 26.451 79.9433Z" fill="#08068C"/>
<path d="M44.9429 75.1491C44.4292 76.4047 46.1985 78.174 47.0546 77.3179C47.9107 76.4618 47.4541 74.6354 46.2556 74.4071C45.7419 74.2929 45.1141 74.6354 44.9429 75.1491Z" fill="#08068C"/>
<path d="M178.039 74.7495C177.468 75.7769 173.701 88.1048 173.701 89.0751C173.701 89.6458 174.044 90.4448 174.5 90.7873C175.128 91.3009 175.699 89.9882 177.639 83.596C178.952 79.2584 179.979 75.5486 179.979 75.3773C179.979 74.8066 178.324 74.2929 178.039 74.7495Z" fill="#08068C"/>
<path d="M29.3047 75.7198C29.3047 76.3476 29.7042 79.9432 30.1608 83.7101C30.6174 87.4199 31.0169 90.7873 31.0169 91.1297C31.074 92.4995 32.7862 88.3902 33.0716 86.1072C33.4711 83.1394 32.1584 77.9457 30.4462 75.9481C29.4189 74.6354 29.3618 74.6354 29.3047 75.7198Z" fill="#08068C"/>
<path d="M174.9 77.4891C173.017 80.3998 172.389 82.6828 172.674 85.7648C172.845 87.4199 173.131 86.8492 174.957 81.4842C176.156 78.0598 177.012 75.149 176.898 75.0349C176.783 74.9207 175.87 76.0051 174.9 77.4891Z" fill="#08068C"/>
<path d="M24.5676 76.4618C23.4832 78.1169 23.4832 83.2536 24.5105 86.6209C25.5378 89.8741 25.5949 89.9312 25.7091 87.9907C25.9944 84.7375 25.0812 75.6627 24.5676 76.4618Z" fill="#08068C"/>
<path d="M179.409 80.1145C178.724 82.3974 177.697 85.936 177.069 87.9336C176.441 89.9312 176.041 91.7004 176.213 91.8146C176.384 91.9858 177.126 91.9858 177.925 91.7575C181.292 90.9014 183.861 82.3974 182.034 78.1169C181.578 76.9754 181.064 76.0052 180.893 76.0052C180.721 76.0052 180.037 77.8886 179.409 80.1145Z" fill="#08068C"/>
<path d="M18.0041 90.6731C17.7187 91.2439 17.5475 92.9561 17.6046 94.44C17.7758 97.6361 19.0885 99.6908 21.9422 101.403L23.8827 102.487L23.0266 101.289C22.57 100.604 21.1431 98.6064 19.9446 96.8942C18.689 95.1249 17.8328 93.5839 18.0041 93.4127C18.1182 93.2414 19.3168 94.7254 20.6295 96.7229C24.7388 102.944 26.3368 103.971 28.9622 101.974C29.8183 101.289 29.9896 100.718 29.7042 98.5493C29.2476 95.3532 28.1632 93.641 25.1383 91.4151C22.3987 89.4175 18.8602 89.075 18.0041 90.6731ZM22.7983 93.8122C24.2822 95.8098 26.2798 98.2639 27.1929 99.2342C28.1632 100.262 28.791 101.232 28.6198 101.403C28.2774 101.745 25.0812 98.0356 21.6568 93.2414C18.6319 89.075 19.5451 89.5316 22.7983 93.8122Z" fill="#08068C"/>
<path d="M183.689 92.9561C179.295 95.239 175.585 101.003 176.099 104.656C176.213 105.741 177.012 105.056 181.178 100.262C183.861 97.1225 186.543 94.1546 187.171 93.698C188.312 92.7849 187.114 94.3259 180.436 102.088C176.441 106.768 176.099 107.339 176.841 108.309C177.354 109.051 177.811 109.222 178.153 108.823C180.836 106.083 190.253 95.1249 190.253 94.7254C190.253 93.7551 187.913 91.9858 186.714 91.9858C185.972 92.0429 184.66 92.4424 183.689 92.9561Z" fill="#08068C"/>
<path d="M184.602 102.716C179.58 108.48 178.952 109.393 179.98 109.565C184.431 110.249 188.997 105.569 190.253 98.9488C190.481 97.4649 190.652 96.2093 190.595 96.1522C190.481 96.0381 187.799 99.0059 184.602 102.716Z" fill="#08068C"/>
<path d="M19.6021 105.512C19.6021 105.684 20.8007 107.167 22.3417 108.766C23.8256 110.364 25.9944 112.761 27.1359 114.13C28.9622 116.299 29.2476 116.47 29.533 115.5C30.0466 114.016 28.1061 109.736 26.1086 107.852C23.8827 105.798 19.6021 104.257 19.6021 105.512Z" fill="#08068C"/>
<path d="M17.5474 106.54C17.1479 107.51 17.205 107.567 22.3987 113.788C25.0812 117.041 26.451 118.24 27.4212 118.24C28.1061 118.24 28.7339 118.011 28.7339 117.726C28.7339 116.984 19.0314 105.684 18.4036 105.684C18.1182 105.684 17.7187 106.083 17.5474 106.54Z" fill="#08068C"/>
<path d="M16.9197 111.277C17.0909 113.56 17.5475 114.701 18.689 115.9C20.1729 117.441 24.5105 119.21 25.1383 118.582C25.3666 118.411 24.3393 117.041 22.9695 115.557C21.5997 114.016 19.6021 111.79 18.5748 110.535L16.6914 108.252L16.9197 111.277Z" fill="#08068C"/>
<path d="M182.947 111.562C181.121 112.133 175.984 116.642 175.984 117.669C175.984 118.069 188.255 111.847 189.054 111.048C189.568 110.592 184.774 110.934 182.947 111.562Z" fill="#08068C"/>
<path d="M183.461 114.758C176.384 118.411 175.242 119.267 175.927 120.409C176.27 120.979 177.811 120.523 182.434 118.525C185.744 117.098 188.655 115.957 188.94 115.957C189.511 116.014 181.863 119.61 179.123 120.58C176.669 121.493 176.612 122.007 178.838 122.52C182.719 123.376 187.342 121.493 189.91 118.069C190.824 116.813 190.938 116.356 190.31 116.014C189.739 115.671 189.796 115.443 190.538 115.158C191.566 114.815 191.566 111.905 190.538 111.619C190.253 111.505 187.057 112.932 183.461 114.758Z" fill="#08068C"/>
<path d="M159.091 120.58C158.292 121.892 165.882 127.314 167.652 126.63C169.307 126.002 168.451 125.032 162.344 120.979C160.632 119.781 159.661 119.667 159.091 120.58Z" fill="#08068C"/>
<path d="M41.5185 125.831C35.4116 130.339 34.1559 131.595 34.6696 132.451C35.2974 133.421 37.4092 132.28 43.2307 127.999C47.6254 124.746 48.5385 123.776 48.3103 122.863C48.139 122.178 47.7966 121.664 47.5683 121.664C47.34 121.664 44.6575 123.548 41.5185 125.831Z" fill="#08068C"/>
<path d="M169.935 128.228C169.535 129.255 170.106 130.225 171.133 130.225C172.332 130.225 172.731 129.141 171.989 128.228C171.076 127.143 170.334 127.143 169.935 128.228Z" fill="#08068C"/>
<path d="M152.299 128.513C151.842 129.255 152.013 129.54 157.607 136.332C162.173 141.925 163.485 143.067 164.227 142.382C165.083 141.526 164.227 140.042 159.604 134.22C154.924 128.456 153.155 127.086 152.299 128.513Z" fill="#08068C"/>
<path d="M49.9654 129.198C48.881 130.282 49.1093 131.938 50.422 131.938C51.4494 131.938 52.705 130.454 52.705 129.141C52.705 128.285 50.8216 128.342 49.9654 129.198Z" fill="#08068C"/>
<path d="M44.4863 137.36C42.6029 140.27 43.8585 142.04 46.1414 139.585C46.9405 138.729 47.5683 137.588 47.5683 137.017C47.5683 135.419 45.5707 135.647 44.4863 137.36Z" fill="#08068C"/>
<path d="M141.797 156.422C140.77 157.05 140.884 164.527 141.911 165.154C143.11 165.953 144.251 165.383 144.594 163.899C145.05 161.958 148.304 161.502 148.874 163.271C149.388 164.926 151.329 164.812 151.728 163.157C151.956 162.415 152.013 160.531 151.899 158.99C151.728 156.422 151.614 156.194 150.187 156.023C148.931 155.851 148.475 156.137 148.075 157.221C147.447 158.933 144.594 159.732 144.594 158.248C144.594 157.335 143.566 155.908 142.939 155.908C142.71 155.908 142.254 156.137 141.797 156.422Z" fill="#08068C"/>
<path d="M69.2564 158.477C68.971 159.219 68.7998 160.589 68.8569 161.445C68.971 162.814 68.7427 163.043 67.43 163.214C65.9461 163.385 65.832 163.271 65.832 161.445C65.832 158.99 64.7476 157.906 63.2636 158.99C62.3505 159.618 62.2934 160.417 62.5217 166.125C62.807 172.802 63.4919 174.629 65.4324 173.83C66.1744 173.544 66.4027 172.745 66.4027 170.063C66.4027 166.867 66.4598 166.695 67.7154 166.867C68.8569 167.038 68.971 167.437 69.2564 171.261C69.4847 174.4 69.77 175.656 70.512 176.113C72.4525 177.311 72.852 175.827 72.7379 167.78C72.6237 158.933 72.3954 157.849 70.9115 157.449C70.0554 157.221 69.5988 157.507 69.2564 158.477Z" fill="#08068C"/>
<path d="M89.1751 158.02C88.5473 158.705 88.4331 160.874 88.5473 166.981C88.7185 176.398 88.8897 177.14 90.5449 176.912C91.6293 176.74 91.8005 176.341 91.9717 173.259L92.1429 169.72L94.3688 169.378C96.3093 169.093 96.6518 168.807 96.6518 167.666C96.6518 166.239 95.6815 165.611 93.4556 165.611C92.1429 165.611 92.0859 165.44 92.0859 161.901C92.0859 158.876 91.9146 158.134 91.0015 157.678C90.2024 157.221 89.7458 157.278 89.1751 158.02Z" fill="#08068C"/>
<path d="M106.697 157.963C105.213 159.048 105.955 160.303 108.466 160.988C111.32 161.787 112.347 161.787 113.089 160.874C114.002 159.79 113.089 158.762 110.292 157.963C108.124 157.278 107.553 157.278 106.697 157.963Z" fill="#08068C"/>
<path d="M51.7347 159.162C50.5933 159.618 50.7074 169.834 51.906 170.976C53.6182 172.745 61.8368 171.889 61.8368 169.949C61.8368 168.579 60.2387 168.065 57.1567 168.351L54.3601 168.636L54.4743 164.355C54.6455 158.99 54.1889 158.134 51.7347 159.162Z" fill="#08068C"/>
<path d="M123.248 159.675C123.077 160.189 122.906 161.73 122.906 163.157C122.906 165.44 122.792 165.668 121.65 165.497C120.566 165.383 120.28 164.869 120.052 162.757C119.824 160.474 119.595 160.189 118.34 160.189H116.913V167.323C116.913 174.971 117.198 176.455 118.853 176.455C120.109 176.455 120.623 174.971 120.623 171.433C120.623 169.435 120.794 169.035 121.764 169.035C122.792 169.035 122.906 169.435 122.906 172.974C122.906 177.311 123.819 178.966 125.474 177.597C126.159 177.026 126.33 175.257 126.33 168.75C126.33 159.847 126.159 158.762 124.618 158.762C124.047 158.762 123.419 159.162 123.248 159.675Z" fill="#08068C"/>
<path d="M130.953 159.561C130.268 160.417 130.725 165.44 131.638 166.581C132.437 167.666 137.973 167.552 138.886 166.467C140.028 165.097 138.259 163.442 136.033 163.785C134.834 163.956 134.32 163.785 134.263 163.271C134.035 159.276 132.551 157.621 130.953 159.561Z" fill="#08068C"/>
<path d="M78.9018 160.36C76.2194 160.474 75.5916 160.703 75.3633 161.673C74.9638 163.1 76.4477 163.899 79.4726 163.899H81.7555L79.4726 167.837C78.274 169.949 77.2467 172.117 77.2467 172.574C77.2467 173.658 78.7306 174.971 79.4155 174.515C80.1004 174.115 85.5795 164.584 86.0361 162.986C86.6639 160.817 84.6092 160.075 78.9018 160.36Z" fill="#08068C"/>
<path d="M104.414 163.671C103.729 165.497 105.156 166.182 109.722 166.182C114.288 166.182 115.087 165.953 115.657 164.355C116.114 163.157 114.63 162.757 109.151 162.757C105.612 162.757 104.699 162.929 104.414 163.671Z" fill="#08068C"/>
<path d="M145.735 166.81C143.681 167.038 140.37 167.38 138.316 167.609C133.065 168.179 132.038 168.978 132.038 172.403C132.038 174.4 132.323 175.428 133.179 176.17C134.206 177.083 134.606 177.14 141.569 176.227C153.611 174.629 152.812 174.971 153.041 171.09C153.155 169.207 152.984 167.552 152.755 167.323C151.899 166.524 149.445 166.353 145.735 166.81ZM149.616 170.805C149.274 171.832 146.82 172.403 140.656 172.802C136.204 173.145 135.348 173.088 135.576 172.403C135.861 171.547 141.169 170.576 146.82 170.291C149.046 170.177 149.788 170.291 149.616 170.805Z" fill="#08068C"/>
<path d="M107.439 168.75C103.101 171.09 104.471 177.596 109.322 177.596C111.206 177.596 111.662 177.311 112.632 175.713C114.231 173.202 114.059 171.49 112.119 169.549C110.235 167.723 109.608 167.609 107.439 168.75ZM110.064 173.031C110.064 173.43 109.722 173.887 109.379 174.001C108.923 174.172 108.637 173.773 108.637 173.031C108.637 172.289 108.923 171.889 109.379 172.003C109.722 172.174 110.064 172.631 110.064 173.031Z" fill="#08068C"/>
<circle cx="104" cy="104" r="101.5" stroke="#08068C" stroke-width="5"/>
</svg>
